<?xml version="1.0" encoding="UTF-8" standalone="no"?>
<svg width="100px" height="100px" viewBox="0 0 100 100" version="1.1" xmlns="http://www.w3.org/2000/svg" xmlns:xlink="http://www.w3.org/1999/xlink" xmlns:sketch="http://www.bohemiancoding.com/sketch/ns">
    <!-- Generator: Sketch 3.1.1 (8761) - http://www.bohemiancoding.com/sketch -->
    <title>mobilPlus-clients-advetisers-8</title>
    <desc>Created with Sketch.</desc>
    <defs></defs>
    <g id="utilities" stroke="none" stroke-width="1" fill="none" fill-rule="evenodd" sketch:type="MSPage">
        <g id="mobilPlus-clients-advetisers-8" sketch:type="MSArtboardGroup">
            <rect id="Rectangle-52" fill="#979797" sketch:type="MSShapeGroup" x="0" y="0" width="100" height="100"></rect>
            <g id="Imported-EPS" sketch:type="MSLayerGroup" transform="translate(10.000000, 42.000000)" stroke="#FFFFFF" fill="#FFFFFF">
                <g id="Page-1" sketch:type="MSShapeGroup">
                    <path d="M42.4610909,6.82327273 C42.4610909,2.86109091 45.8690909,-0.350545455 49.8341818,-0.350545455 C53.7949091,-0.350545455 57.2043636,2.86109091 57.2043636,6.82327273 C57.2043636,10.7854545 53.7949091,13.9970909 49.8341818,13.9970909 C45.8690909,13.9970909 42.4610909,10.7854545 42.4610909,6.82327273 L42.4610909,6.82327273 Z M56.4247273,6.82327273 C56.4247273,3.24654545 53.4094545,0.347636364 49.8341818,0.347636364 C46.2603636,0.347636364 43.2421818,3.24654545 43.2421818,6.82327273 C43.2421818,10.4 46.2603636,13.2989091 49.8341818,13.2989091 C53.4094545,13.2989091 56.4247273,10.4 56.4247273,6.82327273 L56.4247273,6.82327273 Z" id="Fill-1"></path>
                    <path d="M28.5425455,8.92218182 L26.7069091,12.8858182 L24.8727273,8.92218182 L20.7985455,0.359272727 L19.984,0.359272727 L26.6661818,14.3985455 L26.7461818,14.3985455 L33.4298182,0.359272727 L32.6152727,0.359272727 L28.5425455,8.92218182" id="Fill-2"></path>
                    <path d="M76.6021818,-0.0305454545 L76.6050909,6.83345455 L76.6443636,12.2618182 L64.6909091,-0.337454545 L64.608,-0.337454545 L64.608,14.0029091 L65.3658182,14.0029091 L65.3658182,6.83345455 L65.3250909,1.408 L77.2814545,14.0072727 L77.3629091,14.0072727 L77.3629091,-0.0305454545 L76.6021818,-0.0305454545" id="Fill-3"></path>
                    <path d="M0.618181818,14.0072727 L-0.196363636,14.0072727 L6.48727273,0.0552727273 L6.56872727,0.0552727273 L13.2509091,14.0072727 L12.4363636,14.0072727 L10.5745455,10.0916364 L2.48145455,10.0916364 L0.618181818,14.0072727 L0.618181818,14.0072727 Z M2.76945455,9.48945455 L10.2909091,9.49672727 L8.38545455,5.45745455 L6.52509091,1.47927273 L4.69381818,5.44872727 L2.76945455,9.48945455 L2.76945455,9.48945455 Z" id="Fill-4"></path>
                </g>
            </g>
        </g>
    </g>
</svg>