<?xml version="1.0" encoding="UTF-8" standalone="no"?>
<svg width="225px" height="128px" viewBox="0 0 225 128" version="1.1" xmlns="http://www.w3.org/2000/svg" xmlns:xlink="http://www.w3.org/1999/xlink" xmlns:sketch="http://www.bohemiancoding.com/sketch/ns">
    <!-- Generator: Sketch 3.1.1 (8761) - http://www.bohemiancoding.com/sketch -->
    <title>mobilPlus-howDoesGfx-2</title>
    <desc>Created with Sketch.</desc>
    <defs></defs>
    <g id="utilities" stroke="none" stroke-width="1" fill="none" fill-rule="evenodd" sketch:type="MSPage">
        <g id="mobilPlus-howDoesGfx-2" sketch:type="MSArtboardGroup"></g>
        <g id="2.-+-Imported-Layers-2-+-Line-3" sketch:type="MSLayerGroup" transform="translate(0.000000, -16.000000)">
            <text id="2." sketch:type="MSTextLayer" font-family="Sica" font-size="64" font-weight="260" letter-spacing="-1.33333337" fill="#FFFFFF">
                <tspan x="98.5" y="61">2.</tspan>
            </text>
            <g id="Imported-Layers-2" transform="translate(36.000000, 103.000000)" fill="#FFFFFF" sketch:type="MSShapeGroup">
                <path d="M130.742839,26.9078269 L123.283813,26.8928462 L120.984912,24.1103654 L118.694674,26.8841731 L116.34458,24.1103654 L114.060642,26.8739231 L111.702674,24.1103654 L109.425036,26.8684038 L107.798715,26.8684038 C105.305285,26.8684038 103.283606,24.8444231 103.283606,22.3481538 L103.283606,21.7165962 C103.283606,19.2195385 105.305285,17.1963462 107.798715,17.1963462 L130.74914,17.1963462 C132.54085,13.5631154 136.27942,11.0644808 140.600788,11.0644808 C146.665036,11.0644808 151.582591,15.9860577 151.582591,22.058 C151.582591,28.1299423 146.665036,33.0523077 140.600788,33.0523077 C136.274694,33.0523077 132.532187,30.5481538 130.742839,26.9078269 L130.742839,26.9078269 Z M139.224912,22.058 C139.224912,24.2428269 140.99457,26.0137115 143.176912,26.0137115 C145.359254,26.0137115 147.127337,24.2428269 147.127337,22.058 C147.127337,19.8731731 145.359254,18.1030769 143.176912,18.1030769 C140.99457,18.1030769 139.224912,19.8731731 139.224912,22.058 L139.224912,22.058 Z" id="Fill-1"></path>
                <path d="M40.3304041,0.0402115385 L3.91498446,0.0402115385 C1.80746114,0.0402115385 0.0984455959,1.75117308 0.0984455959,3.86188462 L0.0984455959,37.0923846 C0.0984455959,39.2030962 1.80746114,40.9132692 3.91498446,40.9132692 L40.3304041,40.9132692 C42.438715,40.9132692 44.1477306,39.2030962 44.1477306,37.0923846 L44.1477306,3.86188462 C44.1477306,1.75117308 42.438715,0.0402115385 40.3304041,0.0402115385 L40.3304041,0.0402115385 Z M42.6930984,37.0915962 C42.6930984,38.3980769 41.635399,39.4569808 40.3304041,39.4569808 L3.91577202,39.4569808 C2.6107772,39.4569808 1.55307772,38.3980769 1.55307772,37.0915962 L1.55307772,3.86188462 C1.55307772,2.55619231 2.6107772,1.49728846 3.91577202,1.49728846 L40.3304041,1.49728846 C41.635399,1.49728846 42.6930984,2.55619231 42.6930984,3.86188462 L42.6930984,37.0915962 L42.6930984,37.0915962 Z" id="Fill-2"></path>
                <path d="M36.48,6.02069231 L32.5957306,6.02069231 C31.4269845,6.02069231 30.4763938,6.97236538 30.4763938,8.14244231 L30.4763938,32.8118269 C30.4763938,33.9811154 31.4269845,34.9327885 32.5957306,34.9327885 L36.48,34.9327885 C37.6487461,34.9327885 38.5993368,33.9811154 38.5993368,32.8118269 L38.5993368,8.14244231 C38.5993368,6.97236538 37.6487461,6.02069231 36.48,6.02069231" id="Fill-3"></path>
                <path d="M11.0077927,11.9625385 C8.61910881,11.9625385 6.67618653,13.9076731 6.67618653,16.2982885 C6.67618653,18.6889038 8.61910881,20.6348269 11.0077927,20.6348269 C13.3949016,20.6348269 15.3378238,18.6889038 15.3378238,16.2982885 C15.3378238,13.9076731 13.3949016,11.9625385 11.0077927,11.9625385 L11.0077927,11.9625385 Z M11.0077927,19.3307115 C9.33736788,19.3307115 7.97881865,17.9706154 7.97881865,16.2982885 C7.97881865,14.62675 9.33736788,13.2666538 11.0077927,13.2666538 C12.6766425,13.2666538 14.0351917,14.62675 14.0351917,16.2982885 C14.0351917,17.9706154 12.6766425,19.3307115 11.0077927,19.3307115 L11.0077927,19.3307115 Z" id="Fill-4"></path>
                <path d="M60.6070466,16.9361538 L78.9809326,16.9361538 L76.0315026,14.5463269 L76.0315026,8.87965385 L89.0334093,19.4284808 L76.0315026,30.0230385 L76.0315026,24.3579423 L78.9541554,21.96575 L60.6070466,21.96575 L60.6070466,16.9361538" id="Fill-5"></path>
            </g>
            <g id="Line-2" transform="translate(0.000000, 81.000000)" stroke="#FFFFFF" stroke-linecap="square" sketch:type="MSShapeGroup">
                <path d="M0.497787611,1.5 L224.875796,1.5" id="Line"></path>
            </g>
        </g>
    </g>
</svg>