<?xml version="1.0" encoding="UTF-8" standalone="no"?>
<svg width="225px" height="134px" viewBox="0 0 225 134" version="1.1" xmlns="http://www.w3.org/2000/svg" xmlns:xlink="http://www.w3.org/1999/xlink" xmlns:sketch="http://www.bohemiancoding.com/sketch/ns">
    <!-- Generator: Sketch 3.1.1 (8761) - http://www.bohemiancoding.com/sketch -->
    <title>mobilPlus-howDoesGfx</title>
    <desc>Created with Sketch.</desc>
    <defs></defs>
    <g id="utilities" stroke="none" stroke-width="1" fill="none" fill-rule="evenodd" sketch:type="MSPage">
        <g id="mobilPlus-howDoesGfx" sketch:type="MSArtboardGroup">
            <g id="Fill-2-+-Fill-3-+-Fill-7-+-Fill-8-+-Fill-9-+-Line-+-1.-3" sketch:type="MSLayerGroup">
                <g id="Fill-2-+-Fill-3-+-Fill-7-+-Fill-8-+-Fill-9" transform="translate(53.000000, 86.000000)" fill="#FFFFFF" sketch:type="MSShapeGroup">
                    <path d="M118.133484,6.40428412 L118.132644,3.20556956 C118.132644,1.40471844 116.673307,-0.0544327133 114.873067,-0.0544327133 L114.417129,-0.0544327133 C112.616889,-0.0544327133 111.157552,1.40471844 111.157552,3.20556956 L111.157552,5.49588277 L106.521765,5.49588277 C102.122764,5.49588277 98.1612277,7.97257777 98.1612277,12.7714892 L98.1612277,36.9734169 C98.1612277,39.0983373 99.4551504,40.3920956 101.58118,40.3920956 L114.71437,40.3920956 C116.839561,40.3920956 118.133484,39.0983373 118.133484,36.9734169 L118.133484,33.5908392 L118.132644,30.9277624 L118.133484,6.40428412 L118.133484,6.40428412 Z M103.186619,35.4202353 C102.525803,35.4202353 101.989257,34.883758 101.989257,34.2230261 C101.989257,33.5622943 102.525803,33.025817 103.186619,33.025817 C103.847435,33.025817 104.38398,33.5622943 104.38398,34.2230261 C104.38398,34.883758 103.847435,35.4202353 103.186619,35.4202353 L103.186619,35.4202353 Z M103.186619,30.4592893 C102.525803,30.4592893 101.989257,29.9236515 101.989257,29.2629197 C101.989257,28.6013483 102.525803,28.0657105 103.186619,28.0657105 C103.847435,28.0657105 104.38398,28.6013483 104.38398,29.2629197 C104.38398,29.9236515 103.847435,30.4592893 103.186619,30.4592893 L103.186619,30.4592893 Z M103.186619,25.4991828 C102.525803,25.4991828 101.989257,24.9635451 101.989257,24.3019736 C101.989257,23.6412418 102.525803,23.1047645 103.186619,23.1047645 C103.847435,23.1047645 104.38398,23.6412418 104.38398,24.3019736 C104.38398,24.9635451 103.847435,25.4991828 103.186619,25.4991828 L103.186619,25.4991828 Z M108.147356,35.4202353 C107.4857,35.4202353 106.949994,34.883758 106.949994,34.2230261 C106.949994,33.5622943 107.4857,33.025817 108.147356,33.025817 C108.809011,33.025817 109.344717,33.5622943 109.344717,34.2230261 C109.344717,34.883758 108.809011,35.4202353 108.147356,35.4202353 L108.147356,35.4202353 Z M108.147356,30.4592893 C107.4857,30.4592893 106.949994,29.9236515 106.949994,29.2629197 C106.949994,28.6013483 107.4857,28.0657105 108.147356,28.0657105 C108.809011,28.0657105 109.344717,28.6013483 109.344717,29.2629197 C109.344717,29.9236515 108.809011,30.4592893 108.147356,30.4592893 L108.147356,30.4592893 Z M108.147356,25.4991828 C107.4857,25.4991828 106.949994,24.9635451 106.949994,24.3019736 C106.949994,23.6412418 107.4857,23.1047645 108.147356,23.1047645 C108.809011,23.1047645 109.344717,23.6412418 109.344717,24.3019736 C109.344717,24.9635451 108.809011,25.4991828 108.147356,25.4991828 L108.147356,25.4991828 Z M113.108092,35.4202353 C112.446437,35.4202353 111.910731,34.883758 111.910731,34.2230261 C111.910731,33.5622943 112.446437,33.025817 113.108092,33.025817 C113.769748,33.025817 114.305454,33.5622943 114.305454,34.2230261 C114.305454,34.883758 113.769748,35.4202353 113.108092,35.4202353 L113.108092,35.4202353 Z M113.108092,30.4592893 C112.446437,30.4592893 111.910731,29.9236515 111.910731,29.2629197 C111.910731,28.6013483 112.446437,28.0657105 113.108092,28.0657105 C113.769748,28.0657105 114.305454,28.6013483 114.305454,29.2629197 C114.305454,29.9236515 113.769748,30.4592893 113.108092,30.4592893 L113.108092,30.4592893 Z M113.108092,25.4991828 C112.446437,25.4991828 111.910731,24.9635451 111.910731,24.3019736 C111.910731,23.6412418 112.446437,23.1047645 113.108092,23.1047645 C113.769748,23.1047645 114.305454,23.6412418 114.305454,24.3019736 C114.305454,24.9635451 113.769748,25.4991828 113.108092,25.4991828 L113.108092,25.4991828 Z M115.881504,13.8570372 L115.881504,16.3161015 C115.881504,19.0219957 114.038441,18.88095 111.331363,18.88095 L102.98426,18.88095 C100.963188,18.88095 100.414047,18.1035197 100.414047,16.7224474 L100.414047,12.7714892 C100.414047,9.67855887 102.848234,7.74841588 106.521765,7.74841588 L113.001455,7.74841588 C114.520408,7.74841588 115.881504,8.48806616 115.881504,10.5659713 L115.881504,13.8570372 L115.881504,13.8570372 Z" id="Fill-2"></path>
                    <path d="M66.2193933,22.6211076 L83,22.6211076 L83,27.3781466 L66.1956227,27.3781466 L68.8925059,29.6403133 L68.8925059,35 L57,25.0212568 L68.8925059,15 L68.8925059,20.3589409 L66.2193933,22.6211076" id="Fill-3"></path>
                    <g id="Fill-7-+-Fill-8-+-Fill-9" transform="translate(0.386146, 2.000000)">
                        <path d="M16.5713056,14.8312848 C14.757815,14.8312848 13.2834615,16.5674457 13.2834615,18.7026665 C13.2834615,20.8364596 14.757815,22.5726205 16.5713056,22.5726205 C18.3840822,22.5726205 19.8591497,20.8364596 19.8591497,18.7026665 C19.8591497,16.5674457 18.3840822,14.8312848 16.5713056,14.8312848 L16.5713056,14.8312848 Z M16.5713056,21.5003698 C15.3496984,21.5003698 14.3551345,20.2453654 14.3551345,18.7026665 C14.3551345,17.1585399 15.3496984,15.9035355 16.5713056,15.9035355 C17.7929128,15.9035355 18.7874768,17.1585399 18.7874768,18.7026665 C18.7874768,20.2453654 17.7929128,21.5003698 16.5713056,21.5003698 L16.5713056,21.5003698 Z" id="Fill-7"></path>
                        <path d="M34.3720722,9.48359523 C34.3706442,9.48359523 31.4155113,9.20446739 31.4155113,9.20446739 C30.5308992,9.20446739 29.8112148,10.0282871 29.8112148,11.0412856 L29.8112148,33.9618929 C29.8112148,34.9741775 30.5308992,35.7987111 31.4155113,35.7987111 L31.4426423,35.7987111 L34.3206661,35.4896002 C35.2052783,35.4896002 35.9242487,34.6657805 35.9242487,33.6534959 L35.9242487,11.3182718 C35.9242487,10.3067011 35.2067062,9.48359523 34.3720722,9.48359523" id="Fill-8"></path>
                        <path d="M37.4200215,3.29138332 L11.2272202,-0.416519445 L11.0651484,-0.42579991 C8.85754491,-0.42579991 7.04476831,1.51881448 6.87055898,3.98170716 L3.58271485,3.98170716 C1.67141001,3.98170716 0.122089326,5.53154484 0.122089326,7.44260678 L0.122089326,37.5291609 C0.122089326,39.439509 1.67141001,40.9893467 3.58271485,40.9893467 L6.97765488,40.9893467 C7.42602972,43.0867318 9.08601617,44.6501332 11.0651484,44.6501332 L11.1422575,44.6501332 L37.3629037,41.8631382 C39.652614,41.8281579 41.5160827,39.6772317 41.5160827,37.069421 L41.5160827,8.08367275 C41.5160827,5.5015618 39.6818869,3.36062987 37.4200215,3.29138332 L37.4200215,3.29138332 Z M40.0552946,37.069421 C40.0552946,38.9112363 38.8236917,40.4032496 37.3043579,40.4032496 L11.0644344,43.1895308 C9.54510059,43.1895308 8.31421171,41.6975175 8.31421171,39.8557021 L8.31421171,4.36863116 C8.31421171,2.52681577 9.54510059,1.03480253 11.0644344,1.03480253 L37.3043579,4.74913024 C38.8236917,4.74913024 40.0552946,6.24257124 40.0552946,8.08295887 L40.0552946,37.069421 L40.0552946,37.069421 Z" id="Fill-9"></path>
                    </g>
                </g>
                <g id="Line" transform="translate(0.000000, 65.000000)" stroke-linecap="square" stroke="#FFFFFF" sketch:type="MSShapeGroup">
                    <path d="M0.497787611,1.5 L224.875796,1.5"></path>
                </g>
                <path d="M118.368,44.9182912 L118.368,0.118291182 L103.84,0.118291182 L102.752,3.31829118 L114.72,3.31829118 L114.72,44.9182912 L118.368,44.9182912 Z M133.354667,44.9182912 L133.354667,40.1182912 L128.554667,40.1182912 L128.554667,44.9182912 L133.354667,44.9182912 Z" id="1." fill="#FFFFFF" sketch:type="MSShapeGroup"></path>
            </g>
        </g>
    </g>
</svg>