<?xml version="1.0" encoding="UTF-8" standalone="no"?>
<svg width="27px" height="27px" viewBox="0 0 27 27" version="1.1" xmlns="http://www.w3.org/2000/svg" xmlns:xlink="http://www.w3.org/1999/xlink" xmlns:sketch="http://www.bohemiancoding.com/sketch/ns">
    <!-- Generator: Sketch 3.1.1 (8761) - http://www.bohemiancoding.com/sketch -->
    <title>mobilPlus-social-facebook-footer</title>
    <desc>Created with Sketch.</desc>
    <defs></defs>
    <g id="utilities" stroke="none" stroke-width="1" fill="none" fill-rule="evenodd" sketch:type="MSPage">
        <g id="mobilPlus-social-facebook-footer" sketch:type="MSArtboardGroup" fill="#A2A2A1">
            <path d="M13.4999987,0 C6.06504194,0 0,6.06606171 0,13.5022686 C0,20.8205535 5.87451136,26.8139746 13.1461562,27 L13.1461562,17.3995917 L11.1547488,17.3995917 L11.1547488,14.1102541 L13.1325469,14.1102541 L13.1325469,12.132078 C13.1325469,9.43253176 14.2666121,7.80825771 17.3966666,7.80825771 L20.0367853,7.80825771 L20.0367853,11.1157895 L18.4127843,11.1157895 C17.2197453,11.1157895 17.0972614,11.601225 17.0972614,12.4315336 L17.0972614,14.1102541 L20.0912226,14.1102541 L19.6058686,17.4177405 L16.9657499,17.4177405 L16.9657499,26.5553539 C22.7313413,25.0172868 26.9999975,19.7452359 26.9999975,13.5068058 C27.0045339,6.06606171 20.9395373,0 13.4999987,0" id="Fill-6" sketch:type="MSShapeGroup"></path>
        </g>
    </g>
</svg>