<?xml version="1.0" encoding="UTF-8" standalone="no"?>
<svg width="225px" height="128px" viewBox="0 0 225 128" version="1.1" xmlns="http://www.w3.org/2000/svg" xmlns:xlink="http://www.w3.org/1999/xlink" xmlns:sketch="http://www.bohemiancoding.com/sketch/ns">
    <!-- Generator: Sketch 3.1.1 (8761) - http://www.bohemiancoding.com/sketch -->
    <title>mobilPlus-howDoesGfx</title>
    <desc>Created with Sketch.</desc>
    <defs></defs>
    <g id="utilities" stroke="none" stroke-width="1" fill="none" fill-rule="evenodd" sketch:type="MSPage">
        <g id="mobilPlus-howDoesGfx" sketch:type="MSArtboardGroup">
            <g id="Imported-Layers-+-Line-+-1.-3" sketch:type="MSLayerGroup" transform="translate(0.000000, -16.000000)">
                <g id="Imported-Layers-+-Line" transform="translate(0.000000, 81.000000)" sketch:type="MSShapeGroup">
                    <g id="Imported-Layers" transform="translate(32.000000, 18.000000)" fill="#FFFFFF">
                        <path d="M131.513051,23.0412533 L131.513051,19.5682177 L126.957192,19.5682177 L126.957192,15.0122232 L123.483001,15.0122232 L123.483001,19.5682177 L118.898582,19.5682177 L118.898582,23.0412533 L123.483001,23.0412533 L123.483001,27.5972478 L126.957192,27.5972478 L126.957192,23.0412533 L131.513051,23.0412533" id="Fill-1"></path>
                        <path d="M110.638633,7.54644593 L110.637919,4.82655576 C110.637919,3.29527901 109.397034,2.05455221 107.866277,2.05455221 L107.478589,2.05455221 C105.947832,2.05455221 104.706948,3.29527901 104.706948,4.82655576 L104.706948,6.77402568 L100.765104,6.77402568 C97.0246017,6.77402568 93.6560786,8.87997739 93.6560786,12.9605265 L93.6560786,33.5396011 C93.6560786,35.3464362 94.7563105,36.4465283 96.5640893,36.4465283 L107.731336,36.4465283 C109.538401,36.4465283 110.638633,35.3464362 110.638633,33.5396011 L110.638633,30.6633708 L110.637919,28.3989373 L110.638633,7.54644593 L110.638633,7.54644593 Z M97.9292051,32.2189195 C97.3673086,32.2189195 96.91108,31.7627489 96.91108,31.2009238 C96.91108,30.6390988 97.3673086,30.1829282 97.9292051,30.1829282 C98.4911015,30.1829282 98.9473301,30.6390988 98.9473301,31.2009238 C98.9473301,31.7627489 98.4911015,32.2189195 97.9292051,32.2189195 L97.9292051,32.2189195 Z M97.9292051,28.0005911 C97.3673086,28.0005911 96.91108,27.5451345 96.91108,26.9833094 C96.91108,26.4207704 97.3673086,25.9653137 97.9292051,25.9653137 C98.4911015,25.9653137 98.9473301,26.4207704 98.9473301,26.9833094 C98.9473301,27.5451345 98.4911015,28.0005911 97.9292051,28.0005911 L97.9292051,28.0005911 Z M97.9292051,23.7829767 C97.3673086,23.7829767 96.91108,23.32752 96.91108,22.764981 C96.91108,22.2031559 97.3673086,21.7469854 97.9292051,21.7469854 C98.4911015,21.7469854 98.9473301,22.2031559 98.9473301,22.764981 C98.9473301,23.32752 98.4911015,23.7829767 97.9292051,23.7829767 L97.9292051,23.7829767 Z M102.147356,32.2189195 C101.584745,32.2189195 101.129231,31.7627489 101.129231,31.2009238 C101.129231,30.6390988 101.584745,30.1829282 102.147356,30.1829282 C102.709966,30.1829282 103.165481,30.6390988 103.165481,31.2009238 C103.165481,31.7627489 102.709966,32.2189195 102.147356,32.2189195 L102.147356,32.2189195 Z M102.147356,28.0005911 C101.584745,28.0005911 101.129231,27.5451345 101.129231,26.9833094 C101.129231,26.4207704 101.584745,25.9653137 102.147356,25.9653137 C102.709966,25.9653137 103.165481,26.4207704 103.165481,26.9833094 C103.165481,27.5451345 102.709966,28.0005911 102.147356,28.0005911 L102.147356,28.0005911 Z M102.147356,23.7829767 C101.584745,23.7829767 101.129231,23.32752 101.129231,22.764981 C101.129231,22.2031559 101.584745,21.7469854 102.147356,21.7469854 C102.709966,21.7469854 103.165481,22.2031559 103.165481,22.764981 C103.165481,23.32752 102.709966,23.7829767 102.147356,23.7829767 L102.147356,23.7829767 Z M106.365506,32.2189195 C105.802896,32.2189195 105.347381,31.7627489 105.347381,31.2009238 C105.347381,30.6390988 105.802896,30.1829282 106.365506,30.1829282 C106.928117,30.1829282 107.383631,30.6390988 107.383631,31.2009238 C107.383631,31.7627489 106.928117,32.2189195 106.365506,32.2189195 L106.365506,32.2189195 Z M106.365506,28.0005911 C105.802896,28.0005911 105.347381,27.5451345 105.347381,26.9833094 C105.347381,26.4207704 105.802896,25.9653137 106.365506,25.9653137 C106.928117,25.9653137 107.383631,26.4207704 107.383631,26.9833094 C107.383631,27.5451345 106.928117,28.0005911 106.365506,28.0005911 L106.365506,28.0005911 Z M106.365506,23.7829767 C105.802896,23.7829767 105.347381,23.32752 105.347381,22.764981 C105.347381,22.2031559 105.802896,21.7469854 106.365506,21.7469854 C106.928117,21.7469854 107.383631,22.2031559 107.383631,22.764981 C107.383631,23.32752 106.928117,23.7829767 106.365506,23.7829767 L106.365506,23.7829767 Z M108.723758,13.8835759 L108.723758,15.9745361 C108.723758,18.2753775 107.156588,18.1554454 104.85474,18.1554454 L97.7571376,18.1554454 C96.0386054,18.1554454 95.5716673,17.4943907 95.5716673,16.3200549 L95.5716673,12.9605265 C95.5716673,10.3305855 97.6414741,8.68937091 100.765104,8.68937091 L106.274832,8.68937091 C107.566408,8.68937091 108.723758,9.3183009 108.723758,11.0851587 L108.723758,13.8835759 L108.723758,13.8835759 Z" id="Fill-2"></path>
                        <path d="M64.1147455,19.917306 L80.7474528,19.917306 L80.7474528,24.470445 L64.0911844,24.470445 L66.7642981,26.6356489 L66.7642981,31.7656045 L54.9766094,22.2145781 L66.7642981,12.6228604 L66.7642981,17.7521021 L64.1147455,19.917306" id="Fill-3"></path>
                        <path d="M152.633077,17.4586966 C152.269665,17.4586966 152.012635,17.7228329 152.012635,18.1511621 L152.012635,20.2699637 C152.012635,20.6982928 152.269665,20.9545764 152.633077,20.9545764 C152.997203,20.9545764 153.247093,20.6982928 153.247093,20.2699637 L153.247093,18.1511621 C153.247093,17.7228329 152.997203,17.4586966 152.633077,17.4586966" id="Fill-4"></path>
                        <path d="M148.785478,17.4586966 C148.421352,17.4586966 148.164322,17.7228329 148.164322,18.1511621 L148.164322,20.2699637 C148.164322,20.6982928 148.421352,20.9545764 148.785478,20.9545764 C149.14889,20.9545764 149.398781,20.6982928 149.398781,20.2699637 L149.398781,18.1511621 C149.398781,17.7228329 149.14889,17.4586966 148.785478,17.4586966" id="Fill-5"></path>
                        <path d="M151.734899,10.0892934 C144.949303,10.0892934 139.44743,15.5897537 139.44743,22.3752015 C139.44743,29.1606493 144.949303,34.6603957 151.734899,34.6603957 C158.521923,34.6603957 164.022369,29.1606493 164.022369,22.3752015 C164.022369,15.5897537 158.521923,10.0892934 151.734899,10.0892934 L151.734899,10.0892934 Z M145.693263,21.7469854 L144.765098,21.7469854 L144.765098,17.6657224 L143.730552,18.5644997 L143.730552,17.5657789 L144.765098,16.6670015 L145.693263,16.6670015 L145.693263,21.7469854 L145.693263,21.7469854 Z M147.824471,28.8858047 L146.89702,28.8858047 L146.89702,24.8045417 L145.86176,25.7033191 L145.86176,24.7045982 L146.89702,23.8058209 L147.824471,23.8058209 L147.824471,28.8858047 L147.824471,28.8858047 Z M150.326231,20.2771025 C150.326231,21.2479819 149.612972,21.7898183 148.785478,21.7898183 C147.95727,21.7898183 147.236871,21.2479819 147.236871,20.2771025 L147.236871,18.1361706 C147.236871,17.1667189 147.95727,16.6241686 148.785478,16.6241686 C149.612972,16.6241686 150.326231,17.1667189 150.326231,18.1361706 L150.326231,20.2771025 L150.326231,20.2771025 Z M153.363471,25.9460389 L151.71348,25.9460389 L151.71348,26.7812808 L153.118578,26.7812808 L153.118578,27.4009303 L151.71348,27.4009303 L151.71348,28.2661552 L153.363471,28.2661552 L153.363471,28.8858047 L151.018785,28.8858047 L151.018785,25.3263894 L153.363471,25.3263894 L153.363471,25.9460389 L153.363471,25.9460389 Z M152.633077,21.7898183 C151.805583,21.7898183 151.085184,21.2479819 151.085184,20.2771025 L151.085184,18.1361706 C151.085184,17.1667189 151.805583,16.6241686 152.633077,16.6241686 C153.461285,16.6241686 154.175258,17.1667189 154.175258,18.1361706 L154.175258,20.2771025 C154.175258,21.2479819 153.461285,21.7898183 152.633077,21.7898183 L152.633077,21.7898183 Z M156.107268,28.8858047 L155.471832,28.8858047 L155.471832,28.6459404 C155.302621,28.8258386 155.062012,28.9157878 154.822117,28.9157878 C154.562231,28.9157878 154.352323,28.8308358 154.206673,28.6859178 C153.996765,28.4760365 153.941789,28.2304611 153.941789,27.9463361 L153.941789,26.2808496 L154.592218,26.2808496 L154.592218,27.856387 C154.592218,28.2111863 154.817119,28.3304046 155.022029,28.3304046 C155.22694,28.3304046 155.456839,28.2111863 155.456839,27.856387 L155.456839,26.2808496 L156.107268,26.2808496 L156.107268,28.8858047 L156.107268,28.8858047 Z M158.230623,26.9911621 C158.129952,26.8905047 158.045704,26.8362497 157.885774,26.8362497 C157.685147,26.8362497 157.465244,26.9861649 157.465244,27.3159784 L157.465244,28.8858047 L156.815529,28.8858047 L156.815529,26.2808496 L157.45025,26.2808496 L157.45025,26.5307082 C157.575196,26.380793 157.8258,26.2508665 158.105677,26.2508665 C158.360566,26.2508665 158.540487,26.3158298 158.720408,26.495728 L158.230623,26.9911621 L158.230623,26.9911621 Z M158.928888,18.8072196 L157.278183,18.8072196 L157.278183,19.6817249 L158.683281,19.6817249 L158.683281,20.3020883 L157.278183,20.3020883 L157.278183,21.7469854 L156.583488,21.7469854 L156.583488,18.1875701 L158.928888,18.1875701 L158.928888,18.8072196 L158.928888,18.8072196 Z M160.396816,21.1965824 L160.632427,21.1965824 L160.632427,21.7469854 L160.276868,21.7469854 C159.747101,21.7469854 159.522199,21.3721974 159.522199,21.0016926 L159.522199,19.711708 L159.24732,19.711708 L159.24732,19.2169878 L159.522199,19.2169878 L159.522199,18.4474231 L160.171914,18.4474231 L160.171914,19.2169878 L160.632427,19.2169878 L160.632427,19.711708 L160.171914,19.711708 L160.171914,20.9617153 C160.171914,21.1116305 160.241884,21.1965824 160.396816,21.1965824 L160.396816,21.1965824 Z" id="Fill-6"></path>
                        <path d="M16.5713056,14.9129936 C14.757815,14.9129936 13.2834615,16.6491545 13.2834615,18.7843754 C13.2834615,20.9181685 14.757815,22.6543293 16.5713056,22.6543293 C18.3840822,22.6543293 19.8591497,20.9181685 19.8591497,18.7843754 C19.8591497,16.6491545 18.3840822,14.9129936 16.5713056,14.9129936 L16.5713056,14.9129936 Z M16.5713056,21.5820787 C15.3496984,21.5820787 14.3551345,20.3270742 14.3551345,18.7843754 C14.3551345,17.2402487 15.3496984,15.9852443 16.5713056,15.9852443 C17.7929128,15.9852443 18.7874768,17.2402487 18.7874768,18.7843754 C18.7874768,20.3270742 17.7929128,21.5820787 16.5713056,21.5820787 L16.5713056,21.5820787 Z" id="Fill-7"></path>
                        <path d="M34.3720722,9.56530405 C34.3706442,9.56530405 31.4155113,9.28617621 31.4155113,9.28617621 C30.5308992,9.28617621 29.8112148,10.109996 29.8112148,11.1229944 L29.8112148,34.0436017 C29.8112148,35.0558863 30.5308992,35.8804199 31.4155113,35.8804199 L31.4426423,35.8804199 L34.3206661,35.5713091 C35.2052783,35.5713091 35.9242487,34.7474893 35.9242487,33.7352047 L35.9242487,11.3999806 C35.9242487,10.3884099 35.2067062,9.56530405 34.3720722,9.56530405" id="Fill-8"></path>
                        <path d="M37.4200215,3.37309214 L11.2272202,-0.334810627 L11.0651484,-0.344091093 C8.85754491,-0.344091093 7.04476831,1.6005233 6.87055898,4.06341597 L3.58271485,4.06341597 C1.67141001,4.06341597 0.122089326,5.61325365 0.122089326,7.52431559 L0.122089326,37.6108697 C0.122089326,39.5212178 1.67141001,41.0710555 3.58271485,41.0710555 L6.97765488,41.0710555 C7.42602972,43.1684406 9.08601617,44.731842 11.0651484,44.731842 L11.1422575,44.731842 L37.3629037,41.944847 C39.652614,41.9098668 41.5160827,39.7589405 41.5160827,37.1511298 L41.5160827,8.16538157 C41.5160827,5.58327061 39.6818869,3.44233869 37.4200215,3.37309214 L37.4200215,3.37309214 Z M40.0552946,37.1511298 C40.0552946,38.9929452 38.8236917,40.4849584 37.3043579,40.4849584 L11.0644344,43.2712396 C9.54510059,43.2712396 8.31421171,41.7792264 8.31421171,39.937411 L8.31421171,4.45033998 C8.31421171,2.60852459 9.54510059,1.11651135 11.0644344,1.11651135 L37.3043579,4.83083905 C38.8236917,4.83083905 40.0552946,6.32428006 40.0552946,8.16466769 L40.0552946,37.1511298 L40.0552946,37.1511298 Z" id="Fill-9"></path>
                    </g>
                    <g id="Line" stroke-linecap="square" stroke="#FFFFFF">
                        <path d="M0.497787611,1.5 L224.875796,1.5"></path>
                    </g>
                </g>
                <text id="1." sketch:type="MSTextLayer" font-family="Sica" font-size="64" font-weight="260" letter-spacing="-1.33333337" fill="#FFFFFF">
                    <tspan x="99" y="61">1.</tspan>
                </text>
            </g>
        </g>
    </g>
</svg>