<?xml version="1.0" encoding="UTF-8" standalone="no"?>
<svg width="225px" height="134px" viewBox="0 0 225 134" version="1.1" xmlns="http://www.w3.org/2000/svg" xmlns:xlink="http://www.w3.org/1999/xlink" xmlns:sketch="http://www.bohemiancoding.com/sketch/ns">
    <!-- Generator: Sketch 3.1.1 (8761) - http://www.bohemiancoding.com/sketch -->
    <title>mobilPlus-howDoesGfx-6</title>
    <desc>Created with Sketch.</desc>
    <defs></defs>
    <g id="utilities" stroke="none" stroke-width="1" fill="none" fill-rule="evenodd" sketch:type="MSPage">
        <g id="mobilPlus-howDoesGfx-6" sketch:type="MSArtboardGroup">
            <g id="Group-+-5.-+-Line-4" sketch:type="MSLayerGroup" transform="translate(0.000000, 1.000000)">
                <g id="Group" transform="translate(27.000000, 87.000000)" fill="#FFFFFF" sketch:type="MSShapeGroup">
                    <path d="M159.966524,18.2346387 C159.585384,18.2346387 159.315816,18.5105144 159.315816,18.9578804 L159.315816,21.1708509 C159.315816,21.6182169 159.585384,21.8858909 159.966524,21.8858909 C160.348412,21.8858909 160.610492,21.6182169 160.610492,21.1708509 L160.610492,18.9578804 C160.610492,18.5105144 160.348412,18.2346387 159.966524,18.2346387" id="Fill-4"></path>
                    <path d="M155.931237,18.2346387 C155.549349,18.2346387 155.279781,18.5105144 155.279781,18.9578804 L155.279781,21.1708509 C155.279781,21.6182169 155.549349,21.8858909 155.931237,21.8858909 C156.312377,21.8858909 156.574457,21.6182169 156.574457,21.1708509 L156.574457,18.9578804 C156.574457,18.5105144 156.312377,18.2346387 155.931237,18.2346387" id="Fill-5"></path>
                    <path d="M17.2675927,15.5757933 C15.3656392,15.5757933 13.8193659,17.3891169 13.8193659,19.6192365 C13.8193659,21.8478648 15.3656392,23.6611884 17.2675927,23.6611884 C19.1687974,23.6611884 20.7158195,21.8478648 20.7158195,19.6192365 C20.7158195,17.3891169 19.1687974,15.5757933 17.2675927,15.5757933 L17.2675927,15.5757933 Z M17.2675927,22.5412822 C15.9863949,22.5412822 14.9433156,21.2304997 14.9433156,19.6192365 C14.9433156,18.006482 15.9863949,16.6956996 17.2675927,16.6956996 C18.5487905,16.6956996 19.5918698,18.006482 19.5918698,19.6192365 C19.5918698,21.2304997 18.5487905,22.5412822 17.2675927,22.5412822 L17.2675927,22.5412822 Z" id="Fill-7"></path>
                    <path d="M35.9366893,9.99042867 C35.9351917,9.99042867 32.835906,9.69889515 32.835906,9.69889515 C31.9081421,9.69889515 31.1533511,10.5593291 31.1533511,11.6173497 L31.1533511,35.5566507 C31.1533511,36.6139257 31.9081421,37.4751053 32.835906,37.4751053 L32.8643604,37.4751053 L35.8827757,37.1522561 C36.8105396,37.1522561 37.5645818,36.2918222 37.5645818,35.2345471 L37.5645818,11.9066464 C37.5645818,10.850117 36.8120372,9.99042867 35.9366893,9.99042867" id="Fill-8"></path>
                    <g>
                        <path d="M137.816253,24.065309 L137.816253,20.4379163 L133.038156,20.4379163 L133.038156,15.6794331 L129.394493,15.6794331 L129.394493,20.4379163 L124.586444,20.4379163 L124.586444,24.065309 L129.394493,24.065309 L129.394493,28.8237922 L133.038156,28.8237922 L133.038156,24.065309 L137.816253,24.065309" id="Fill-1"></path>
                        <path d="M115.92357,7.88184353 L115.922821,5.04106935 C115.922821,3.44173586 114.621405,2.14586564 113.015977,2.14586564 L112.609378,2.14586564 C111.00395,2.14586564 109.702534,3.44173586 109.702534,5.04106935 L109.702534,7.07509349 L105.568406,7.07509349 C101.64544,7.07509349 98.1125985,9.27464305 98.1125985,13.5365499 L98.1125985,35.03025 C98.1125985,36.917389 99.2665003,38.066374 101.162463,38.066374 L112.874454,38.066374 C114.769668,38.066374 115.92357,36.917389 115.92357,35.03025 L115.92357,32.0261872 L115.922821,29.6611122 L115.92357,7.88184353 L115.92357,7.88184353 Z M102.59417,33.6508715 C102.004864,33.6508715 101.52638,33.1744267 101.52638,32.5876316 C101.52638,32.0008365 102.004864,31.5243917 102.59417,31.5243917 C103.183476,31.5243917 103.66196,32.0008365 103.66196,32.5876316 C103.66196,33.1744267 103.183476,33.6508715 102.59417,33.6508715 L102.59417,33.6508715 Z M102.59417,29.2450619 C102.004864,29.2450619 101.52638,28.7693627 101.52638,28.1825676 C101.52638,27.5950269 102.004864,27.1193277 102.59417,27.1193277 C103.183476,27.1193277 103.66196,27.5950269 103.66196,28.1825676 C103.66196,28.7693627 103.183476,29.2450619 102.59417,29.2450619 L102.59417,29.2450619 Z M102.59417,24.8399978 C102.004864,24.8399978 101.52638,24.3642987 101.52638,23.776758 C101.52638,23.1899629 102.004864,22.7135181 102.59417,22.7135181 C103.183476,22.7135181 103.66196,23.1899629 103.66196,23.776758 C103.66196,24.3642987 103.183476,24.8399978 102.59417,24.8399978 L102.59417,24.8399978 Z M107.018084,33.6508715 C106.428029,33.6508715 105.950294,33.1744267 105.950294,32.5876316 C105.950294,32.0008365 106.428029,31.5243917 107.018084,31.5243917 C107.608139,31.5243917 108.085874,32.0008365 108.085874,32.5876316 C108.085874,33.1744267 107.608139,33.6508715 107.018084,33.6508715 L107.018084,33.6508715 Z M107.018084,29.2450619 C106.428029,29.2450619 105.950294,28.7693627 105.950294,28.1825676 C105.950294,27.5950269 106.428029,27.1193277 107.018084,27.1193277 C107.608139,27.1193277 108.085874,27.5950269 108.085874,28.1825676 C108.085874,28.7693627 107.608139,29.2450619 107.018084,29.2450619 L107.018084,29.2450619 Z M107.018084,24.8399978 C106.428029,24.8399978 105.950294,24.3642987 105.950294,23.776758 C105.950294,23.1899629 106.428029,22.7135181 107.018084,22.7135181 C107.608139,22.7135181 108.085874,23.1899629 108.085874,23.776758 C108.085874,24.3642987 107.608139,24.8399978 107.018084,24.8399978 L107.018084,24.8399978 Z M111.441998,33.6508715 C110.851943,33.6508715 110.374208,33.1744267 110.374208,32.5876316 C110.374208,32.0008365 110.851943,31.5243917 111.441998,31.5243917 C112.032053,31.5243917 112.509788,32.0008365 112.509788,32.5876316 C112.509788,33.1744267 112.032053,33.6508715 111.441998,33.6508715 L111.441998,33.6508715 Z M111.441998,29.2450619 C110.851943,29.2450619 110.374208,28.7693627 110.374208,28.1825676 C110.374208,27.5950269 110.851943,27.1193277 111.441998,27.1193277 C112.032053,27.1193277 112.509788,27.5950269 112.509788,28.1825676 C112.509788,28.7693627 112.032053,29.2450619 111.441998,29.2450619 L111.441998,29.2450619 Z M111.441998,24.8399978 C110.851943,24.8399978 110.374208,24.3642987 110.374208,23.776758 C110.374208,23.1899629 110.851943,22.7135181 111.441998,22.7135181 C112.032053,22.7135181 112.509788,23.1899629 112.509788,23.776758 C112.509788,24.3642987 112.032053,24.8399978 111.441998,24.8399978 L111.441998,24.8399978 Z M113.915286,14.5006237 L113.915286,16.6845154 C113.915286,19.0876165 112.271669,18.9623541 109.857536,18.9623541 L102.413709,18.9623541 C100.611346,18.9623541 100.121631,18.2719192 100.121631,17.0453907 L100.121631,13.5365499 C100.121631,10.7897226 102.292404,9.07556517 105.568406,9.07556517 L111.3469,9.07556517 C112.701481,9.07556517 113.915286,9.7324476 113.915286,11.5778324 L113.915286,14.5006237 L113.915286,14.5006237 Z" id="Fill-2"></path>
                        <path d="M66.7657192,20.8025196 L83.5463259,20.8025196 L83.5463259,25.5580203 L66.7419486,25.5580203 L69.4388318,27.8194555 L69.4388318,33.1774091 L57.5463259,23.2018926 L69.4388318,13.1838764 L69.4388318,18.5410844 L66.7657192,20.8025196" id="Fill-3" transform="translate(70.546326, 23.180643) scale(-1, 1) translate(-70.546326, -23.180643) "></path>
                        <path d="M159.024532,10.5377064 C151.907931,10.5377064 146.137674,16.2826316 146.137674,23.3696549 C146.137674,30.4566781 151.907931,36.2008577 159.024532,36.2008577 C166.142631,36.2008577 171.911391,30.4566781 171.911391,23.3696549 C171.911391,16.2826316 166.142631,10.5377064 159.024532,10.5377064 L159.024532,10.5377064 Z M152.688182,22.7135181 L151.714741,22.7135181 L151.714741,18.4508656 L150.629729,19.3895886 L150.629729,18.3464802 L151.714741,17.4077572 L152.688182,17.4077572 L152.688182,22.7135181 L152.688182,22.7135181 Z M154.923351,30.1696183 L153.950659,30.1696183 L153.950659,25.9069658 L152.864899,26.8456888 L152.864899,25.8025804 L153.950659,24.8638574 L154.923351,24.8638574 L154.923351,30.1696183 L154.923351,30.1696183 Z M157.547149,21.178307 C157.547149,22.1923367 156.799097,22.7582547 155.931237,22.7582547 C155.062628,22.7582547 154.307089,22.1923367 154.307089,21.178307 L154.307089,18.9422226 C154.307089,17.9296842 155.062628,17.3630206 155.931237,17.3630206 C156.799097,17.3630206 157.547149,17.9296842 157.547149,18.9422226 L157.547149,21.178307 L157.547149,21.178307 Z M160.732547,27.0991962 L159.002068,27.0991962 L159.002068,27.9715599 L160.475708,27.9715599 L160.475708,28.6187494 L159.002068,28.6187494 L159.002068,29.5224288 L160.732547,29.5224288 L160.732547,30.1696183 L158.273485,30.1696183 L158.273485,26.4520067 L160.732547,26.4520067 L160.732547,27.0991962 L160.732547,27.0991962 Z M159.966524,22.7582547 C159.098664,22.7582547 158.343124,22.1923367 158.343124,21.178307 L158.343124,18.9422226 C158.343124,17.9296842 159.098664,17.3630206 159.966524,17.3630206 C160.835132,17.3630206 161.583933,17.9296842 161.583933,18.9422226 L161.583933,21.178307 C161.583933,22.1923367 160.835132,22.7582547 159.966524,22.7582547 L159.966524,22.7582547 Z M163.610187,30.1696183 L162.943755,30.1696183 L162.943755,29.9190933 C162.766289,30.106987 162.513943,30.2009339 162.262346,30.2009339 C161.989783,30.2009339 161.769635,30.1122063 161.61688,29.9608475 C161.396733,29.7416381 161.339075,29.4851483 161.339075,29.1883955 L161.339075,27.4488873 L162.021232,27.4488873 L162.021232,29.0944486 C162.021232,29.4650168 162.257105,29.5895337 162.47201,29.5895337 C162.686916,29.5895337 162.92803,29.4650168 162.92803,29.0944486 L162.92803,27.4488873 L163.610187,27.4488873 L163.610187,30.1696183 L163.610187,30.1696183 Z M165.83712,28.1907693 C165.731539,28.0856383 165.643181,28.0289719 165.47545,28.0289719 C165.265037,28.0289719 165.034406,28.18555 165.034406,28.5300218 L165.034406,30.1696183 L164.352997,30.1696183 L164.352997,27.4488873 L165.018681,27.4488873 L165.018681,27.7098508 C165.149721,27.5532727 165.41255,27.4175717 165.70608,27.4175717 C165.973402,27.4175717 166.1621,27.4854222 166.350797,27.6733159 L165.83712,28.1907693 L165.83712,28.1907693 Z M166.569447,19.643096 L164.83822,19.643096 L164.83822,20.5564683 L166.31186,20.5564683 L166.31186,21.2044034 L164.83822,21.2044034 L164.83822,22.7135181 L164.109637,22.7135181 L164.109637,18.9959065 L166.569447,18.9959065 L166.569447,19.643096 L166.569447,19.643096 Z M168.108981,22.1386527 L168.356085,22.1386527 L168.356085,22.7135181 L167.983183,22.7135181 C167.427573,22.7135181 167.191701,22.3220728 167.191701,21.9351012 L167.191701,20.5877839 L166.903412,20.5877839 L166.903412,20.0710762 L167.191701,20.0710762 L167.191701,19.2673086 L167.873109,19.2673086 L167.873109,20.0710762 L168.356085,20.0710762 L168.356085,20.5877839 L167.873109,20.5877839 L167.873109,21.893347 C167.873109,22.0499251 167.946492,22.1386527 168.108981,22.1386527 L168.108981,22.1386527 Z" id="Fill-6"></path>
                        <path d="M39.1333191,3.52300735 L11.6628202,-0.3496911 L11.4928424,-0.35938403 C9.17755098,-0.35938403 7.27634625,1.67165767 7.0936389,4.24401224 L3.64541213,4.24401224 C1.64087291,4.24401224 0.0159756071,5.86273159 0.0159756071,7.85872962 L0.0159756071,39.282464 C0.0159756071,41.2777164 1.64087291,42.8964357 3.64541213,42.8964357 L7.20595899,42.8964357 C7.67620577,45.087038 9.41716717,46.7199239 11.4928424,46.7199239 L11.5737129,46.7199239 L39.073415,43.8090624 C41.4748186,43.7725275 43.4291881,41.5260045 43.4291881,38.8022911 L43.4291881,8.52828742 C43.4291881,5.83141597 41.5055194,3.59533152 39.1333191,3.52300735 L39.1333191,3.52300735 Z M41.8971421,38.8022911 C41.8971421,40.725965 40.6054611,42.2842899 39.0120134,42.2842899 L11.4920936,45.1944058 C9.89864596,45.1944058 8.60771372,43.6360809 8.60771372,41.712407 L8.60771372,4.64813287 C8.60771372,2.72445902 9.89864596,1.16613407 11.4920936,1.16613407 L39.0120134,5.04554301 C40.6054611,5.04554301 41.8971421,6.60535918 41.8971421,8.52754181 L41.8971421,38.8022911 L41.8971421,38.8022911 Z" id="Fill-9"></path>
                    </g>
                </g>
                <g id="Line-3" transform="translate(0.000000, 66.000000)" stroke="#FFFFFF" stroke-linecap="square" sketch:type="MSShapeGroup">
                    <path d="M0.497787611,1.5 L224.875796,1.5" id="Line"></path>
                </g>
                <path d="M115.3,-0.184 C101.028,-0.184 99.172,2.312 99.172,23.112 C99.172,44.488 101.028,45.384 115.3,45.384 C127.972,45.384 130.212,43.208 130.212,31.304 C130.212,19.656 127.46,18.76 116.324,18.76 C106.916,18.76 104.548,20.04 102.948,22.6 C102.948,3.976 104.868,2.888 115.428,2.888 C119.972,2.888 124.324,3.208 126.5,3.72 L126.884,3.464 L126.884,2.312 C126.884,0.52 124.452,-0.184 115.3,-0.184 L115.3,-0.184 Z M114.34,21.832 C124.9,21.832 126.436,22.344 126.436,31.624 C126.436,40.968 124.708,42.312 115.364,42.312 C105.316,42.312 103.268,42.12 103.012,28.552 C103.012,24.2 104.996,21.832 114.34,21.832 L114.34,21.832 Z M142.830667,45 L142.830667,40.2 L138.030667,40.2 L138.030667,45 L142.830667,45 Z" id="6." fill="#FFFFFF" sketch:type="MSShapeGroup"></path>
            </g>
        </g>
    </g>
</svg>