<?xml version="1.0" encoding="UTF-8" standalone="no"?>
<svg width="225px" height="151px" viewBox="0 0 225 151" version="1.1" xmlns="http://www.w3.org/2000/svg" xmlns:xlink="http://www.w3.org/1999/xlink" xmlns:sketch="http://www.bohemiancoding.com/sketch/ns">
    <!-- Generator: Sketch 3.1.1 (8761) - http://www.bohemiancoding.com/sketch -->
    <title>mobilPlus-howDoesGfx-6</title>
    <desc>Created with Sketch.</desc>
    <defs></defs>
    <g id="utilities" stroke="none" stroke-width="1" fill="none" fill-rule="evenodd" sketch:type="MSPage">
        <g id="mobilPlus-howDoesGfx-6" sketch:type="MSArtboardGroup">
            <rect id="Rectangle-88" stroke="#FFFFFF" stroke-width="2" sketch:type="MSShapeGroup" x="1" y="69" width="223" height="80"></rect>
            <g id="Group" sketch:type="MSLayerGroup" transform="translate(15.000000, 86.000000)">
                <path d="M17.2675927,15.5757933 C15.3656392,15.5757933 13.8193659,17.3891169 13.8193659,19.6192365 C13.8193659,21.8478648 15.3656392,23.6611884 17.2675927,23.6611884 C19.1687974,23.6611884 20.7158195,21.8478648 20.7158195,19.6192365 C20.7158195,17.3891169 19.1687974,15.5757933 17.2675927,15.5757933 L17.2675927,15.5757933 Z M17.2675927,22.5412822 C15.9863949,22.5412822 14.9433156,21.2304997 14.9433156,19.6192365 C14.9433156,18.006482 15.9863949,16.6956996 17.2675927,16.6956996 C18.5487905,16.6956996 19.5918698,18.006482 19.5918698,19.6192365 C19.5918698,21.2304997 18.5487905,22.5412822 17.2675927,22.5412822 L17.2675927,22.5412822 Z" id="Fill-7" fill="#FFFFFF" sketch:type="MSShapeGroup"></path>
                <path d="M35.9366893,9.99042867 C35.9351917,9.99042867 32.835906,9.69889515 32.835906,9.69889515 C31.9081421,9.69889515 31.1533511,10.5593291 31.1533511,11.6173497 L31.1533511,35.5566507 C31.1533511,36.6139257 31.9081421,37.4751053 32.835906,37.4751053 L32.8643604,37.4751053 L35.8827757,37.1522561 C36.8105396,37.1522561 37.5645818,36.2918222 37.5645818,35.2345471 L37.5645818,11.9066464 C37.5645818,10.850117 36.8120372,9.99042867 35.9366893,9.99042867" id="Fill-8" fill="#FFFFFF" sketch:type="MSShapeGroup"></path>
                <path d="M140,20.8739829 L134.221417,20.8739829 L134.221417,15.0817088 L129.814806,15.0817088 L129.814806,20.8739829 L124,20.8739829 L124,25.2894347 L129.814806,25.2894347 L129.814806,31.0817088 L134.221417,31.0817088 L134.221417,25.2894347 L140,25.2894347 L140,20.8739829 Z" id="Fill-1" fill="#FFFFFF" sketch:type="MSShapeGroup"></path>
                <path d="M78.5463259,20.8025196 L78.5463259,25.5580203 L61.7419486,25.5580203 L64.4388318,27.8194555 L64.4388318,33.1774091 L52.5463259,23.2018926 L64.4388318,13.1838764 L64.4388318,18.5410844 L61.7657192,20.8025196 L78.5463259,20.8025196 Z" id="Fill-3" fill="#FFFFFF" sketch:type="MSShapeGroup" transform="translate(65.546326, 23.180643) scale(-1, 1) translate(-65.546326, -23.180643) "></path>
                <path d="M39.1333191,3.52300735 L11.6628202,-0.3496911 L11.4928424,-0.35938403 C9.17755098,-0.35938403 7.27634625,1.67165767 7.0936389,4.24401224 L3.64541213,4.24401224 C1.64087291,4.24401224 0.0159756071,5.86273159 0.0159756071,7.85872962 L0.0159756071,39.282464 C0.0159756071,41.2777164 1.64087291,42.8964357 3.64541213,42.8964357 L7.20595899,42.8964357 C7.67620577,45.087038 9.41716717,46.7199239 11.4928424,46.7199239 L11.5737129,46.7199239 L39.073415,43.8090624 C41.4748186,43.7725275 43.4291881,41.5260045 43.4291881,38.8022911 L43.4291881,8.52828742 C43.4291881,5.83141597 41.5055194,3.59533152 39.1333191,3.52300735 L39.1333191,3.52300735 Z M41.8971421,38.8022911 C41.8971421,40.725965 40.6054611,42.2842899 39.0120134,42.2842899 L11.4920936,45.1944058 C9.89864596,45.1944058 8.60771372,43.6360809 8.60771372,41.712407 L8.60771372,4.64813287 C8.60771372,2.72445902 9.89864596,1.16613407 11.4920936,1.16613407 L39.0120134,5.04554301 C40.6054611,5.04554301 41.8971421,6.60535918 41.8971421,8.52754181 L41.8971421,38.8022911 L41.8971421,38.8022911 Z" id="Fill-9" fill="#FFFFFF" sketch:type="MSShapeGroup"></path>
                <path d="M107.886,1.08170882 L89.6074286,1.08170882 C88.1734286,1.08170882 87,2.26555497 87,3.71334343 L87,42.034305 C87,43.4820934 88.1734286,44.666805 89.6074286,44.666805 L107.886,44.666805 C109.319143,44.666805 110.492571,43.4820934 110.492571,42.034305 L110.492571,3.71334343 C110.492571,2.26555497 109.319143,1.08170882 107.886,1.08170882 L107.886,1.08170882 Z M94.3148571,3.09718959 L103.178571,3.09718959 C103.532571,3.09718959 103.823143,3.38968959 103.823143,3.74795882 C103.823143,4.10622805 103.532571,4.39872805 103.178571,4.39872805 L94.3148571,4.39872805 C93.96,4.39872805 93.6702857,4.10622805 93.6702857,3.74795882 C93.6702857,3.38968959 93.96,3.09718959 94.3148571,3.09718959 L94.3148571,3.09718959 Z M98.7462857,43.5045934 C97.9345714,43.5045934 97.2702857,42.8339204 97.2702857,42.0144011 C97.2702857,41.1940165 97.9345714,40.5233434 98.7462857,40.5233434 C99.558,40.5233434 100.223143,41.1940165 100.223143,42.0144011 C100.223143,42.8339204 99.558,43.5045934 98.7462857,43.5045934 L98.7462857,43.5045934 Z M89.1702857,6.42718959 L108.323143,6.42718959 L108.323143,39.3195934 L89.1702857,39.3195934 L89.1702857,6.42718959 Z" id="Imported-Layers-8" fill="#FFFFFF" sketch:type="MSShapeGroup"></path>
                <g id="euro-2" transform="translate(154.000000, 2.081709)">
                    <path d="M20.5,0 C9.17914003,0 0,9.17821552 0,20.5005956 C0,31.8229757 9.17914003,41 20.5,41 C31.8232423,41 41,31.8229757 41,20.5005956 C41,9.17821552 31.8232423,0 20.5,0 L20.5,0 Z" id="Fill-6" stroke="#FFFFFF" stroke-width="2" sketch:type="MSShapeGroup"></path>
                    <text id="1" sketch:type="MSTextLayer" font-family="Sica" font-size="28.8" font-weight="bold" letter-spacing="-0.600000024" fill="#FFFFFF">
                        <tspan x="11" y="31">1</tspan>
                    </text>
                    <path d="M30.2368421,23.0209556 L27.1353383,23.0209556 C27.1973684,23.5175189 27.3110902,23.9597653 27.4768484,24.3487008 C27.6422619,24.7376362 27.8228383,25.0427494 28.0192669,25.2640402 C28.2156955,25.4853311 28.4293546,25.6680637 28.6602444,25.8122381 C28.8911341,25.9564124 29.0947995,26.0536463 29.2705514,26.1039396 C29.4459586,26.154233 29.606203,26.1793797 29.7509398,26.1793797 C29.9508145,26.1793797 30.1782581,26.1357921 30.4336153,26.0486169 C30.6882832,25.961777 30.9467419,25.8373847 31.2089912,25.6764459 C31.4705514,25.5155071 31.6893797,25.2891869 31.8651316,24.9974853 C32.0408835,24.7057837 32.129104,24.382565 32.129104,24.0268231 L33.9276316,24.0268231 C33.7139724,25.1802179 33.2728697,26.1123219 32.6043233,26.823135 C31.8668546,27.6077117 30.9229637,28 29.7719612,28 C28.3587093,28 27.2425125,27.4705784 26.4219925,26.4107293 C26.1738722,26.1025985 25.9360902,25.6613579 25.7086466,25.0880134 C25.4815476,24.5146689 25.3261278,23.8256496 25.2434211,23.0209556 L23,23.0209556 L24.0338346,22.015088 L25.2024123,22.015088 C25.2024123,21.6999162 25.2192982,21.3649623 25.2537594,21.0092205 L23,21.0092205 L24.0338346,20.0033529 L25.4295113,20.0033529 C25.6841792,18.883487 26.0704887,18.0217938 26.587406,17.4182733 C27.393797,16.4727578 28.4176378,16 29.6582393,16 C31.3258145,16 32.5457393,16.6336966 33.3176692,17.9010897 C33.7315476,18.5917854 33.9586466,19.2925398 34,20.0033529 L32.129104,20.0033529 C32.129104,19.6345348 32.0408835,19.3025985 31.8651316,19.007544 C31.6893797,18.7124895 31.4705514,18.4844929 31.2089912,18.3235541 C30.9467419,18.1626153 30.6882832,18.04057 30.4336153,17.9564124 C30.1782581,17.8725901 29.9473684,17.830679 29.7409461,17.830679 C29.575188,17.830679 29.3942669,17.8642079 29.1978383,17.9312657 C29.0014098,17.9983236 28.785683,18.1056161 28.5516917,18.2531433 C28.3173559,18.4006706 28.0919799,18.6253143 27.8745301,18.9270746 C27.6577694,19.2288349 27.483396,19.5875943 27.3524436,20.0033529 L31.2706767,20.0033529 L30.2368421,21.0092205 L27.1353383,21.0092205 C27.093985,21.3176865 27.0736529,21.6529757 27.0736529,22.015088 L31.2706767,22.015088 L30.2368421,23.0209556" id="Fill-3" fill="#FFFFFF" sketch:type="MSShapeGroup"></path>
                </g>
            </g>
            <path d="M114.3,1.816 C100.028,1.816 98.172,4.312 98.172,25.112 C98.172,46.488 100.028,47.384 114.3,47.384 C126.972,47.384 129.212,45.208 129.212,33.304 C129.212,21.656 126.46,20.76 115.324,20.76 C105.916,20.76 103.548,22.04 101.948,24.6 C101.948,5.976 103.868,4.888 114.428,4.888 C118.972,4.888 123.324,5.208 125.5,5.72 L125.884,5.464 L125.884,4.312 C125.884,2.52 123.452,1.816 114.3,1.816 L114.3,1.816 Z M113.34,23.832 C123.9,23.832 125.436,24.344 125.436,33.624 C125.436,42.968 123.708,44.312 114.364,44.312 C104.316,44.312 102.268,44.12 102.012,30.552 C102.012,26.2 103.996,23.832 113.34,23.832 L113.34,23.832 Z M141.830667,47 L141.830667,42.2 L137.030667,42.2 L137.030667,47 L141.830667,47 Z" id="6." fill="#FFFFFF" sketch:type="MSShapeGroup"></path>
        </g>
    </g>
</svg>