<?xml version="1.0" encoding="UTF-8" standalone="no"?>
<svg width="71px" height="71px" viewBox="0 0 71 71" version="1.1" xmlns="http://www.w3.org/2000/svg" xmlns:xlink="http://www.w3.org/1999/xlink" xmlns:sketch="http://www.bohemiancoding.com/sketch/ns">
    <!-- Generator: Sketch 3.1.1 (8761) - http://www.bohemiancoding.com/sketch -->
    <title>mobilPlus-tabletIcon</title>
    <desc>Created with Sketch.</desc>
    <defs></defs>
    <g id="utilities" stroke="none" stroke-width="1" fill="none" fill-rule="evenodd" sketch:type="MSPage">
        <g id="mobilPlus-tabletIcon" sketch:type="MSArtboardGroup">
            <g id="Oval-3-+-Imported-Layers-2" sketch:type="MSLayerGroup" transform="translate(1.000000, 1.000000)">
                <circle id="Oval-3" stroke="#D8D8D8" stroke-width="2" sketch:type="MSShapeGroup" cx="34.5" cy="34.5" r="34.5"></circle>
                <path d="M49.871,10 L19.041,10 C17.368,10 16,11.368 16,13.041 L16,57.332 C16,59.005 17.368,60.374 19.041,60.374 L49.871,60.374 C51.544,60.374 52.912,59.005 52.912,57.332 L52.912,13.041 C52.912,11.368 51.544,10 49.871,10 L49.871,10 Z M34.456,58.973 C33.509,58.973 32.733,58.198 32.733,57.251 C32.733,56.303 33.509,55.528 34.456,55.528 C35.404,55.528 36.179,56.303 36.179,57.251 C36.179,58.198 35.404,58.973 34.456,58.973 L34.456,58.973 Z M18.531,14.534 L50.38,14.534 L50.38,54.183 L18.531,54.183 L18.531,14.534 Z" id="Imported-Layers-2" fill="#D8D8D8" sketch:type="MSShapeGroup"></path>
            </g>
        </g>
    </g>
</svg>