<?xml version="1.0" encoding="utf-8"?>
<!-- Generator: Adobe Illustrator 18.0.0, SVG Export Plug-In . SVG Version: 6.00 Build 0)  -->
<!DOCTYPE svg PUBLIC "-//W3C//DTD SVG 1.1//EN" "http://www.w3.org/Graphics/SVG/1.1/DTD/svg11.dtd">
<svg version="1.1" id="Layer_1" xmlns="http://www.w3.org/2000/svg" xmlns:xlink="http://www.w3.org/1999/xlink" x="0px" y="0px"
	 viewBox="0 0 189.7 125.5" enable-background="new 0 0 189.7 125.5" xml:space="preserve">
<path fill="#FFFFFF" d="M186.8,11.9l0-5.9c0-3.3-2.7-6-6-6h-0.8c-3.3,0-6,2.7-6,6v4.2h-16.1c-8.1,0-15.4,4.6-15.4,13.4v44.7
	c0,3.9,2.4,6.3,6.3,6.3h25.5c7.3,0,12.6-5.3,12.6-12.6l0-4.9L186.8,11.9z M184.5,62.2c0,6.1-4.3,10.3-10.3,10.3h-25.5
	c-2.7,0-4.1-1.4-4.1-4.1V23.7c0-7.2,6.1-11.2,13.5-11.2h18.1V6.1c0-2.1,1.7-3.8,3.8-3.8h0.8c2.1,0,3.8,1.7,3.8,3.8l0,5.9l0,45.3
	L184.5,62.2z"/>
<path fill="#F26535" d="M147.8,41.3v27.1c0,0.5,0.1,0.8,0.1,0.8c0.1,0,0.3,0.1,0.8,0.1h25.5c4.3,0,7.1-2.9,7.1-7.1V24.1L147.8,41.3z
	 M175.5,57.9h-7.6v7.6h-6.6v-7.6h-7.6v-6.6h7.6v-7.6h6.6v7.6h7.6V57.9z"/>
<g>
	<path fill="#FFFFFF" d="M82.9,74.4c0.6,0,1.2,0,1.7-0.1c1.8,0,2.7-0.5,3.2-2.2c1.2,1.7,2.8,2.4,4.7,2.5c0.5,0,1.1,0,1.6,0.1
		c0.9,0.1,2,0.1,3.3,0.1c9.3,0,11.3-2.2,11.3-16.2c0-14.2-1.2-16.2-11.5-16.2c-1.5,0-2.7,0.1-3.8,0.3c-1.9,0.3-3.7,0.9-5.4,2.4V26.8
		l-8,1.2v0c-0.2,0-0.4,0.1-0.7,0.1c0,0.7,0,1.3,0,1.9c0,13.7,0,27.3,0,41C79.4,74.9,78.9,74.3,82.9,74.4z M90.9,48.6
		c1.7-0.1,3.4-0.1,5.1,0c2.2,0.1,3.1,0.9,3.4,3.1c0.3,2.3,0.4,4.6,0.5,6.9c-0.2,2.2-0.2,4.5-0.6,6.8c-0.3,2.1-1.3,3.1-3.4,3.2
		c-0.1,0-0.1,0-0.2,0c-0.4,0-0.8,0-1.3,0c0,0-0.1,0-0.1,0c-0.5,0-0.9,0-1.4,0c0,0-0.1,0-0.1,0c-0.2,0-0.4,0-0.7,0
		c-3.6-0.3-4.4-1.5-4.4-4.6V53.4c0-3,0.8-4.3,2.7-4.8C90.8,48.6,90.9,48.6,90.9,48.6z"/>
	<path fill="#FFFFFF" d="M35.4,42.2c-2.1,0-3.8,0.2-5.1,0.6c-0.1,0-0.1,0-0.2,0.1c-0.2,0.1-0.4,0.1-0.5,0.2c-0.1,0-0.1,0.1-0.2,0.1
		c-0.1,0.1-0.3,0.1-0.4,0.2c-0.1,0.1-0.2,0.1-0.3,0.2c0,0,0,0,0,0c-1.1,0.6-2.1,1.4-2.9,2.5c-1.2-3.2-4-3.8-8.2-3.8
		c-1.2,0-2.3,0.1-3.3,0.3c-0.1,0-0.2,0-0.2,0c-0.4,0.1-0.8,0.2-1.2,0.3c-0.1,0-0.2,0.1-0.3,0.1c-0.2,0.1-0.4,0.1-0.6,0.2
		c-0.3,0.1-0.5,0.2-0.8,0.4c0,0,0,0,0,0c-1,0.5-1.9,1.3-2.8,2.3c-0.4-2.5-1.5-3.2-3.6-3.2H0.9l-0.2,0.2C0.1,43,0,43.4,0,44.7
		c0,9.4,0,18.8,0,28.2c0,0.5,0,0.9,0.1,1.4c2.6,0,5.1,0,7.9,0v0h0.3V53.4c0-2.6,0.7-3.9,2-4.5c0.7-0.3,1.5-0.4,2.6-0.5
		c4.4-0.2,5.3,0.6,5.3,5c0,6.4,0,12.9,0,19.3c0,0.5,0,1,0,1.6c0.1,0,0.2,0,0.3,0v0h8V53.3c0-2.6,0.7-3.9,2-4.5
		c0.7-0.2,1.6-0.4,2.7-0.4c4.2-0.1,5.1,0.7,5.1,4.9c0,6.5,0,13,0,19.5c0,0.5,0,1,0,1.5c0.1,0,0.2,0,0.3,0v0.1h8V53.3
		C44.5,43.6,42.5,42.2,35.4,42.2z"/>
	<path fill="#FFFFFF" d="M76.7,58.5c0-14-2-16.2-14.6-16.2c-3.6,0-6.3,0.2-8.3,0.8c-3.9,0.8-5.6,3-6,7.5c-0.4,5.2-0.5,10.4-0.1,15.6
		c0.4,5.2,2.4,7.4,6.7,8.2c4,0.7,8.1,0.8,12.2,0.4C75.2,73.9,76.7,70.6,76.7,58.5z M64.9,68.5c-0.1,0-0.1,0-0.2,0
		c-0.2,0-0.4,0-0.6,0.1c-0.2,0-0.5,0-0.7,0c-0.4,0-0.8,0-1.2,0c-0.1,0-0.1,0-0.2,0c-0.2,0-0.4,0-0.7,0c-0.4,0-0.8,0-1.3,0
		c-4-0.3-4.4-2-4.4-10.1c0-6.8,0.3-9.1,2.7-9.8c0.2,0,0.4-0.1,0.6-0.1c1.8-0.1,3.5-0.1,5.3,0c2.2,0.1,3.4,1.1,3.4,3.3
		c0.2,4.5,0.2,9,0,13.4c-0.1,1.8-0.9,2.7-2.5,3.1C65.2,68.4,65.1,68.5,64.9,68.5z"/>
	<path fill="#FFFFFF" d="M119.9,42.6h-8v0.2c0,0-0.1,0-0.1,0c0,10.6,0,21,0,31.5c0,0,0.1,0,0.1,0v0h8V42.6z"/>
	<path fill="#FFFFFF" d="M111.7,35.4h8.6v-7.2h-8.6v0.1c-0.1,0-0.1,0-0.1,0c0,2.4,0,4.7,0,7C111.6,35.4,111.7,35.4,111.7,35.4
		L111.7,35.4z"/>
	<path fill="#FFFFFF" d="M84.5,119.4c-4.5,0-5.2-0.6-5.2-4.8V99.2h10l0.8-5.8H79.3v-7.2l-8,1.2v6h-4v5.8h4v15.7
		c0,9.4,2.7,10.6,10,10.6c7.5,0,8.9-1,8.9-4.2v-1.7l-0.6-0.5C88.4,119.2,86.6,119.4,84.5,119.4z"/>
	<rect x="108.4" y="79" fill="#FFFFFF" width="6.4" height="7.2"/>
	<rect x="97.3" y="79" fill="#FFFFFF" width="6.3" height="7.2"/>
	<path fill="#FFFFFF" d="M106.1,93c-12.6,0-14.5,2.2-14.5,16.2s2,16.2,14.5,16.2c12.6,0,14.6-2.2,14.6-16.2S118.8,93,106.1,93z
		 M106.1,119.4c-5.8,0-6.4-0.8-6.4-10.1c0-9.3,0.6-10.1,6.4-10.1c5.9,0,6.4,0.8,6.4,10.1C112.5,118.5,112,119.4,106.1,119.4z"/>
	<path fill="#FFFFFF" d="M151.4,119.4c-4.5,0-5.2-0.6-5.2-4.8V99.2h10l0.8-5.8h-10.8v-7.2l-8,1.2v6h-4v5.8h4v15.7
		c0,9.4,2.7,10.6,10,10.6c7.5,0,8.9-1,8.9-4.2v-1.7l-0.6-0.5C155.3,119.2,153.5,119.4,151.4,119.4z"/>
	<polygon fill="#FFFFFF" points="181.6,89 189.7,78.5 181.5,78.5 175.3,89 	"/>
	<polygon fill="#FFFFFF" points="177.8,78.5 170.5,78.5 165.3,89 171.1,89 	"/>
	<path fill="#FFFFFF" d="M173.3,93c-12.6,0-14.5,2.2-14.5,16.2s2,16.2,14.5,16.2c12.6,0,14.6-2.2,14.6-16.2S185.9,93,173.3,93z
		 M173.3,119.4c-5.8,0-6.4-0.8-6.4-10.1c0-9.3,0.6-10.1,6.4-10.1c5.9,0,6.4,0.8,6.4,10.1C179.7,118.5,179.2,119.4,173.3,119.4z"/>
	<polygon fill="#FFFFFF" points="132.1,26.8 124.1,28 124.1,76 132.1,74.8 	"/>
	<polygon fill="#FFFFFF" points="132.1,77.5 124.1,78.7 124.1,81.1 124.1,81.1 124.1,125.1 132.1,125.1 132.1,77.5 132.1,77.5 	"/>
</g>
</svg>
