<?xml version="1.0" encoding="UTF-8" standalone="no"?>
<svg width="223px" height="138px" viewBox="0 0 223 138" version="1.1" xmlns="http://www.w3.org/2000/svg" xmlns:xlink="http://www.w3.org/1999/xlink" xmlns:sketch="http://www.bohemiancoding.com/sketch/ns">
    <!-- Generator: Sketch 3.3.2 (12043) - http://www.bohemiancoding.com/sketch -->
    <title>mobilPlus-brandBig-hun</title>
    <desc>Created with Sketch.</desc>
    <defs></defs>
    <g id="utilities" stroke="none" stroke-width="1" fill="none" fill-rule="evenodd" sketch:type="MSPage">
        <g id="mobilPlus-brandBig-hun" sketch:type="MSArtboardGroup">
            <g id="mobile-event-logo-big" sketch:type="MSLayerGroup">
                <path d="M79.2967617,58.4719008 C79.2967617,72.8652893 77.2612694,75.1446281 64.2031088,75.1446281 C51.2102332,75.1446281 49.1759067,72.8652893 49.1759067,58.4719008 C49.1759067,44.0785124 51.2102332,41.7991736 64.2031088,41.7991736 C77.2612694,41.7991736 79.2967617,44.0785124 79.2967617,58.4719008 L79.2967617,58.4719008 Z M57.5755181,58.4719008 C57.5755181,68.046281 58.1665803,68.8932231 64.2031088,68.8932231 C70.3060881,68.8932231 70.8306995,68.046281 70.8306995,58.4719008 C70.8306995,48.8975207 70.3060881,48.0517355 64.2031088,48.0517355 C58.1665803,48.0517355 57.5755181,48.8975207 57.5755181,58.4719008 Z M91.059715,45.3813223 C92.5682642,43.0360331 94.9966321,41.7991736 100.575,41.7991736 C111.205959,41.7991736 112.452202,43.8829752 112.452202,58.4719008 C112.452202,72.9300826 110.417876,75.1446281 100.772021,75.1446281 C94.7343264,75.1446281 92.765285,74.4932231 91.059715,71.6272727 C90.6003886,74.2328926 89.484715,74.7535537 87.1880829,74.7535537 L83.3817358,74.7535537 L82.7906736,74.1680992 L82.7906736,27.1454545 L91.059715,25.907438 L91.059715,45.3813223 Z M91.059715,53.2618182 L91.059715,64.0730579 C91.059715,67.8507438 92.1089378,68.8932231 97.6873057,68.8932231 C103.462694,68.8932231 104.052591,68.046281 104.052591,58.4719008 C104.052591,48.8327273 103.527979,48.0517355 97.425,48.0517355 C92.8305699,48.0517355 91.059715,48.7679339 91.059715,53.2618182 Z M115.53342,27.4057851 L124.458808,27.4057851 L124.458808,34.7644628 L115.53342,34.7644628 L115.53342,27.4057851 Z M115.795725,42.1890909 L124.063601,42.1890909 L124.063601,74.7535537 L115.795725,74.7535537 L115.795725,42.1890909 Z M128.328109,74.7535537 L128.328109,27.1454545 L136.59715,25.907438 L136.59715,74.7535537 L128.328109,74.7535537 Z M167.476943,56.5836364 L167.476943,60.3601653 L166.755311,60.9467769 L148.446373,60.9467769 C148.446373,67.7859504 148.905699,68.8932231 156.912435,68.8932231 C161.111658,68.8932231 164.458679,68.697686 166.624741,68.371405 L167.215803,68.9580165 L167.215803,70.7166942 C167.215803,74.0373554 164.787435,75.1446281 155.468005,75.1446281 C141.753497,75.1446281 140.113212,73.0608264 140.113212,58.4719008 C140.113212,43.2963636 141.950518,41.7991736 154.681088,41.7991736 C166.55829,41.7991736 167.476943,43.5578512 167.476943,56.5836364 Z M148.446373,55.4104132 L159.404922,55.4104132 C159.404922,48.5076033 159.143782,47.8561983 154.090026,47.8561983 C148.643394,47.8561983 148.446373,48.5723967 148.446373,55.4104132 Z M37.7428767,74.7535536 L46.0107524,74.7535536 L46.0107513,53.1310744 C46.0107513,43.1667769 43.9764249,41.7991736 36.5607513,41.7991736 C30.9182642,41.7991736 28.2928756,43.0360331 26.5873057,45.9667769 C25.4063472,42.3846281 22.517487,41.7991736 17.9906736,41.7991736 C13.6585492,41.7991736 10.640285,42.6449587 8.40893782,45.7723967 C8.01606218,42.9712397 6.9003886,42.1890909 4.60259067,42.1890909 L0.862694301,42.1890909 L0.20634715,42.7757025 L0.20634715,74.7535537 L8.4753886,74.7535537 L8.4753886,53.2618182 C8.4753886,48.7679339 10.4432642,48.0517355 14.3148964,48.0517355 C18.1876943,48.0517355 18.9746114,48.5723967 18.9746114,53.4573554 L18.9746114,74.7535537 L27.242487,74.7535537 L27.242487,53.1310744 C27.242487,48.6371901 29.2115285,48.0517355 33.0831606,48.0517355 C36.8895078,48.0517355 37.7428756,48.5723967 37.7428756,53.4573554 L37.7428767,74.7535536 Z" id="Fill-1" fill="#FFFFFF" sketch:type="MSShapeGroup"></path>
                <g id="telefon" transform="translate(177.000000, 0.000000)" sketch:type="MSShapeGroup">
                    <path d="M45.6569123,12.5326577 L45.6569123,6.62837838 C45.6569123,3.30518018 42.9340501,0.611486486 39.5774085,0.611486486 L38.7274386,0.611486486 C35.3696591,0.611486486 32.6479348,3.30518018 32.6479348,6.62837838 L32.6479348,10.8558559 L16.4154436,10.8558559 C8.21385965,10.8558559 0.825834586,15.4268018 0.825834586,24.2849099 L0.825834586,68.9527027 C0.825834586,72.875 3.23806516,75.2623874 7.20117794,75.2623874 L32.9733584,75.2623874 C40.3386266,75.2623874 45.6569123,70 45.6569123,62.7105856 L45.6569123,12.5326577 L45.6569123,12.5326577 Z M43.3903258,62.7668919 C43.3903258,68.8186937 39.0869975,73.0765766 32.9733584,73.0765766 L7.20117794,73.0765766 C4.49083208,73.0765766 3.09242105,71.6925676 3.09242105,69.0101351 L3.09242105,24.3412162 C3.09242105,17.1644144 9.23564411,13.1565315 16.6839749,13.1565315 L34.9156591,13.1565315 L34.9156591,6.68581081 C34.9156591,4.60135135 36.6224261,2.91216216 38.7274386,2.91216216 L39.5774085,2.91216216 C41.6824211,2.91216216 43.389188,4.60135135 43.389188,6.68581081 L43.3903258,62.7668919 L43.3903258,62.7668919 Z" id="Fill-1" fill="#FFFFFF"></path>
                    <path d="M6.31821053,41.9222973 L6.31821053,69.0101351 C6.31821053,69.5135135 6.40354887,69.7657658 6.37965414,69.7657658 C6.43427068,69.7984234 6.68914787,69.884009 7.20231579,69.884009 L32.9733584,69.884009 C37.274411,69.884009 40.1633985,67.0236486 40.1633985,62.7668919 L40.1633985,24.6948198 L6.31821053,41.9222973 L6.31821053,41.9222973 Z M34.2522957,58.4831081 L26.598015,58.4831081 L26.598015,66.0574324 L19.8847318,66.0574324 L19.8847318,58.4831081 L12.2304511,58.4831081 L12.2304511,51.8378378 L19.8847318,51.8378378 L19.8847318,44.2623874 L26.598015,44.2623874 L26.598015,51.8378378 L34.2522957,51.8378378 L34.2522957,58.4831081 L34.2522957,58.4831081 Z" id="Fill-2" fill="#F16434"></path>
                </g>
                <g id="Imported-Layers-Copy" transform="translate(39.000000, 83.000000)" fill="#FFFFFF" sketch:type="MSShapeGroup">
                    <path d="M27.1271653,22.3646308 L27.1271653,26.1199853 L26.4172028,26.7028509 L8.41767361,26.7028509 C8.41767361,33.5013056 8.86888194,34.6023423 16.7395514,34.6023423 C20.8685681,34.6023423 24.1593194,34.4079511 26.2876722,34.0838631 L26.8684111,34.6667286 L26.8684111,36.4156333 C26.8684111,39.717511 24.4809972,40.8182396 15.3208542,40.8182396 C1.83739861,40.8182396 0.224098611,38.7461711 0.224098611,24.2423081 C0.224098611,9.15557946 2.03108056,7.66637653 14.5470472,7.66637653 C26.2238278,7.66637653 27.1271653,9.41435697 27.1271653,22.3646308 L27.1271653,22.3646308 Z M8.41767361,21.1992078 L19.1911167,21.1992078 C19.1911167,14.3351345 18.9335903,13.6881907 13.9653875,13.6881907 C8.61135556,13.6881907 8.41767361,14.400445 8.41767361,21.1992078 L8.41767361,21.1992078 Z" id="Fill-5"></path>
                    <path d="M53.0602875,34.213868 C51.3186847,40.4941516 50.2216653,40.8182396 44.4155042,40.8182396 C38.4810403,40.8182396 37.1906458,40.4941516 35.4478153,34.1494817 L28.1588056,8.05485086 L36.8035889,8.05485086 L42.8034319,32.6602787 C43.1251097,34.1494817 43.3838639,34.213868 44.4155042,34.213868 C45.4483722,34.213868 45.5763681,34.1494817 45.8992736,32.6602787 L51.7698931,8.05485086 L60.0926917,8.05485086 L53.0602875,34.213868" id="Fill-6"></path>
                    <path d="M87.7692583,22.3646308 L87.7692583,26.1199853 L87.0592958,26.7028509 L69.0594597,26.7028509 C69.0594597,33.5013056 69.5103611,34.6023423 77.3816444,34.6023423 C81.5106611,34.6023423 84.8014125,34.4079511 86.9300722,34.0838631 L87.5105042,34.6667286 L87.5105042,36.4156333 C87.5105042,39.717511 85.1230903,40.8182396 75.9632542,40.8182396 C62.4788778,40.8182396 60.8655778,38.7461711 60.8655778,24.2423081 C60.8655778,9.15557946 62.6725597,7.66637653 75.1891403,7.66637653 C86.8659208,7.66637653 87.7692583,9.41435697 87.7692583,22.3646308 L87.7692583,22.3646308 Z M69.0594597,21.1992078 L79.8332097,21.1992078 C79.8332097,14.3351345 79.5756833,13.6881907 74.6074806,13.6881907 C69.2528347,13.6881907 69.0594597,14.400445 69.0594597,21.1992078 L69.0594597,21.1992078 Z" id="Fill-7"></path>
                    <path d="M120.218504,18.8030513 L120.218504,40.4297653 L112.026157,40.4297653 L112.026157,19.4512274 C112.026157,14.4648313 111.186664,13.8822738 106.670897,13.8822738 C102.284354,13.8822738 100.090622,14.5948362 100.090622,19.0627531 L100.090622,40.4297653 L91.9621194,40.4297653 L91.9621194,8.63740831 L92.6070097,8.05485086 L96.2845111,8.05485086 C98.5427014,8.05485086 99.6394139,8.76710513 100.026471,11.4861174 C101.832225,9.02588264 104.090108,7.66637653 109.832118,7.66637653 C118.283526,7.66637653 120.218504,8.89711002 120.218504,18.8030513" id="Fill-8"></path>
                    <path d="M145.444119,8.05485086 L144.670006,14.0122787 L134.477301,14.0122787 L134.477301,29.6812567 C134.477301,34.0197848 135.187264,34.6023423 139.767182,34.6023423 C141.895842,34.6023423 143.702517,34.4723374 145.057063,34.2782543 L145.637494,34.7964254 L145.637494,36.5444059 C145.637494,39.8472078 144.153725,40.8182396 136.54181,40.8182396 C129.05789,40.8182396 126.348799,39.5887384 126.348799,30.0053447 L126.348799,14.0122787 L122.28424,14.0122787 L122.28424,8.05485086 L126.348799,8.05485086 L126.348799,1.90303178 L134.477301,0.673530562 L134.477301,8.05485086 L145.444119,8.05485086" id="Fill-9"></path>
                </g>
            </g>
        </g>
    </g>
</svg>