<?xml version="1.0" encoding="utf-8"?>
<!-- Generator: Adobe Illustrator 16.0.0, SVG Export Plug-In . SVG Version: 6.00 Build 0)  -->
<!DOCTYPE svg PUBLIC "-//W3C//DTD SVG 1.1//EN" "http://www.w3.org/Graphics/SVG/1.1/DTD/svg11.dtd">
<svg version="1.1" id="Layer_1" xmlns="http://www.w3.org/2000/svg" xmlns:xlink="http://www.w3.org/1999/xlink" x="0px" y="0px"
	 width="110px" height="72px" viewBox="0 0 110 72" enable-background="new 0 0 110 72" xml:space="preserve">
<path fill="#FFFFFF" d="M107.37,6.958V3.56c0-1.913-1.55-3.463-3.462-3.463h-0.484c-1.913,0-3.464,1.55-3.464,3.463v2.433h-9.247
	c-4.674,0-8.882,2.632-8.882,7.73v25.712c0,2.258,1.375,3.633,3.633,3.633h14.681c4.197,0,7.226-3.029,7.226-7.226v-2.83V6.958z
	 M106.08,35.874c0,3.483-2.451,5.934-5.936,5.934H85.464c-1.546,0-2.342-0.795-2.342-2.341V13.755c0-4.13,3.5-6.438,7.744-6.438
	h10.386V3.592c0-1.199,0.972-2.171,2.172-2.171h0.484c1.198,0,2.172,0.972,2.172,2.171v3.399v26.054V35.874z"/>
<path fill="#FFFFFF" d="M84.961,23.875v15.592c0,0.292,0.047,0.436,0.035,0.436c0.03,0.02,0.176,0.069,0.468,0.069h14.681
	c2.452,0,4.098-1.646,4.098-4.098V13.959L84.961,23.875z M100.875,33.408h-4.361v4.361h-3.824v-4.361h-4.36v-3.825h4.36v-4.36h3.824
	v4.36h4.361V33.408z"/>
<path fill="#FFFFFF" d="M47.629,42.91c0.343,0.006,0.673-0.004,0.981-0.052c1.012-0.027,1.582-0.286,1.868-1.29
	c0.718,0.958,1.639,1.367,2.693,1.413c0.302,0.015,0.605,0.025,0.909,0.039c0.542,0.044,1.166,0.063,1.902,0.063
	c5.365,0,6.497-1.241,6.497-9.341c0-8.173-0.694-9.341-6.605-9.341c-0.856,0-1.575,0.055-2.19,0.159
	c-1.086,0.151-2.136,0.521-3.101,1.365V15.499l-4.598,0.693v0.013c-0.127,0.019-0.252,0.038-0.381,0.058v1.066
	c0,7.857-0.004,15.713,0.002,23.571C45.609,43.188,45.327,42.868,47.629,42.91 M52.242,28.069c0.98-0.079,1.975-0.086,2.957-0.021
	c1.249,0.083,1.782,0.54,1.967,1.804c0.191,1.298,0.216,2.621,0.315,3.969c-0.101,1.287-0.14,2.607-0.321,3.908
	c-0.171,1.224-0.734,1.758-1.933,1.825c-0.032,0.004-0.066,0.005-0.098,0.006c-0.244,0.011-0.487,0.017-0.731,0.019
	c-0.02,0-0.037,0.001-0.057,0.001c-0.267,0-0.535-0.005-0.801-0.014c-0.022,0-0.044-0.001-0.066-0.004
	c-0.127-0.004-0.254-0.014-0.381-0.021c-2.075-0.16-2.509-0.847-2.509-2.66v-6.058c0-1.716,0.458-2.448,1.561-2.741
	C52.178,28.079,52.208,28.071,52.242,28.069"/>
<path fill="#FFFFFF" d="M20.281,24.402c-1.212,0-2.172,0.105-2.951,0.327c-0.033,0.009-0.066,0.02-0.098,0.029
	c-0.105,0.032-0.208,0.066-0.306,0.103c-0.043,0.017-0.086,0.033-0.128,0.05c-0.082,0.033-0.161,0.067-0.238,0.104
	c-0.062,0.028-0.125,0.059-0.188,0.09c-0.001,0.001-0.004,0.002-0.006,0.003c-0.616,0.317-1.187,0.785-1.698,1.454
	c-0.692-1.848-2.272-2.161-4.714-2.161c-0.695,0-1.324,0.046-1.905,0.145c-0.047,0.008-0.093,0.018-0.139,0.027
	c-0.241,0.045-0.473,0.103-0.696,0.171c-0.062,0.02-0.126,0.038-0.189,0.059c-0.108,0.038-0.215,0.079-0.319,0.124
	c-0.158,0.065-0.313,0.137-0.467,0.218c-0.006,0.003-0.013,0.005-0.02,0.01c-0.575,0.307-1.118,0.735-1.623,1.314
	c-0.24-1.432-0.857-1.849-2.087-1.849h-2.08l-0.135,0.121c-0.341,0.092-0.37,0.34-0.37,1.051c0,5.414,0,10.825,0.001,16.238
	c0,0.269,0.026,0.533,0.042,0.834h4.528l0,0h0.166V30.823c0-1.486,0.386-2.231,1.141-2.596c0.392-0.154,0.885-0.236,1.51-0.269
	c2.513-0.134,3.025,0.338,3.032,2.855c0.011,3.708,0.003,7.418,0.003,11.127v0.922h0.153v0.001H15.1V30.75
	c0-1.506,0.394-2.226,1.17-2.563c0.401-0.138,0.912-0.207,1.567-0.229c2.431-0.085,2.917,0.377,2.92,2.805
	c0.005,3.737,0.001,7.474,0.002,11.21v0.858h0.177v0.032h4.599V30.75C25.536,25.168,24.404,24.402,20.281,24.402"/>
<path fill="#FFFFFF" d="M44.042,33.743c0-8.064-1.131-9.341-8.392-9.341c-2.05,0-3.608,0.104-4.791,0.435
	c-2.238,0.454-3.225,1.721-3.445,4.32c-0.252,2.967-0.281,5.982-0.069,8.952c0.212,2.986,1.372,4.264,3.874,4.69
	c2.326,0.396,4.674,0.476,7.012,0.203C43.19,42.622,44.042,40.734,44.042,33.743 M37.292,39.494c-0.035,0.006-0.072,0.01-0.11,0.015
	c-0.11,0.014-0.226,0.026-0.349,0.036c-0.141,0.01-0.283,0.017-0.424,0.022c-0.223,0.007-0.457,0.013-0.712,0.013
	c-0.03,0-0.061,0-0.091,0c-0.133,0-0.257-0.003-0.381-0.005c-0.241-0.007-0.481-0.015-0.721-0.026
	c-2.287-0.172-2.538-1.132-2.538-5.806c0-3.902,0.18-5.211,1.567-5.638c0.111-0.02,0.227-0.035,0.351-0.042
	c1.01-0.066,2.03-0.081,3.038-0.01c1.239,0.085,1.937,0.651,1.984,1.895c0.101,2.572,0.099,5.153-0.01,7.725
	c-0.044,1.032-0.52,1.581-1.412,1.785C37.42,39.47,37.36,39.483,37.292,39.494"/>
<polygon fill="#FFFFFF" points="68.935,24.621 64.338,24.621 64.338,24.742 64.256,24.742 64.256,42.847 64.338,42.847 
	64.338,42.864 68.935,42.864 "/>
<path fill="#FFFFFF" d="M64.191,20.461h4.963v-4.123h-4.963v0.082c-0.03,0.002-0.055,0.004-0.085,0.005v4.012h0.085V20.461z"/>
<path fill="#FFFFFF" d="M48.54,68.77c-2.592,0-2.992-0.329-2.992-2.774v-8.829h5.765l0.438-3.357h-6.203V49.65l-4.598,0.693v3.465
	h-2.298v3.357h2.298v9.012c0,5.4,1.532,6.095,5.766,6.095c4.306,0,5.144-0.547,5.144-2.408v-0.985l-0.328-0.293
	C50.765,68.695,49.743,68.77,48.54,68.77"/>
<rect x="62.305" y="45.526" fill="#FFFFFF" width="3.685" height="4.124"/>
<rect x="55.919" y="45.526" fill="#FFFFFF" width="3.649" height="4.124"/>
<path fill="#FFFFFF" d="M60.991,53.591c-7.225,0-8.356,1.275-8.356,9.34c0,8.065,1.131,9.342,8.356,9.342
	c7.261,0,8.393-1.276,8.393-9.342C69.384,54.866,68.252,53.591,60.991,53.591 M60.991,68.77c-3.356,0-3.686-0.474-3.686-5.839
	c0-5.363,0.329-5.838,3.686-5.838c3.393,0,3.686,0.475,3.686,5.838C64.677,68.296,64.384,68.77,60.991,68.77"/>
<path fill="#FFFFFF" d="M87.056,68.77c-2.592,0-2.992-0.329-2.992-2.774v-8.829h5.764l0.439-3.357h-6.203V49.65l-4.599,0.693v3.465
	h-2.299v3.357h2.299v9.012c0,5.4,1.532,6.095,5.766,6.095c4.306,0,5.146-0.547,5.146-2.408v-0.985l-0.33-0.293
	C89.282,68.695,88.259,68.77,87.056,68.77"/>
<polygon fill="#FFFFFF" points="104.389,51.291 109.059,45.27 104.353,45.27 100.776,51.291 "/>
<polygon fill="#FFFFFF" points="102.198,45.271 98.039,45.271 95.048,51.291 98.368,51.291 "/>
<path fill="#FFFFFF" d="M99.608,53.591c-7.225,0-8.355,1.275-8.355,9.34c0,8.065,1.131,9.342,8.355,9.342
	c7.261,0,8.393-1.276,8.393-9.342C108.001,54.866,106.869,53.591,99.608,53.591 M99.608,68.77c-3.355,0-3.686-0.474-3.686-5.839
	c0-5.363,0.33-5.838,3.686-5.838c3.395,0,3.687,0.475,3.687,5.838C103.295,68.296,103.003,68.77,99.608,68.77"/>
<polygon fill="#FFFFFF" points="75.903,15.499 71.306,16.191 71.306,43.799 75.903,43.111 "/>
<polygon fill="#FFFFFF" points="75.903,44.688 71.306,45.375 71.306,46.748 71.326,46.748 71.326,72.053 75.923,72.053 
	75.923,44.687 75.903,44.689 "/>
</svg>
