<?xml version="1.0" encoding="UTF-8" standalone="no"?>
<svg width="126px" height="77px" viewBox="0 0 126 77" version="1.1" xmlns="http://www.w3.org/2000/svg" xmlns:xlink="http://www.w3.org/1999/xlink" xmlns:sketch="http://www.bohemiancoding.com/sketch/ns">
    <!-- Generator: Sketch 3.1.1 (8761) - http://www.bohemiancoding.com/sketch -->
    <title>mobilPlus-brand-eng</title>
    <desc>Created with Sketch.</desc>
    <defs></defs>
    <g id="utilities" stroke="none" stroke-width="1" fill="none" fill-rule="evenodd" sketch:type="MSPage">
        <g id="mobilPlus-brand-eng" sketch:type="MSArtboardGroup" fill="#FFFFFF">
            <g id="mobile-charger-logo-small-3" sketch:type="MSLayerGroup">
                <path d="M44.7905047,32.3943198 C44.7905047,40.507224 43.6407639,41.7919846 36.2649065,41.7919846 C28.9259251,41.7919846 27.7768428,40.507224 27.7768428,32.3943198 C27.7768428,24.2814155 28.9259251,22.996655 36.2649065,22.996655 C43.6407639,22.996655 44.7905047,24.2814155 44.7905047,32.3943198 L44.7905047,32.3943198 Z M32.5213346,32.3943198 C32.5213346,37.7909663 32.855194,38.2683494 36.2649065,38.2683494 C39.7121535,38.2683494 40.0084785,37.7909663 40.0084785,32.3943198 C40.0084785,26.9976733 39.7121535,26.5209423 36.2649065,26.5209423 C32.855194,26.5209423 32.5213346,26.9976733 32.5213346,32.3943198 L32.5213346,32.3943198 Z M51.4347687,25.0157508 C52.2868676,23.6938169 53.6585229,22.996655 56.8094449,22.996655 C62.8143055,22.996655 63.5182419,24.1712 63.5182419,32.3943198 C63.5182419,40.5437451 62.3691596,41.7919846 56.9207314,41.7919846 C53.5103604,41.7919846 52.3981541,41.4248169 51.4347687,39.8094099 C51.1753198,41.2780803 50.5451354,41.5715536 49.2478906,41.5715536 L47.0978884,41.5715536 L46.7640289,41.2415592 L46.7640289,14.7370141 L51.4347687,14.0392 L51.4347687,25.0157508 L51.4347687,25.0157508 Z M51.4347687,29.457631 L51.4347687,35.5514395 C51.4347687,37.6807508 52.0274186,38.2683494 55.1783407,38.2683494 C58.4405492,38.2683494 58.7737501,37.7909663 58.7737501,32.3943198 C58.7737501,26.9611522 58.4774252,26.5209423 55.0301782,26.5209423 C52.4350301,26.5209423 51.4347687,26.924631 51.4347687,29.457631 L51.4347687,29.457631 Z M65.2586571,14.8837508 L70.3001324,14.8837508 L70.3001324,19.0315056 L65.2586571,19.0315056 L65.2586571,14.8837508 Z M65.4068196,23.2164338 L70.0769009,23.2164338 L70.0769009,41.5715536 L65.4068196,41.5715536 L65.4068196,23.2164338 Z M72.4856936,41.5715536 L72.4856936,14.7370141 L77.1564333,14.0392 L77.1564333,41.5715536 L72.4856936,41.5715536 M94.5987787,31.3299902 L94.5987787,33.4586493 L94.1911673,33.7892958 L83.8494263,33.7892958 C83.8494263,37.6442297 84.1088753,38.2683494 88.6314526,38.2683494 C91.0033693,38.2683494 92.8939225,38.1581339 94.1174153,37.974224 L94.4512747,38.3048705 L94.4512747,39.2961578 C94.4512747,41.1678648 93.0796194,41.7919846 87.8155712,41.7919846 C80.0689784,41.7919846 79.142469,40.6174395 79.142469,32.3943198 C79.142469,23.8405535 80.1802649,22.996655 87.3710838,22.996655 C94.0798808,22.996655 94.5987787,23.9879423 94.5987787,31.3299902 L94.5987787,31.3299902 Z M83.8494263,30.6686972 L90.0393254,30.6686972 C90.0393254,26.7778944 89.8918214,26.4107268 87.0372244,26.4107268 C83.9607128,26.4107268 83.8494263,26.8144155 83.8494263,30.6686972 Z M21.3189343,29.5678465 L21.3189343,40.9650422 L25.9890156,40.2678803 L25.9890156,29.3839367 C25.9890156,23.7675113 24.8399332,22.996655 20.6512154,22.996655 C17.4640759,22.996655 15.9811341,23.6938169 15.0177487,25.3457451 C14.3506883,23.3266493 12.7189256,22.996655 10.1619705,22.996655 C7.71498483,22.996655 6.01012859,23.4733859 4.74975978,25.2361818 C4.52784532,23.6572958 3.89766091,23.2164338 2.59975761,23.2164338 L0.487289926,23.2164338 L0.116554482,23.5470803 L0.116554482,41.5715536 L4.78729428,41.5715536 L4.78729428,29.457631 C4.78729428,26.924631 5.89884211,26.5209423 8.08572028,26.5209423 C10.2732569,26.5209423 10.7177444,26.8144155 10.7177444,29.5678465 L10.7177444,41.5715536 L15.3878257,41.5715536 L15.3878257,29.3839367 C15.3878257,26.8509367 16.500032,26.5209423 18.6869102,26.5209423 C20.8369124,26.5209423 21.3189343,26.8144155 21.3189343,29.5678465 Z M19.2861451,52.731362 L19.2861451,53.9789493 L18.9529441,54.2730747 C17.6556993,54.1263381 16.0245951,54.0532959 14.2453283,54.0532959 C10.131021,54.0532959 9.72340953,54.4198113 9.72340953,59.7427634 C9.72340953,65.4694043 9.98285849,65.8000508 14.3566148,65.8000508 C16.357796,65.8000508 17.9520243,65.6898353 19.0642306,65.5059254 L19.4343076,65.8000508 L19.4343076,66.7913381 C19.4343076,68.5534818 18.3596357,69.3243381 13.355695,69.3243381 C5.75726463,69.3243381 5.01579374,68.0395775 5.01579374,59.9260211 C5.01579374,51.1524761 6.23862806,50.5283564 13.5782679,50.5283564 C18.0264348,50.5283564 19.2861451,50.8590029 19.2861451,52.731362 Z M26.1233496,52.5846254 C27.1236109,51.2626916 28.4583902,50.5283564 31.7199402,50.5283564 C36.7614154,50.5283564 37.6879248,51.5561648 37.6879248,57.136069 L37.6879248,69.1039071 L32.9809675,69.1039071 L32.9809675,57.2834578 C32.9809675,54.3467691 32.4989456,54.0532959 29.9037975,54.0532959 C27.3093079,54.0532959 26.1233496,54.4928535 26.1233496,56.9528113 L26.1233496,69.1039071 L21.4526098,69.1039071 L21.4526098,42.2687155 L26.1233496,41.5715536 L26.1233496,52.5846254 Z M54.8892592,56.5856437 L54.8892592,68.7732606 L54.5553998,69.1039071 L52.6279706,69.1039071 C50.8487038,69.1039071 50.4410924,68.5163085 50.2922714,66.7913381 C49.365762,68.5900029 47.8834788,69.3243381 45.0288817,69.3243381 C41.1740233,69.3243381 39.432291,68.2600085 39.432291,63.8911705 C39.432291,58.6047395 41.3221858,58.1638775 48.2910902,58.1638775 L50.2185194,58.1638775 L50.2185194,56.6221648 C50.2185194,54.382638 49.88466,54.0532959 46.363661,54.0532959 C44.3618213,54.0532959 42.6200891,54.1635114 41.4334722,54.3095958 L41.0627368,54.0161226 L41.0627368,52.6948409 C41.0627368,50.7859606 42.916414,50.5283564 47.3270464,50.5283564 C53.1837445,50.5283564 54.8892592,51.1896493 54.8892592,56.5856437 Z M48.2166797,61.2851282 C44.3618213,61.2851282 44.1392483,61.7618592 44.1392483,63.7444339 C44.1392483,65.7263564 44.6212703,66.0198296 46.8825589,66.0198296 C49.1431891,66.0198296 50.2185194,65.2124521 50.2185194,63.4868296 L50.2185194,61.2851282 L48.2166797,61.2851282 L48.2166797,61.2851282 Z M68.4352607,54.4928535 C64.0983803,54.4928535 62.1709511,54.6402423 62.1709511,57.1732423 L62.1709511,69.1039071 L57.5002113,69.1039071 L57.5002113,51.0794338 L57.8709468,50.7487874 L60.0209489,50.7487874 C61.2813177,50.7487874 61.9115021,51.0422606 62.1334166,52.6576676 C63.2824989,51.115955 64.8767272,50.5283564 68.1382772,50.5283564 L68.4352607,50.8590029 L68.4352607,54.4928535 M81.7593477,52.5474521 C82.0187966,51.0422606 82.722733,50.7487874 83.9462258,50.7487874 L86.059352,50.7487874 L86.4294289,51.0794338 L86.4294289,68.3695719 C86.4294289,76.1159607 85.3547571,77.179638 76.9773214,77.179638 C71.3431962,77.179638 70.4166869,76.6298649 70.4166869,74.5735958 L70.4166869,73.5823085 L70.7498878,73.2888353 C72.0471326,73.5092663 74.4197078,73.6560029 76.1620985,73.6560029 C81.3142017,73.6560029 81.7593477,73.2888353 81.7593477,68.9199972 L81.7593477,67.0848113 C80.9810008,68.5900029 79.534935,69.3243381 76.3846715,69.3243381 C70.4166869,69.3243381 69.6376815,68.0024043 69.6376815,59.9260211 C69.6376815,51.9233324 70.6761358,50.5283564 76.050812,50.5283564 C79.387431,50.5283564 80.7953038,50.8590029 81.7593477,52.5474521 L81.7593477,52.5474521 Z M74.3828318,59.9260211 C74.3828318,65.3591888 74.6791567,65.8000508 78.1264037,65.8000508 C80.6840173,65.8000508 81.7593477,65.396362 81.7593477,62.8627099 L81.7593477,56.7695536 C81.7593477,54.603069 81.1660392,54.0532959 77.9782412,54.0532959 C74.7535672,54.0532959 74.3828318,54.5300268 74.3828318,59.9260211 L74.3828318,59.9260211 Z M104.041667,58.8623437 L104.041667,60.9910029 L103.634056,61.3209972 L93.2923149,61.3209972 C93.2923149,65.175931 93.5517639,65.8000508 98.0743412,65.8000508 C100.446258,65.8000508 102.336811,65.6898353 103.560304,65.5059254 L103.893505,65.8365719 L103.893505,66.8285114 C103.893505,68.7002184 102.52185,69.3243381 97.2584598,69.3243381 C89.511867,69.3243381 88.5846991,68.149793 88.5846991,59.9260211 C88.5846991,51.3729071 89.6231535,50.5283564 96.8139724,50.5283564 C103.522769,50.5283564 104.041667,51.5196437 104.041667,58.8623437 L104.041667,58.8623437 Z M93.2923149,58.2010507 L99.482214,58.2010507 C99.482214,54.3095958 99.33471,53.9430804 96.4801129,53.9430804 C93.4036014,53.9430804 93.2923149,54.3467691 93.2923149,58.2010507 L93.2923149,58.2010507 Z M117.131328,54.4928535 C112.794448,54.4928535 110.867019,54.6402423 110.867019,57.1732423 L110.867019,69.1039071 L106.196937,69.1039071 L106.196937,51.0794338 L106.567673,50.7487874 L108.717675,50.7487874 C109.978044,50.7487874 110.608228,51.0422606 110.830143,52.6576676 C111.979225,51.115955 113.573453,50.5283564 116.835003,50.5283564 L117.131328,50.8590029 L117.131328,54.4928535" id="Fill-1" sketch:type="MSShapeGroup"></path>
                <g id="telefon" transform="translate(100.542691, 0.000000)" sketch:type="MSShapeGroup">
                    <path d="M25.2243042,6.50043925 L25.2243042,3.17246318 C25.2243042,1.29932615 23.6863049,-0.218987554 21.7903173,-0.218987554 L21.3102147,-0.218987554 C19.4135845,-0.218987554 17.8762278,1.29932615 17.8762278,3.17246318 L17.8762278,5.55530166 L8.70736062,5.55530166 C4.07472396,5.55530166 -0.0983767384,8.13173784 -0.0983767384,13.1246541 L-0.0983767384,38.3018753 C-0.0983767384,40.5126975 1.26416346,41.8583602 3.50271416,41.8583602 L18.0600422,41.8583602 C22.2202887,41.8583602 25.2243042,38.8921896 25.2243042,34.7834753 L25.2243042,6.50043925 L25.2243042,6.50043925 Z M23.9440306,34.8152126 C23.9440306,38.2263405 21.5133103,40.6263171 18.0600422,40.6263171 L3.50271416,40.6263171 C1.97178457,40.6263171 1.18189688,39.8462137 1.18189688,38.3342474 L1.18189688,13.1563914 C1.18189688,9.11115174 4.65187542,6.85208883 8.85903963,6.85208883 L19.1571441,6.85208883 L19.1571441,3.20483525 C19.1571441,2.02991941 20.1212056,1.07779961 21.3102147,1.07779961 L21.7903173,1.07779961 C22.9793265,1.07779961 23.9433879,2.02991941 23.9433879,3.20483525 L23.9440306,34.8152126 L23.9440306,34.8152126 Z" id="Fill-1"></path>
                    <path d="M3.00397303,23.0660543 L3.00397303,38.3342474 C3.00397303,38.6179791 3.05217611,38.7601623 3.03867925,38.7601623 C3.06952921,38.77857 3.21349573,38.8268107 3.50335687,38.8268107 L18.0600422,38.8268107 C20.4894771,38.8268107 22.1213118,37.2145545 22.1213118,34.8152126 L22.1213118,13.3557018 L3.00397303,23.0660543 L3.00397303,23.0660543 Z M18.7824456,32.4006368 L14.4589513,32.4006368 L14.4589513,36.669942 L10.6669762,36.669942 L10.6669762,32.4006368 L6.34348193,32.4006368 L6.34348193,28.6549975 L10.6669762,28.6549975 L10.6669762,24.3850576 L14.4589513,24.3850576 L14.4589513,28.6549975 L18.7824456,28.6549975 L18.7824456,32.4006368 L18.7824456,32.4006368 Z" id="Fill-2"></path>
                </g>
            </g>
        </g>
    </g>
</svg>