<?xml version="1.0" encoding="UTF-8" standalone="no"?>
<svg width="100px" height="100px" viewBox="0 0 100 100" version="1.1" xmlns="http://www.w3.org/2000/svg" xmlns:xlink="http://www.w3.org/1999/xlink" xmlns:sketch="http://www.bohemiancoding.com/sketch/ns">
    <!-- Generator: Sketch 3.1.1 (8761) - http://www.bohemiancoding.com/sketch -->
    <title>mobilPlus-clients-advetisers-6</title>
    <desc>Created with Sketch.</desc>
    <defs></defs>
    <g id="utilities" stroke="none" stroke-width="1" fill="none" fill-rule="evenodd" sketch:type="MSPage">
        <g id="mobilPlus-clients-advetisers-6" sketch:type="MSArtboardGroup">
            <rect id="Rectangle-52" fill="#979797" sketch:type="MSShapeGroup" x="0" y="0" width="100" height="100"></rect>
            <g id="Imported-Layers" sketch:type="MSLayerGroup" transform="translate(8.000000, 29.000000)" fill="#FFFFFF">
                <path d="M84.8068639,21.4215882 C84.8068639,33.2435529 65.8302367,42.8274941 42.4245562,42.8274941 C19.0173669,42.8274941 0.0412426036,33.2435529 0.0412426036,21.4215882 C0.0412426036,9.59962353 19.0173669,0.0161882353 42.4245562,0.0161882353 C65.8302367,0.0161882353 84.8068639,9.59962353 84.8068639,21.4215882 L84.8068639,21.4215882 Z M42.4245562,1.70128235 C19.9352663,1.70128235 1.70301775,10.5304471 1.70301775,21.4215882 C1.70301775,32.3127294 19.9352663,41.1413882 42.4245562,41.1413882 C64.9133432,41.1413882 83.1445858,32.3127294 83.1445858,21.4215882 C83.1445858,10.5304471 64.9133432,1.70128235 42.4245562,1.70128235 L42.4245562,1.70128235 Z" id="Fill-1" sketch:type="MSShapeGroup"></path>
                <path d="M82.0908876,21.4215882 C82.0908876,31.7269176 64.3314201,40.0810588 42.4245562,40.0810588 C20.5166864,40.0810588 2.75772189,31.7269176 2.75772189,21.4215882 C2.75772189,11.1167647 20.5166864,2.76211765 42.4245562,2.76211765 C64.3314201,2.76211765 82.0908876,11.1167647 82.0908876,21.4215882 L82.0908876,21.4215882 Z M67.8460947,12.6855059 L61.0430769,12.6855059 L60.2142012,15.0682118 L64.6181065,15.0682118 L59.5950592,16.8175529 L59.2631065,17.7837882 L66.992071,15.2346471 L67.8460947,12.6855059 L67.8460947,12.6855059 Z M24.4709467,16.8676353 L21.699645,16.8676353 C21.699645,16.8676353 24.2682544,9.98156471 24.4744675,9.46151765 C24.8406213,8.53878824 25.0594083,8.60252941 25.0594083,8.60252941 L21.2318935,8.60252941 C21.7051775,8.83068235 21.2857101,9.72963529 21.2857101,9.72963529 C21.2857101,9.72963529 18.2201775,18.3164824 18.0064201,18.7454706 C17.7931657,19.1749647 17.6327219,19.2290941 17.6327219,19.2290941 L24.261716,19.2290941 L25.1886686,16.6860235 C25.1086982,16.9283412 24.4709467,16.8676353 24.4709467,16.8676353 L24.4709467,16.8676353 Z M36.0983432,19.2179647 L39.2202071,19.2179647 C39.2202071,19.2179647 39.0064497,18.8997647 39.1402367,18.5512118 C39.3248225,18.0670824 40.9810651,13.5328588 40.9810651,13.5328588 L41.7013018,19.2179647 L44.5294379,19.2179647 L48.2367456,9.10537647 C48.2367456,9.10537647 48.3886391,8.63085882 48.595355,8.63085882 L45.5901775,8.62225882 C45.5901775,8.62225882 45.6766864,8.97131765 45.5690533,9.23943529 C45.463432,9.50805882 43.7548817,14.0964118 43.7548817,14.0964118 L43.0879586,8.62225882 L39.8604734,8.62225882 C39.8604734,8.62225882 40.0274556,8.89037647 39.9203254,9.18530588 C39.8333136,9.42458824 36.4986982,18.6311412 36.4986982,18.6311412 C36.4986982,18.6311412 36.2854438,19.2179647 36.0983432,19.2179647 L36.0983432,19.2179647 Z M50.3723077,8.62478824 C50.3723077,8.62478824 50.6388757,9.05428235 50.2913314,10.0468235 C49.9442899,11.0398706 47.223787,18.4191765 47.223787,18.4191765 C47.223787,18.4191765 47.0095266,19.1132471 46.7168047,19.2478118 L50.9854142,19.2432588 C50.9854142,19.2432588 56.160355,19.4354941 57.7612722,13.9643765 C57.7612722,13.9643765 59.7892012,8.57065882 53.9196746,8.62478824 L50.3723077,8.62478824 L50.3723077,8.62478824 Z M50.8249704,16.7998471 C50.8249704,16.7998471 50.8390533,16.7952941 51.3183728,16.7952941 C52.044645,16.7952941 53.3895562,16.6344235 54.2933728,14.4206824 C55.7791124,10.7828824 53.7064201,10.9058118 53.7064201,10.9058118 L52.9057101,10.9058118 L50.8249704,16.7998471 L50.8249704,16.7998471 Z M12.8621598,27.7860941 L19.6651775,27.7860941 L20.4930473,25.4028824 L16.0901479,25.4028824 L21.1126923,23.6540471 L21.4451479,22.6883176 L13.7161834,25.2374588 L12.8621598,27.7860941 L12.8621598,27.7860941 Z M24.783787,32.1812 C24.6766568,32.1812 24.6766568,31.8351765 24.6766568,31.8351765 L25.9280178,28.4953412 C25.9280178,28.4953412 27.4866864,31.5721176 27.5938166,31.7871176 C27.7004438,32.0016118 27.6466272,32.1806941 27.6466272,32.1806941 L31.3755621,32.1806941 C31.0194675,32.1806941 30.6528107,31.5007882 30.6528107,31.5007882 L28.7963905,28.1498235 C31.3931657,28.1498235 32.2235503,25.5612235 32.2235503,25.5612235 C33.5040828,21.4468824 29.1942308,21.5541294 29.1942308,21.5541294 L24.783787,21.5541294 C25.1041716,21.9122941 24.8547041,22.6635294 24.8547041,22.6635294 C24.8547041,22.6635294 22.1155917,30.5401176 21.9028402,31.1486941 C21.6890828,31.7562588 21.2977811,32.1812 21.2977811,32.1812 L24.783787,32.1812 L24.783787,32.1812 Z M27.4268343,23.9975412 L26.7045858,26.1343882 L27.3800592,26.1343882 C27.3800592,26.1343882 28.6968047,26.2512471 29.1826627,25.198 C29.1826627,25.198 29.7510059,23.9919765 28.1626627,23.9919765 C27.8146154,23.9919765 27.4268343,23.9975412 27.4268343,23.9975412 L27.4268343,23.9975412 Z M63.3692604,32.2201529 C63.1026923,32.2262235 63.288284,31.5695882 63.288284,31.5695882 L64.4048521,28.5342941 C64.4048521,28.5342941 65.9097041,31.6115765 66.0153254,31.8265765 C66.1219527,32.0410706 66.069142,32.2201529 66.069142,32.2201529 L69.930858,32.2201529 C69.5747633,32.2201529 69.1829586,31.5397412 69.1829586,31.5397412 L67.3265385,28.1887765 C69.9243195,28.1887765 70.7054142,25.6932588 70.7054142,25.6932588 C72.0694379,21.3851647 67.7253846,21.5935882 67.7253846,21.5935882 L63.3501479,21.5935882 C63.6710355,21.9517529 63.422071,22.7029882 63.422071,22.7029882 C63.422071,22.7029882 60.568284,30.6094235 60.3545266,31.2174941 C60.1412722,31.8265765 59.7318639,32.2145882 59.7318639,32.2145882 L63.3692604,32.2201529 L63.3692604,32.2201529 Z M65.911716,26.1728353 C65.911716,26.1728353 67.2184024,26.2719882 67.6187574,25.2430235 C68.0905325,24.0299176 66.9126036,24.0622941 66.9126036,24.0622941 L65.9469231,24.0622941 L65.2357396,26.1728353 L65.911716,26.1728353 L65.911716,26.1728353 Z M36.8351775,32.4442588 C40.6848225,32.4442588 42.9752959,28.6466 42.9752959,25.9219176 C42.9752959,23.0641882 41.807426,21.2804471 39.1402367,21.2804471 C35.7372189,21.2804471 33.5171598,23.8781529 32.9442899,27.1066941 C32.4176923,30.0762235 34.085,32.4442588 36.8351775,32.4442588 L36.8351775,32.4442588 Z M37.0776036,29.9330588 C38.0377515,30.1116353 39.0934615,29.4165529 39.6447041,27.1957294 C40.4806213,23.8351529 38.9400592,23.8073294 38.6584024,23.7729294 C37.8068935,23.6682118 36.6697041,24.6551882 36.2074852,26.7131176 C35.9962426,27.6525412 35.7714201,29.6892235 37.0776036,29.9330588 L37.0776036,29.9330588 Z M43.8891716,21.5935882 C43.8891716,21.5935882 44.1537278,21.7367529 44.1537278,22.4161529 L44.1537278,31.6115765 C44.1537278,31.6115765 44.1170118,32.1149294 43.9284024,32.2201529 L46.7882249,32.2201529 C46.7882249,32.2201529 46.7882249,32.0046471 47.0718935,31.6469882 C47.357071,31.2893294 53.2970118,23.2756471 53.2970118,23.2756471 C53.2970118,23.2756471 54.6519822,21.5935882 55.007071,21.5935882 L50.9139941,21.5935882 C50.9139941,21.5935882 51.2343787,21.8085882 50.9854142,22.2016588 C50.7364497,22.5957412 47.0975444,28.0693882 47.0975444,28.0693882 L47.1438166,22.5486941 C47.1438166,22.5486941 47.1367751,21.6628941 47.490355,21.5885294 L43.8891716,21.5935882 L43.8891716,21.5935882 Z M61.1803846,24.1007412 L62.1058284,21.5910588 L55.1695266,21.5920706 C55.1695266,21.5920706 55.4184911,21.8126353 55.0991124,22.7070353 C54.7782249,23.6019412 51.9681953,31.2210353 51.9681953,31.2210353 C51.9681953,31.2210353 51.4702663,32.2221765 51.3289349,32.2221765 C51.1855917,32.2221765 58.4774852,32.2221765 58.4774852,32.2221765 L59.3315089,29.6826471 C59.3315089,29.6826471 59.2253846,29.8253059 58.5494083,29.8253059 L55.5256213,29.8253059 L56.1663905,28.1083412 L58.5131953,28.1083412 C58.5131953,28.1083412 59.0116272,28.0724235 59.1182544,28.2160941 L60.0784024,25.5010235 C60.0784024,25.5010235 60.0079882,25.7468824 59.366716,25.7468824 L57.0903254,25.7468824 L57.7668047,23.8513412 L60.6477515,23.8513412 C60.6477515,23.8513412 61.0390533,23.7967059 61.1803846,24.1007412 L61.1803846,24.1007412 Z M25.0216864,19.2275765 L28.4433136,19.2275765 C28.4433136,19.2275765 28.4327515,18.9635059 28.5217751,18.7920118 C28.6847337,18.4819059 29.1092308,17.7337059 29.1092308,17.7337059 L32.5529882,17.7337059 L32.5595266,18.6665529 C32.5595266,18.6665529 32.5771302,18.9888 32.3236391,19.2366824 L35.7387278,19.2366824 C35.7387278,19.2366824 35.4852367,19.0935176 35.4384615,18.6711059 L35.0099408,9.33302353 C35.0099408,9.33302353 34.9918343,8.73658824 35.2739941,8.61062353 L31.8860651,8.61062353 C31.8860651,8.61062353 32.1234615,8.90555294 31.6697929,9.57635294 C31.2171302,10.2476588 25.4290828,18.8785176 25.4290828,18.8785176 C25.4290828,18.8785176 25.3139053,19.1000941 25.0216864,19.2275765 L25.0216864,19.2275765 Z M32.4871006,12.2246471 L30.5859172,15.3368353 L32.5142604,15.3368353 L32.4871006,12.2246471 L32.4871006,12.2246471 Z" id="Fill-2" sketch:type="MSShapeGroup"></path>
            </g>
        </g>
    </g>
</svg>