<?xml version="1.0" encoding="UTF-8" standalone="no"?>
<svg width="223px" height="134px" viewBox="0 0 223 134" version="1.1" xmlns="http://www.w3.org/2000/svg" xmlns:xlink="http://www.w3.org/1999/xlink" xmlns:sketch="http://www.bohemiancoding.com/sketch/ns">
    <!-- Generator: Sketch 3.1.1 (8761) - http://www.bohemiancoding.com/sketch -->
    <title>mobilPlus-brandBig-eng</title>
    <desc>Created with Sketch.</desc>
    <defs></defs>
    <g id="utilities" stroke="none" stroke-width="1" fill="none" fill-rule="evenodd" sketch:type="MSPage">
        <g id="mobilPlus-brandBig-eng" sketch:type="MSArtboardGroup">
            <g id="mobile-charger-logo-big-2" sketch:type="MSLayerGroup">
                <path d="M79.2967617,57.4719008 C79.2967617,71.8652893 77.2612694,74.1446281 64.2031088,74.1446281 C51.2102332,74.1446281 49.1759067,71.8652893 49.1759067,57.4719008 C49.1759067,43.0785124 51.2102332,40.7991736 64.2031088,40.7991736 C77.2612694,40.7991736 79.2967617,43.0785124 79.2967617,57.4719008 L79.2967617,57.4719008 Z M57.5755181,57.4719008 C57.5755181,67.046281 58.1665803,67.8932231 64.2031088,67.8932231 C70.3060881,67.8932231 70.8306995,67.046281 70.8306995,57.4719008 C70.8306995,47.8975207 70.3060881,47.0517355 64.2031088,47.0517355 C58.1665803,47.0517355 57.5755181,47.8975207 57.5755181,57.4719008 L57.5755181,57.4719008 Z M91.059715,44.3813223 C92.5682642,42.0360331 94.9966321,40.7991736 100.575,40.7991736 C111.205959,40.7991736 112.452202,42.8829752 112.452202,57.4719008 C112.452202,71.9300826 110.417876,74.1446281 100.772021,74.1446281 C94.7343264,74.1446281 92.765285,73.4932231 91.059715,70.6272727 C90.6003886,73.2328926 89.484715,73.7535537 87.1880829,73.7535537 L83.3817358,73.7535537 L82.7906736,73.1680992 L82.7906736,26.1454545 L91.059715,24.907438 L91.059715,44.3813223 L91.059715,44.3813223 Z M91.059715,52.2618182 L91.059715,63.0730579 C91.059715,66.8507438 92.1089378,67.8932231 97.6873057,67.8932231 C103.462694,67.8932231 104.052591,67.046281 104.052591,57.4719008 C104.052591,47.8327273 103.527979,47.0517355 97.425,47.0517355 C92.8305699,47.0517355 91.059715,47.7679339 91.059715,52.2618182 L91.059715,52.2618182 Z M115.53342,26.4057851 L124.458808,26.4057851 L124.458808,33.7644628 L115.53342,33.7644628 L115.53342,26.4057851 Z M115.795725,41.1890909 L124.063601,41.1890909 L124.063601,73.7535537 L115.795725,73.7535537 L115.795725,41.1890909 Z M128.328109,73.7535537 L128.328109,26.1454545 L136.59715,24.907438 L136.59715,73.7535537 L128.328109,73.7535537 M167.476943,55.5836364 L167.476943,59.3601653 L166.755311,59.9467769 L148.446373,59.9467769 C148.446373,66.7859504 148.905699,67.8932231 156.912435,67.8932231 C161.111658,67.8932231 164.458679,67.697686 166.624741,67.371405 L167.215803,67.9580165 L167.215803,69.7166942 C167.215803,73.0373554 164.787435,74.1446281 155.468005,74.1446281 C141.753497,74.1446281 140.113212,72.0608264 140.113212,57.4719008 C140.113212,42.2963636 141.950518,40.7991736 154.681088,40.7991736 C166.55829,40.7991736 167.476943,42.5578512 167.476943,55.5836364 L167.476943,55.5836364 Z M148.446373,54.4104132 L159.404922,54.4104132 C159.404922,47.5076033 159.143782,46.8561983 154.090026,46.8561983 C148.643394,46.8561983 148.446373,47.5723967 148.446373,54.4104132 Z M37.7428756,52.4573554 L37.7428756,72.6775207 L46.0107513,71.4406612 L46.0107513,52.1310744 C46.0107513,42.1667769 43.9764249,40.7991736 36.5607513,40.7991736 C30.9182642,40.7991736 28.2928756,42.0360331 26.5873057,44.9667769 C25.4063472,41.3846281 22.517487,40.7991736 17.9906736,40.7991736 C13.6585492,40.7991736 10.640285,41.6449587 8.40893782,44.7723967 C8.01606218,41.9712397 6.9003886,41.1890909 4.60259067,41.1890909 L0.862694301,41.1890909 L0.20634715,41.7757025 L0.20634715,73.7535537 L8.4753886,73.7535537 L8.4753886,52.2618182 C8.4753886,47.7679339 10.4432642,47.0517355 14.3148964,47.0517355 C18.1876943,47.0517355 18.9746114,47.5723967 18.9746114,52.4573554 L18.9746114,73.7535537 L27.242487,73.7535537 L27.242487,52.1310744 C27.242487,47.6371901 29.2115285,47.0517355 33.0831606,47.0517355 C36.8895078,47.0517355 37.7428756,47.5723967 37.7428756,52.4573554 Z M34.1440415,93.552562 L34.1440415,95.7659504 L33.5541451,96.2877686 C31.257513,96.027438 28.3698187,95.8978512 25.2198187,95.8978512 C17.9358808,95.8978512 17.2142487,96.5480992 17.2142487,105.991736 C17.2142487,116.15157 17.6735751,116.738182 25.4168394,116.738182 C28.959715,116.738182 31.7821244,116.542645 33.7511658,116.216364 L34.4063472,116.738182 L34.4063472,118.49686 C34.4063472,121.62314 32.5037565,122.990744 23.6448187,122.990744 C10.1926166,122.990744 8.87992228,120.711405 8.87992228,106.31686 C8.87992228,90.751405 11.0448187,89.6441322 24.0388601,89.6441322 C31.9138601,89.6441322 34.1440415,90.2307438 34.1440415,93.552562 Z M46.2485751,93.2922314 C48.0194301,90.9469421 50.382513,89.6441322 56.1567358,89.6441322 C65.0821244,89.6441322 66.7224093,91.4676033 66.7224093,101.367107 L66.7224093,122.599669 L58.3892487,122.599669 L58.3892487,101.628595 C58.3892487,96.4185124 57.5358808,95.8978512 52.9414508,95.8978512 C48.3481865,95.8978512 46.2485751,96.677686 46.2485751,101.041983 L46.2485751,122.599669 L37.9795337,122.599669 L37.9795337,74.9904132 L46.2485751,73.7535537 L46.2485751,93.2922314 Z M97.1755181,100.390579 L97.1755181,122.013058 L96.584456,122.599669 L93.1721503,122.599669 C90.0221503,122.599669 89.3005181,121.55719 89.0370466,118.49686 C87.3967617,121.687934 84.7725389,122.990744 79.7187824,122.990744 C72.894171,122.990744 69.8106218,121.102479 69.8106218,113.35157 C69.8106218,103.972727 73.1564767,103.190579 85.494171,103.190579 L88.9064767,103.190579 L88.9064767,100.455372 C88.9064767,96.4821488 88.3154145,95.8978512 82.0818653,95.8978512 C78.5378238,95.8978512 75.4542746,96.0933884 73.3534974,96.352562 L72.6971503,95.8319008 L72.6971503,93.4877686 C72.6971503,90.101157 75.978886,89.6441322 83.7874352,89.6441322 C94.1560881,89.6441322 97.1755181,90.8173554 97.1755181,100.390579 Z M85.3624352,108.728099 C78.5378238,108.728099 78.1437824,109.573884 78.1437824,113.09124 C78.1437824,116.607438 78.9971503,117.128099 83.0005181,117.128099 C87.0027202,117.128099 88.9064767,115.695702 88.9064767,112.634215 L88.9064767,108.728099 L85.3624352,108.728099 L85.3624352,108.728099 Z M121.157254,96.677686 C113.479275,96.677686 110.066969,96.9391736 110.066969,101.433058 L110.066969,122.599669 L101.797927,122.599669 L101.797927,90.6218182 L102.454275,90.0352066 L106.260622,90.0352066 C108.491969,90.0352066 109.607642,90.5558678 110.000518,93.4218182 C112.034845,90.6866116 114.857254,89.6441322 120.631477,89.6441322 L121.157254,90.2307438 L121.157254,96.677686 M144.746114,93.226281 C145.20544,90.5558678 146.451684,90.0352066 148.617746,90.0352066 L152.358808,90.0352066 L153.01399,90.6218182 L153.01399,121.29686 C153.01399,135.04 151.111399,136.927107 136.280052,136.927107 C126.30544,136.927107 124.665155,135.951736 124.665155,132.303636 L124.665155,130.544959 L125.255052,130.024298 C127.551684,130.415372 131.752073,130.675702 134.836788,130.675702 C143.958031,130.675702 144.746114,130.024298 144.746114,122.273388 L144.746114,119.017521 C143.368135,121.687934 140.808031,122.990744 135.230829,122.990744 C124.665155,122.990744 123.28601,120.645455 123.28601,106.31686 C123.28601,92.1190083 125.124482,89.6441322 134.639767,89.6441322 C140.546891,89.6441322 143.039378,90.2307438 144.746114,93.226281 L144.746114,93.226281 Z M131.686788,106.31686 C131.686788,115.956033 132.211399,116.738182 138.314378,116.738182 C142.842358,116.738182 144.746114,116.021983 144.746114,111.526942 L144.746114,100.71686 C144.746114,96.8732231 143.695725,95.8978512 138.052073,95.8978512 C132.343135,95.8978512 131.686788,96.7436364 131.686788,106.31686 L131.686788,106.31686 Z M184.19456,104.429752 L184.19456,108.206281 L183.472927,108.791736 L165.16399,108.791736 C165.16399,115.630909 165.623316,116.738182 173.630052,116.738182 C177.829275,116.738182 181.176295,116.542645 183.342358,116.216364 L183.932254,116.802975 L183.932254,118.56281 C183.932254,121.883471 181.503886,122.990744 172.185622,122.990744 C158.471114,122.990744 156.829663,120.906942 156.829663,106.31686 C156.829663,91.1424793 158.668135,89.6441322 171.398705,89.6441322 C183.275907,89.6441322 184.19456,91.4028099 184.19456,104.429752 L184.19456,104.429752 Z M165.16399,103.256529 L176.122539,103.256529 C176.122539,96.352562 175.861399,95.702314 170.807642,95.702314 C165.36101,95.702314 165.16399,96.4185124 165.16399,103.256529 L165.16399,103.256529 Z M207.368394,96.677686 C199.690415,96.677686 196.278109,96.9391736 196.278109,101.433058 L196.278109,122.599669 L188.010233,122.599669 L188.010233,90.6218182 L188.66658,90.0352066 L192.472927,90.0352066 C194.704275,90.0352066 195.819948,90.5558678 196.212824,93.4218182 C198.24715,90.6866116 201.06956,89.6441322 206.843782,89.6441322 L207.368394,90.2307438 L207.368394,96.677686" id="Fill-1" fill="#FFFFFF" sketch:type="MSShapeGroup"></path>
                <g id="telefon" transform="translate(178.000000, 0.000000)" sketch:type="MSShapeGroup">
                    <path d="M44.6569123,11.5326577 L44.6569123,5.62837838 C44.6569123,2.30518018 41.9340501,-0.388513514 38.5774085,-0.388513514 L37.7274386,-0.388513514 C34.3696591,-0.388513514 31.6479348,2.30518018 31.6479348,5.62837838 L31.6479348,9.85585586 L15.4154436,9.85585586 C7.21385965,9.85585586 -0.174165414,14.4268018 -0.174165414,23.2849099 L-0.174165414,67.9527027 C-0.174165414,71.875 2.23806516,74.2623874 6.20117794,74.2623874 L31.9733584,74.2623874 C39.3386266,74.2623874 44.6569123,69 44.6569123,61.7105856 L44.6569123,11.5326577 L44.6569123,11.5326577 Z M42.3903258,61.7668919 C42.3903258,67.8186937 38.0869975,72.0765766 31.9733584,72.0765766 L6.20117794,72.0765766 C3.49083208,72.0765766 2.09242105,70.6925676 2.09242105,68.0101351 L2.09242105,23.3412162 C2.09242105,16.1644144 8.23564411,12.1565315 15.6839749,12.1565315 L33.9156591,12.1565315 L33.9156591,5.68581081 C33.9156591,3.60135135 35.6224261,1.91216216 37.7274386,1.91216216 L38.5774085,1.91216216 C40.6824211,1.91216216 42.389188,3.60135135 42.389188,5.68581081 L42.3903258,61.7668919 L42.3903258,61.7668919 Z" id="Fill-1" fill="#FFFFFF"></path>
                    <path d="M5.31821053,40.9222973 L5.31821053,68.0101351 C5.31821053,68.5135135 5.40354887,68.7657658 5.37965414,68.7657658 C5.43427068,68.7984234 5.68914787,68.884009 6.20231579,68.884009 L31.9733584,68.884009 C36.274411,68.884009 39.1633985,66.0236486 39.1633985,61.7668919 L39.1633985,23.6948198 L5.31821053,40.9222973 L5.31821053,40.9222973 Z M33.2522957,57.4831081 L25.598015,57.4831081 L25.598015,65.0574324 L18.8847318,65.0574324 L18.8847318,57.4831081 L11.2304511,57.4831081 L11.2304511,50.8378378 L18.8847318,50.8378378 L18.8847318,43.2623874 L25.598015,43.2623874 L25.598015,50.8378378 L33.2522957,50.8378378 L33.2522957,57.4831081 L33.2522957,57.4831081 Z" id="Fill-2" fill="#F16434"></path>
                </g>
            </g>
        </g>
    </g>
</svg>