<?xml version="1.0" encoding="UTF-8" standalone="no"?>
<svg width="71px" height="71px" viewBox="0 0 71 71" version="1.1" xmlns="http://www.w3.org/2000/svg" xmlns:xlink="http://www.w3.org/1999/xlink" xmlns:sketch="http://www.bohemiancoding.com/sketch/ns">
    <!-- Generator: Sketch 3.1.1 (8761) - http://www.bohemiancoding.com/sketch -->
    <title>mobilPlus-phoneIcon</title>
    <desc>Created with Sketch.</desc>
    <defs></defs>
    <g id="utilities" stroke="none" stroke-width="1" fill="none" fill-rule="evenodd" sketch:type="MSPage">
        <g id="mobilPlus-phoneIcon" sketch:type="MSArtboardGroup">
            <g id="Oval-3-+-Imported-Layers-2" sketch:type="MSLayerGroup" transform="translate(1.000000, 1.000000)">
                <circle id="Oval-3" stroke="#D8D8D8" stroke-width="2" sketch:type="MSShapeGroup" cx="34.5" cy="34.5" r="34.5"></circle>
                <path d="M45.367,9 L24.042,9 C22.369,9 21,10.368 21,12.041 L21,56.323 C21,57.996 22.369,59.365 24.042,59.365 L45.367,59.365 C47.039,59.365 48.408,57.996 48.408,56.323 L48.408,12.041 C48.408,10.368 47.039,9 45.367,9 L45.367,9 Z M29.534,11.329 L39.875,11.329 C40.288,11.329 40.627,11.667 40.627,12.081 C40.627,12.495 40.288,12.833 39.875,12.833 L29.534,12.833 C29.12,12.833 28.782,12.495 28.782,12.081 C28.782,11.667 29.12,11.329 29.534,11.329 L29.534,11.329 Z M34.704,58.022 C33.757,58.022 32.982,57.247 32.982,56.3 C32.982,55.352 33.757,54.577 34.704,54.577 C35.651,54.577 36.427,55.352 36.427,56.3 C36.427,57.247 35.651,58.022 34.704,58.022 L34.704,58.022 Z M23.532,15.177 L45.877,15.177 L45.877,53.186 L23.532,53.186 L23.532,15.177 Z" id="Imported-Layers-2" fill="#D8D8D8" sketch:type="MSShapeGroup"></path>
            </g>
        </g>
    </g>
</svg>