<?xml version="1.0" encoding="UTF-8" standalone="no"?>
<svg width="225px" height="151px" viewBox="0 0 225 151" version="1.1" xmlns="http://www.w3.org/2000/svg" xmlns:xlink="http://www.w3.org/1999/xlink" xmlns:sketch="http://www.bohemiancoding.com/sketch/ns">
    <!-- Generator: Sketch 3.1.1 (8761) - http://www.bohemiancoding.com/sketch -->
    <title>mobilPlus-howDoesGfx-3</title>
    <desc>Created with Sketch.</desc>
    <defs></defs>
    <g id="utilities" stroke="none" stroke-width="1" fill="none" fill-rule="evenodd" sketch:type="MSPage">
        <g id="mobilPlus-howDoesGfx-3" sketch:type="MSArtboardGroup">
            <rect id="Rectangle-88" stroke="#FFFFFF" stroke-width="2" sketch:type="MSShapeGroup" x="1" y="69" width="223" height="80"></rect>
            <path d="M167.289253,114.933826 L159.8764,114.918837 L157.59173,112.134816 L155.315668,114.910159 L152.980123,112.134816 L150.710323,114.899904 L148.366951,112.134816 L146.103413,114.894381 L144.487159,114.894381 C142.009164,114.894381 140,112.86928 140,110.371629 L140,109.739722 C140,107.241281 142.009164,105.216969 144.487159,105.216969 L167.295514,105.216969 C169.076133,101.581727 172.79156,99.0817088 177.086177,99.0817088 C183.112887,99.0817088 188,104.00601 188,110.081314 C188,116.156618 183.112887,121.081709 177.086177,121.081709 C172.786864,121.081709 169.067523,118.576169 167.289253,114.933826 L167.289253,114.933826 Z M175.718819,110.081314 C175.718819,112.267351 177.477522,114.039216 179.646355,114.039216 C181.815187,114.039216 183.572325,112.267351 183.572325,110.081314 C183.572325,107.895278 181.815187,106.124202 179.646355,106.124202 C177.477522,106.124202 175.718819,107.895278 175.718819,110.081314 L175.718819,110.081314 Z" id="Fill-1" fill="#FFFFFF" sketch:type="MSShapeGroup"></path>
            <path d="M80.2319585,88.1219204 L43.8165389,88.1219204 C41.7090155,88.1219204 40,89.8381957 40,91.9554627 L40,125.289169 C40,127.406436 41.7090155,129.12192 43.8165389,129.12192 L80.2319585,129.12192 C82.3402694,129.12192 84.049285,127.406436 84.049285,125.289169 L84.049285,91.9554627 C84.049285,89.8381957 82.3402694,88.1219204 80.2319585,88.1219204 L80.2319585,88.1219204 Z M82.5946528,125.288378 C82.5946528,126.598916 81.5369534,127.661109 80.2319585,127.661109 L43.8173264,127.661109 C42.5123316,127.661109 41.4546321,126.598916 41.4546321,125.288378 L41.4546321,91.9554627 C41.4546321,90.6457152 42.5123316,89.5835226 43.8173264,89.5835226 L80.2319585,89.5835226 C81.5369534,89.5835226 82.5946528,90.6457152 82.5946528,91.9554627 L82.5946528,125.288378 L82.5946528,125.288378 Z" id="Fill-2" fill="#FFFFFF" sketch:type="MSShapeGroup"></path>
            <path d="M51.0077927,100.044247 C48.6191088,100.044247 46.6761865,101.989382 46.6761865,104.379997 C46.6761865,106.770613 48.6191088,108.716536 51.0077927,108.716536 C53.3949016,108.716536 55.3378238,106.770613 55.3378238,104.379997 C55.3378238,101.989382 53.3949016,100.044247 51.0077927,100.044247 L51.0077927,100.044247 Z M51.0077927,107.41242 C49.3373679,107.41242 47.9788187,106.052324 47.9788187,104.379997 C47.9788187,102.708459 49.3373679,101.348363 51.0077927,101.348363 C52.6766425,101.348363 54.0351917,102.708459 54.0351917,104.379997 C54.0351917,106.052324 52.6766425,107.41242 51.0077927,107.41242 L51.0077927,107.41242 Z" id="Fill-4" fill="#FFFFFF" sketch:type="MSShapeGroup"></path>
            <path d="M99.6070466,105.702532 L116.41261,105.702532 L113.714932,103.441942 L113.714932,98.0817088 L125.607047,108.06008 L113.714932,118.081709 L113.714932,112.722968 L116.388118,110.46014 L99.6070466,110.46014 L99.6070466,105.702532" id="Fill-5" fill="#FFFFFF" sketch:type="MSShapeGroup"></path>
            <path d="M77.46375,94.955555 L73.6876875,94.955555 C72.5515,94.955555 71.6273906,95.8840165 71.6273906,97.025555 L71.6273906,121.093247 C71.6273906,122.234017 72.5515,123.162478 73.6876875,123.162478 L77.46375,123.162478 C78.5999375,123.162478 79.5240469,122.234017 79.5240469,121.093247 L79.5240469,97.025555 C79.5240469,95.8840165 78.5999375,94.955555 77.46375,94.955555" id="Fill-4" fill="#FFFFFF" sketch:type="MSShapeGroup"></path>
        </g>
        <path d="M112.46,-0.0205823648 C102.732,-0.0205823648 100.428,0.555417635 100.428,2.41141764 L100.428,3.49941764 L100.748,3.75541764 C102.668,3.24341764 107.148,3.05141764 111.052,3.05141764 C120.716,3.05141764 122.06,3.81941764 122.06,11.3074176 C122.06,19.8194176 119.692,20.5234176 111.5,20.5234176 L104.652,20.5234176 L105.228,23.4674176 L110.604,23.4674176 C121.228,23.4674176 123.532,23.9794176 123.532,32.8114176 C123.532,41.3234176 121.42,42.4754176 111.5,42.4754176 C105.292,42.4754176 101.452,41.9634176 99.276,41.3874176 L98.956,41.7074176 L98.956,42.7954176 C98.956,44.6514176 101.26,45.5474176 111.82,45.5474176 C124.748,45.5474176 127.244,43.2434176 127.244,33.3874176 C127.244,25.4514176 126.156,22.6994176 120.46,21.7394176 C123.916,20.6514176 125.772,18.6034176 125.772,10.9874176 C125.772,1.70741764 124.236,-0.0205823648 112.46,-0.0205823648 L112.46,-0.0205823648 Z M140.310667,45.1634176 L140.310667,40.3634176 L135.510667,40.3634176 L135.510667,45.1634176 L140.310667,45.1634176 Z" id="3." fill="#FFFFFF" sketch:type="MSShapeGroup"></path>
    </g>
</svg>