<?xml version="1.0" encoding="UTF-8" standalone="no"?>
<svg width="126px" height="77px" viewBox="0 0 126 77" version="1.1" xmlns="http://www.w3.org/2000/svg" xmlns:xlink="http://www.w3.org/1999/xlink" xmlns:sketch="http://www.bohemiancoding.com/sketch/ns">
    <!-- Generator: Sketch 3.3.2 (12043) - http://www.bohemiancoding.com/sketch -->
    <title>mobilPlus-brand-hun</title>
    <desc>Created with Sketch.</desc>
    <defs></defs>
    <g id="utilities" stroke="none" stroke-width="1" fill="none" fill-rule="evenodd" sketch:type="MSPage">
        <g id="mobilPlus-brand-hun" sketch:type="MSArtboardGroup" fill="#FFFFFF">
            <g id="mobile-event-logo-big-copy" sketch:type="MSLayerGroup">
                <path d="M44.8044483,33.037935 C44.8044483,41.1705222 43.6543495,42.4583997 36.276196,42.4583997 C28.9349299,42.4583997 27.7854899,41.1705222 27.7854899,33.037935 C27.7854899,24.9053478 28.9349299,23.6174703 36.276196,23.6174703 C43.6543495,23.6174703 44.8044483,24.9053478 44.8044483,33.037935 L44.8044483,33.037935 Z M32.5314587,33.037935 C32.5314587,38.4476745 32.8654221,38.9262158 36.276196,38.9262158 C39.7245161,38.9262158 40.0209333,38.4476745 40.0209333,33.037935 C40.0209333,27.6281955 39.7245161,27.150308 36.276196,27.150308 C32.8654221,27.150308 32.5314587,27.6281955 32.5314587,33.037935 Z M51.4507807,25.6414646 C52.3031448,24.3163236 53.6752271,23.6174703 56.82713,23.6174703 C62.83386,23.6174703 63.5380155,24.7948649 63.5380155,33.037935 C63.5380155,41.2071319 62.3885755,42.4583997 56.9384512,42.4583997 C53.5270185,42.4583997 52.4144659,42.0903413 51.4507807,40.4710151 C51.191251,41.9432487 50.5608704,42.2374339 49.2632217,42.2374339 L47.1125502,42.2374339 L46.7785869,41.906639 L46.7785869,15.3377905 L51.4507807,14.6382834 L51.4507807,25.6414646 Z M51.4507807,30.0941215 L51.4507807,36.2027143 C51.4507807,38.3371916 52.0436151,38.9262158 55.195518,38.9262158 C58.4587421,38.9262158 58.7920467,38.4476745 58.7920467,33.037935 C58.7920467,27.5915858 58.4956295,27.150308 55.0473094,27.150308 C52.4513534,27.150308 51.4507807,27.5549761 51.4507807,30.0941215 Z M65.2789726,15.4848831 L70.3220172,15.4848831 L70.3220172,19.642701 L65.2789726,19.642701 L65.2789726,15.4848831 Z M65.4271812,23.8377823 L70.0987163,23.8377823 L70.0987163,42.2374339 L65.4271812,42.2374339 L65.4271812,23.8377823 Z M72.5082588,42.2374339 L72.5082588,15.3377905 L77.1804526,14.6382834 L77.1804526,42.2374339 L72.5082588,42.2374339 Z M94.6282279,31.9710232 L94.6282279,34.1048468 L94.2204896,34.4362954 L83.8755292,34.4362954 C83.8755292,38.3005818 84.1350589,38.9262158 88.6590441,38.9262158 C91.0316992,38.9262158 92.9228409,38.8157329 94.1467146,38.6313768 L94.480678,38.9628255 L94.480678,39.9565178 C94.480678,41.8327658 93.1085957,42.4583997 87.8429088,42.4583997 C80.0939044,42.4583997 79.1671066,41.2810051 79.1671066,33.037935 C79.1671066,24.4634162 80.2052255,23.6174703 87.398283,23.6174703 C94.1091684,23.6174703 94.6282279,24.6111626 94.6282279,31.9710232 Z M83.8755292,31.3081259 L90.0673552,31.3081259 C90.0673552,27.4078835 89.9198053,27.0398251 87.0643196,27.0398251 C83.9868503,27.0398251 83.8755292,27.4444932 83.8755292,31.3081259 Z M21.325571,30.2046044 L21.3255713,42.2374349 L25.9971068,42.2374349 L25.9971061,30.0202483 C25.9971061,24.3901968 24.8476661,23.6174703 20.6576442,23.6174703 C17.4695125,23.6174703 15.9861091,24.3163236 15.0224238,25.9722596 C14.3551558,23.9482652 12.7228851,23.6174703 10.1651339,23.6174703 C7.71738656,23.6174703 6.01199958,24.0953578 4.75123841,25.8624304 C4.52925486,24.2797139 3.89887428,23.8377823 2.60056693,23.8377823 L0.487441623,23.8377823 L0.116590767,24.169231 L0.116590767,42.2374339 L4.78878459,42.2374339 L4.78878459,30.0941215 C4.78878459,27.5549761 5.90067845,27.150308 8.08823741,27.150308 C10.2764551,27.150308 10.7210809,27.4444932 10.7210809,30.2046044 L10.7210809,42.2374339 L15.392616,42.2374339 L15.392616,30.0202483 C15.392616,27.4811029 16.5051686,27.150308 18.6927275,27.150308 C20.843399,27.150308 21.325571,27.4444932 21.325571,30.2046044 Z" id="Fill-1" sketch:type="MSShapeGroup"></path>
                <g id="telefon" transform="translate(100.008969, 0.000000)" sketch:type="MSShapeGroup">
                    <path d="M25.7971791,7.08123258 L25.7971791,3.7451824 C25.7971791,1.86750091 24.258701,0.345503575 22.3621232,0.345503575 L21.8818711,0.345503575 C19.9846505,0.345503575 18.4468152,1.86750091 18.4468152,3.7451824 L18.4468152,6.13380196 L9.2750937,6.13380196 C4.64101487,6.13380196 0.466615058,8.71648891 0.466615058,13.7215186 L0.466615058,38.9598231 C0.466615058,41.176009 1.82957942,42.5249364 4.068827,42.5249364 L18.6306868,42.5249364 C22.7922285,42.5249364 25.7971791,39.5515695 25.7971791,35.4328869 L25.7971791,7.08123258 L25.7971791,7.08123258 Z M24.516507,35.4647012 C24.516507,38.884105 22.08503,41.2899043 18.6306868,41.2899043 L4.068827,41.2899043 C2.53742082,41.2899043 1.74728723,40.5079081 1.74728723,38.9922737 L1.74728723,13.7533329 C1.74728723,9.698279 5.218346,7.4337353 9.42681992,7.4337353 L19.7281303,7.4337353 L19.7281303,3.77763301 C19.7281303,2.59986668 20.6924919,1.64543692 21.8818711,1.64543692 L22.3621232,1.64543692 C23.5515025,1.64543692 24.5158641,2.59986668 24.5158641,3.77763301 L24.516507,35.4647012 L24.516507,35.4647012 Z" id="Fill-1"></path>
                    <path d="M3.56993061,23.6870379 L3.56993061,38.9922737 C3.56993061,39.2766937 3.61814869,39.4192219 3.60464763,39.4192219 C3.6355072,39.4376742 3.77951853,39.486032 4.06946991,39.486032 L18.6306868,39.486032 C21.060878,39.486032 22.6932207,37.8698643 22.6932207,35.4647012 L22.6932207,13.9531269 L3.56993061,23.6870379 L3.56993061,23.6870379 Z M19.3533151,33.0442674 L15.0284749,33.0442674 L15.0284749,37.3239304 L11.2353193,37.3239304 L11.2353193,33.0442674 L6.91047911,33.0442674 L6.91047911,29.2895407 L11.2353193,29.2895407 L11.2353193,25.0092413 L15.0284749,25.0092413 L15.0284749,29.2895407 L19.3533151,29.2895407 L19.3533151,33.0442674 L19.3533151,33.0442674 Z" id="Fill-2"></path>
                </g>
                <g id="Imported-Layers-Copy" transform="translate(22.035874, 46.896861)" sketch:type="MSShapeGroup">
                    <path d="M15.3274566,12.6365179 L15.3274566,14.7583774 L14.9263119,15.0877095 L4.75617433,15.0877095 C4.75617433,18.9289888 5.01111715,19.5510992 9.45822186,19.5510992 C11.7912089,19.5510992 13.6505572,19.4412639 14.8531242,19.2581469 L15.1812547,19.5874789 L15.1812547,20.5756493 C15.1812547,22.4412842 13.8323123,23.0632206 8.65662612,23.0632206 C1.03817141,23.0632206 0.12662074,21.8924554 0.12662074,13.6974476 C0.12662074,5.17310768 1.14760605,4.33167463 8.21940785,4.33167463 C14.8170507,4.33167463 15.3274566,5.31932277 15.3274566,12.6365179 L15.3274566,12.6365179 Z M4.75617433,11.9780277 L10.8434112,11.9780277 C10.8434112,8.09967239 10.697903,7.73413466 7.89075706,7.73413466 C4.86560897,7.73413466 4.75617433,8.1365743 4.75617433,11.9780277 L4.75617433,11.9780277 Z" id="Fill-5"></path>
                    <path d="M29.9802521,19.3316025 C28.9962075,22.8801036 28.3763669,23.0632206 25.0957557,23.0632206 C21.7426506,23.0632206 21.0135488,22.8801036 20.0288104,19.2952228 L15.9103565,4.55117134 L20.7948529,4.55117134 L24.1848988,18.4537898 C24.3666539,19.2952228 24.5128558,19.3316025 25.0957557,19.3316025 C25.6793493,19.3316025 25.7516698,19.2952228 25.9341187,18.4537898 L29.2511503,4.55117134 L33.9537182,4.55117134 L29.9802521,19.3316025" id="Fill-6"></path>
                    <path d="M49.5915989,12.6365179 L49.5915989,14.7583774 L49.1904541,15.0877095 L39.0201432,15.0877095 C39.0201432,18.9289888 39.2749126,19.5510992 43.7223641,19.5510992 C46.0553511,19.5510992 47.9146994,19.4412639 49.1174399,19.2581469 L49.445397,19.5874789 L49.445397,20.5756493 C49.445397,22.4412842 48.0964546,23.0632206 42.9209418,23.0632206 C35.3019668,23.0632206 34.3904161,21.8924554 34.3904161,13.6974476 C34.3904161,5.17310768 35.4114015,4.33167463 42.4835501,4.33167463 C49.0811929,4.33167463 49.5915989,5.31932277 49.5915989,12.6365179 L49.5915989,12.6365179 Z M39.0201432,11.9780277 L45.1075535,11.9780277 C45.1075535,8.09967239 44.9620453,7.73413466 42.1548993,7.73413466 C39.1294044,7.73413466 39.0201432,8.1365743 39.0201432,11.9780277 L39.0201432,11.9780277 Z" id="Fill-7"></path>
                    <path d="M67.9261503,10.6241456 L67.9261503,22.8437239 L63.2972905,22.8437239 L63.2972905,10.9903796 C63.2972905,8.17295401 62.8229581,7.84379598 60.2714487,7.84379598 C57.7929535,7.84379598 56.5534457,8.24640968 56.5534457,10.7708829 L56.5534457,22.8437239 L51.9606594,22.8437239 L51.9606594,4.88032936 L52.3250369,4.55117134 L54.4029076,4.55117134 C55.6788358,4.55117134 56.2985029,4.95361097 56.5171988,6.48991384 C57.5374904,5.09982607 58.8132451,4.33167463 62.0576093,4.33167463 C66.8328445,4.33167463 67.9261503,5.02706665 67.9261503,10.6241456" id="Fill-8"></path>
                    <path d="M82.1791886,4.55117134 L81.7417969,7.91725166 L75.9826905,7.91725166 L75.9826905,16.7705755 C75.9826905,19.2219412 76.3838352,19.5510992 78.9715916,19.5510992 C80.1743321,19.5510992 81.1951439,19.4776436 81.9604927,19.3679822 L82.2884498,19.6607606 L82.2884498,20.6484087 C82.2884498,22.5145659 81.4500868,23.0632206 77.149184,23.0632206 C72.9206017,23.0632206 71.3899041,22.3685248 71.3899041,16.9536925 L71.3899041,7.91725166 L69.0933376,7.91725166 L69.0933376,4.55117134 L71.3899041,4.55117134 L71.3899041,1.07525563 L75.9826905,0.380559869 L75.9826905,4.55117134 L82.1791886,4.55117134" id="Fill-9"></path>
                </g>
            </g>
        </g>
    </g>
</svg>