<?xml version="1.0" encoding="UTF-8" standalone="no"?>
<svg width="225px" height="151px" viewBox="0 0 225 151" version="1.1" xmlns="http://www.w3.org/2000/svg" xmlns:xlink="http://www.w3.org/1999/xlink" xmlns:sketch="http://www.bohemiancoding.com/sketch/ns">
    <!-- Generator: Sketch 3.1.1 (8761) - http://www.bohemiancoding.com/sketch -->
    <title>mobilPlus-howDoesGfx-4</title>
    <desc>Created with Sketch.</desc>
    <defs></defs>
    <g id="utilities" stroke="none" stroke-width="1" fill="none" fill-rule="evenodd" sketch:type="MSPage">
        <g id="mobilPlus-howDoesGfx-4" sketch:type="MSArtboardGroup">
            <rect id="Rectangle-88" stroke="#FFFFFF" stroke-width="2" sketch:type="MSShapeGroup" x="1" y="69" width="223" height="80"></rect>
            <g id="Imported-Layers" sketch:type="MSLayerGroup" transform="translate(35.000000, 96.000000)" fill="#FFFFFF">
                <path d="M80.5100055,10.2112352 L77.8116068,7.94989864 L77.8116068,2.59041176 L89.7044422,12.5687829 L77.8116068,22.5904118 L77.8116068,17.2316707 L80.4855139,14.9688426 L63.7044422,14.9688426 L63.7044422,10.2112352 L80.5100055,10.2112352 Z" id="Fill-1" sketch:type="MSShapeGroup"></path>
                <path d="M5.54623116,5.43255882 L5.54623116,19.8410294 L14.6373467,19.8410294 L7.33670352,5.43255882 L5.54623116,5.43255882" id="Fill-2" sketch:type="MSShapeGroup"></path>
                <path d="M46.4480201,6.88102941 L46.4480201,2.55467647 C46.4480201,0.963264706 45.1404422,-0.323205882 43.5318392,-0.323205882 L2.63005025,-0.323205882 C1.0120402,-0.323205882 -0.295537688,0.963264706 -0.295537688,2.55467647 L-0.295537688,22.7189118 C-0.295537688,24.3103235 1.0120402,25.5967941 2.63005025,25.5967941 L43.5318392,25.5967941 C45.1404422,25.5967941 46.4480201,24.3103235 46.4480201,22.7189118 L46.4480201,18.3925588 L49.373608,18.3925588 L49.373608,6.88102941 L46.4480201,6.88102941 L46.4480201,6.88102941 Z M43.5318392,21.2799706 C43.5318392,22.0709118 42.8733467,22.7189118 42.0737487,22.7189118 L4.0881407,22.7189118 C3.27913568,22.7189118 2.63005025,22.0709118 2.63005025,21.2799706 L2.63005025,3.99361765 C2.63005025,3.20267647 3.27913568,2.55467647 4.0881407,2.55467647 L42.0737487,2.55467647 C42.8733467,2.55467647 43.5318392,3.20267647 43.5318392,3.99361765 L43.5318392,21.2799706 L43.5318392,21.2799706 Z" id="Fill-3" sketch:type="MSShapeGroup"></path>
                <path d="M110.897186,5.43255882 L145.93996,5.43255882 L145.93996,19.8410294 L110.897186,19.8410294 L110.897186,5.43255882 Z" id="Fill-4" sketch:type="MSShapeGroup"></path>
                <path d="M151.798975,6.88102941 L151.798975,2.55467647 C151.798975,0.963264706 150.491397,-0.323205882 148.882794,-0.323205882 L107.981005,-0.323205882 C106.362995,-0.323205882 105.055417,0.963264706 105.055417,2.55467647 L105.055417,22.7189118 C105.055417,24.3103235 106.362995,25.5967941 107.981005,25.5967941 L148.882794,25.5967941 C150.491397,25.5967941 151.798975,24.3103235 151.798975,22.7189118 L151.798975,18.3925588 L154.724563,18.3925588 L154.724563,6.88102941 L151.798975,6.88102941 L151.798975,6.88102941 Z M148.882794,21.2799706 C148.882794,22.0709118 148.224302,22.7189118 147.424704,22.7189118 L109.439095,22.7189118 C108.63009,22.7189118 107.981005,22.0709118 107.981005,21.2799706 L107.981005,3.99361765 C107.981005,3.20267647 108.63009,2.55467647 109.439095,2.55467647 L147.424704,2.55467647 C148.224302,2.55467647 148.882794,3.20267647 148.882794,3.99361765 L148.882794,21.2799706 L148.882794,21.2799706 Z" id="Fill-5" sketch:type="MSShapeGroup"></path>
            </g>
        </g>
        <g id="4.-+-Imported-Layers-+-Rectangle-88" sketch:type="MSLayerGroup" transform="translate(100.000000, 1.000000)" fill="#FFFFFF">
            <path d="M34.056,33.672 L34.056,30.664 L27.336,30.664 L27.336,0.2 L23.816,0.2 C18.76,0.2 17.352,0.648 14.664,4.808 L1.8,24.84 C0.52,26.952 0.392,27.976 0.392,31.368 L0.392,33.672 L23.752,33.672 L23.752,45 L27.336,45 L27.336,33.672 L34.056,33.672 Z M23.752,30.664 L4.104,30.664 C4.104,28.296 4.168,27.272 4.872,26.12 L17.608,6.28 C19.336,3.528 19.912,3.336 23.752,3.336 L23.752,30.664 Z M43.4746666,45 L43.4746666,40.2 L38.6746666,40.2 L38.6746666,45 L43.4746666,45 Z" id="4." sketch:type="MSShapeGroup"></path>
        </g>
    </g>
</svg>