<?xml version="1.0" encoding="UTF-8" standalone="no"?>
<svg width="26px" height="42px" viewBox="0 0 26 42" version="1.1" xmlns="http://www.w3.org/2000/svg" xmlns:xlink="http://www.w3.org/1999/xlink" xmlns:sketch="http://www.bohemiancoding.com/sketch/ns">
    <!-- Generator: Sketch 3.1.1 (8761) - http://www.bohemiancoding.com/sketch -->
    <title>mobilPlus-brandFooterSmall</title>
    <desc>Created with Sketch.</desc>
    <defs></defs>
    <g id="utilities" stroke="none" stroke-width="1" fill="none" fill-rule="evenodd" sketch:type="MSPage">
        <g id="mobilPlus-brandFooterSmall" sketch:type="MSArtboardGroup" fill="#FFFFFF">
            <g id="icon-lablec-2" sketch:type="MSLayerGroup">
                <path d="M25.587,6.55054955 L25.587,3.19691892 C25.587,1.30934234 24.0486429,-0.220675676 22.1522143,-0.220675676 L21.672,-0.220675676 C19.7749286,-0.220675676 18.2372143,1.30934234 18.2372143,3.19691892 L18.2372143,5.59812613 L9.06621429,5.59812613 C4.4325,5.59812613 0.258428571,8.19442342 0.258428571,13.2258288 L0.258428571,38.5971351 C0.258428571,40.825 1.62128571,42.181036 3.86035714,42.181036 L18.4210714,42.181036 C22.5822857,42.181036 25.587,39.192 25.587,35.0516126 L25.587,6.55054955 L25.587,6.55054955 Z M24.3064286,35.0835946 C24.3064286,38.521018 21.8751429,40.9394955 18.4210714,40.9394955 L3.86035714,40.9394955 C2.32907143,40.9394955 1.539,40.1533784 1.539,38.6297568 L1.539,13.2578108 C1.539,9.18138739 5.00978571,6.90490991 9.21792857,6.90490991 L19.5184286,6.90490991 L19.5184286,3.22954054 C19.5184286,2.04556757 20.4827143,1.08610811 21.672,1.08610811 L22.1522143,1.08610811 C23.3415,1.08610811 24.3057857,2.04556757 24.3057857,3.22954054 L24.3064286,35.0835946 L24.3064286,35.0835946 Z" id="Fill-2" sketch:type="MSShapeGroup"></path>
                <path d="M3.3615,23.2438649 L3.3615,38.6297568 C3.3615,38.9156757 3.40971429,39.058955 3.39621429,39.058955 C3.42707143,39.0775045 3.57107143,39.1261171 3.861,39.1261171 L18.4210714,39.1261171 C20.8510714,39.1261171 22.4832857,37.5014324 22.4832857,35.0835946 L22.4832857,13.4586577 L3.3615,23.2438649 L3.3615,23.2438649 Z M19.1436429,32.6504054 L14.8191429,32.6504054 L14.8191429,36.9526216 L11.0262857,36.9526216 L11.0262857,32.6504054 L6.70178571,32.6504054 L6.70178571,28.8758919 L11.0262857,28.8758919 L11.0262857,24.573036 L14.8191429,24.573036 L14.8191429,28.8758919 L19.1436429,28.8758919 L19.1436429,32.6504054 L19.1436429,32.6504054 Z" id="Fill-3" sketch:type="MSShapeGroup"></path>
            </g>
        </g>
    </g>
</svg>