<?xml version="1.0" encoding="UTF-8" standalone="no"?>
<svg width="100px" height="100px" viewBox="0 0 100 100" version="1.1" xmlns="http://www.w3.org/2000/svg" xmlns:xlink="http://www.w3.org/1999/xlink" xmlns:sketch="http://www.bohemiancoding.com/sketch/ns">
    <!-- Generator: Sketch 3.1.1 (8761) - http://www.bohemiancoding.com/sketch -->
    <title>mobilPlus-clients-advetisers-1</title>
    <desc>Created with Sketch.</desc>
    <defs></defs>
    <g id="utilities" stroke="none" stroke-width="1" fill="none" fill-rule="evenodd" sketch:type="MSPage">
        <g id="mobilPlus-clients-advetisers-1" sketch:type="MSArtboardGroup">
            <rect id="Rectangle-52" fill="#979797" sketch:type="MSShapeGroup" x="0" y="0" width="100" height="100"></rect>
            <g id="Imported-Layers" sketch:type="MSLayerGroup" transform="translate(10.000000, 23.000000)" fill="#FFFFFF">
                <path d="M44.7932075,1.05671667 C42.2045283,1.645 40.2543396,4.03495 40.2543396,6.89568333 C40.2543396,6.95756667 40.2701887,7.02885 40.2724528,7.09151667 C44.3645283,7.9947 46.4286792,10.8577833 46.4286792,14.6311 C46.4286792,18.8736333 43.0875472,22.3124667 38.9984906,22.3124667 C34.9109434,22.3124667 31.0943396,18.77415 31.0943396,13.5266 C31.0943396,7.12206667 36.3849057,1.11311667 43.9230189,0.92355 C44.0603774,0.919633333 44.2754717,0.925116667 44.4950943,0.9353 C42.8384906,0.282783333 41.0332075,-0.0767666667 39.1464151,-0.0767666667 C31.0558491,-0.0767666667 24.4981132,6.50793333 24.4981132,14.6311 C24.4981132,22.7542667 31.0558491,29.3413167 39.1464151,29.3413167 C47.2354717,29.3413167 53.794717,22.7542667 53.794717,14.6311 C53.794717,8.51953333 50.0792453,3.27668333 44.7932075,1.05671667" id="Fill-1" stroke="#979797" sketch:type="MSShapeGroup"></path>
                <path d="M2.74264151,36.2056667 L5.07018868,42.5780833 L7.32,36.2056667 L10.2377358,36.2056667 L6.42641509,45.9769667 L3.66339623,45.9769667 L-0.300377358,36.2056667 L2.74264151,36.2056667" id="Fill-2" sketch:type="MSShapeGroup"></path>
                <path d="M15.1992453,46.2166667 C12.1818868,46.2166667 10.2890566,44.0115833 10.2890566,41.0905333 C10.2890566,38.1694833 12.1818868,35.9659667 15.1992453,35.9659667 C18.2460377,35.9659667 20.1366038,38.1694833 20.1366038,41.0905333 C20.1366038,44.0115833 18.2460377,46.2166667 15.1992453,46.2166667 L15.1992453,46.2166667 Z M15.1992453,38.1961167 C13.7426415,38.1961167 13.0256604,39.5238667 13.0256604,41.1171667 C13.0256604,42.6838333 13.7426415,43.98495 15.1992453,43.98495 C16.6588679,43.98495 17.3750943,42.6838333 17.3750943,41.1171667 C17.3750943,39.5238667 16.6588679,38.1961167 15.1992453,38.1961167 L15.1992453,38.1961167 Z" id="Fill-3" sketch:type="MSShapeGroup"></path>
                <path d="M30.6249057,32.22085 L30.6249057,45.7913167 C29.5011321,46.0286667 28.1969811,46.2166667 26.6090566,46.2166667 C23.3622642,46.2166667 21.2633962,44.4369333 21.2633962,41.0388333 C21.2633962,38.1694833 23.1584906,35.9659667 25.9969811,35.9659667 C26.8150943,35.9659667 27.6075472,36.1524 28.0430189,36.3372667 L28.0430189,32.22085 L30.6249057,32.22085 L30.6249057,32.22085 Z M28.0430189,38.6481 C27.6332075,38.4091833 26.9932075,38.1961167 26.2022642,38.1961167 C24.7932075,38.1961167 23.9992453,39.4439667 23.9992453,41.0388333 C23.9992453,42.9752333 25.2030189,43.9583167 26.6618868,43.9583167 C27.1735849,43.9583167 27.6860377,43.9316833 28.0430189,43.851 L28.0430189,38.6481 L28.0430189,38.6481 Z" id="Fill-4" sketch:type="MSShapeGroup"></path>
                <path d="M31.8286792,41.3036 C31.8286792,38.22275 34.0301887,35.9659667 37.1758491,35.9659667 C38.7366038,35.9659667 40.3215094,36.3639 41.2166038,36.7344167 L41.2166038,45.9769667 L38.9162264,45.9769667 L38.7366038,45.12705 C38.1992453,45.7646833 37.4324528,46.2166667 36.2030189,46.2166667 C33.72,46.2166667 31.8286792,44.3288333 31.8286792,41.3036 L31.8286792,41.3036 Z M38.6090566,38.4616667 C38.325283,38.3841167 37.7637736,38.27445 37.1260377,38.27445 C35.8724528,38.27445 34.5683019,39.28495 34.5683019,41.1955 C34.5683019,43.0833333 35.589434,43.98495 36.7418868,43.98495 C37.6083019,43.98495 38.3011321,43.5071167 38.6090566,42.9752333 L38.6090566,38.4616667 L38.6090566,38.4616667 Z" id="Fill-5" sketch:type="MSShapeGroup"></path>
                <path d="M46.205283,31.9819333 C46.8966038,31.9819333 47.7388679,32.1166667 48.2015094,32.22085 L48.2015094,34.5575333 C47.7932075,34.5042667 47.1011321,34.4525667 46.7441509,34.4525667 C46.1283019,34.4525667 45.8973585,34.5575333 45.6928302,34.74475 C45.514717,34.92805 45.4656604,35.1967333 45.4656604,35.6205167 L45.4656604,36.2056667 L47.8422642,36.2056667 L47.8422642,38.5666333 L45.4656604,38.5666333 L45.4656604,45.9769667 L42.88,45.9769667 L42.88,35.4066667 C42.88,34.2669167 43.2384906,33.4177833 43.8279245,32.8326333 C44.389434,32.27255 45.2588679,31.9819333 46.205283,31.9819333" id="Fill-6" sketch:type="MSShapeGroup"></path>
                <path d="M53.010566,46.2166667 C49.9667925,46.2166667 48.0732075,44.0115833 48.0732075,41.0905333 C48.0732075,38.1694833 49.9667925,35.9659667 53.010566,35.9659667 C56.0550943,35.9659667 57.9215094,38.1694833 57.9215094,41.0905333 C57.9215094,44.0115833 56.0550943,46.2166667 53.010566,46.2166667 L53.010566,46.2166667 Z M53.010566,38.1961167 C51.5501887,38.1961167 50.8362264,39.5238667 50.8362264,41.1171667 C50.8362264,42.6838333 51.5501887,43.98495 53.010566,43.98495 C54.4701887,43.98495 55.1856604,42.6838333 55.1856604,41.1171667 C55.1856604,39.5238667 54.4701887,38.1961167 53.010566,38.1961167 L53.010566,38.1961167 Z" id="Fill-7" sketch:type="MSShapeGroup"></path>
                <path d="M65.7758491,40.6119167 C65.7758491,39.15335 65.0611321,38.4091833 63.6271698,38.4091833 C62.9101887,38.4091833 62.1192453,38.5407833 61.7064151,38.6481 L61.7064151,45.9769667 L59.125283,45.9769667 L59.125283,36.7344167 C60.3026415,36.3106333 61.989434,35.9659667 63.6528302,35.9659667 C66.6467925,35.9659667 68.3864151,37.5052167 68.3864151,40.0823833 L68.3864151,45.9769667 L65.7758491,45.9769667 L65.7758491,40.6119167" id="Fill-8" sketch:type="MSShapeGroup"></path>
                <path d="M69.5871698,41.0388333 C69.5871698,37.9321333 71.4807547,35.93855 74.2173585,35.93855 C76.9833962,35.93855 78.5939623,38.1694833 78.5939623,40.9048833 C78.5939623,41.2769667 78.5683019,41.7814333 78.5426415,41.9929333 L72.2241509,41.9929333 C72.3501887,43.37395 73.2211321,44.1196833 74.9343396,44.1196833 C76.3932075,44.1196833 77.5698113,43.7977333 78.2339623,43.5846667 L78.2339623,45.3644 C77.3901887,45.7913167 76.290566,46.1884667 74.8332075,46.1884667 C71.5064151,46.1884667 69.5871698,44.3554667 69.5871698,41.0388333 L69.5871698,41.0388333 Z M76.2135849,40.02755 C76.1381132,39.0186167 75.445283,38.1961167 74.2173585,38.1961167 C72.9909434,38.1961167 72.3758491,38.8870167 72.2754717,40.02755 L76.2135849,40.02755 L76.2135849,40.02755 Z" id="Fill-9" sketch:type="MSShapeGroup"></path>
            </g>
        </g>
    </g>
</svg>