<?xml version="1.0" encoding="UTF-8" standalone="no"?>
<svg width="100px" height="100px" viewBox="0 0 100 100" version="1.1" xmlns="http://www.w3.org/2000/svg" xmlns:xlink="http://www.w3.org/1999/xlink" xmlns:sketch="http://www.bohemiancoding.com/sketch/ns">
    <!-- Generator: Sketch 3.1.1 (8761) - http://www.bohemiancoding.com/sketch -->
    <title>mobilPlus-clients-advetisers-4</title>
    <desc>Created with Sketch.</desc>
    <defs></defs>
    <g id="utilities" stroke="none" stroke-width="1" fill="none" fill-rule="evenodd" sketch:type="MSPage">
        <g id="mobilPlus-clients-advetisers-4" sketch:type="MSArtboardGroup">
            <rect id="Rectangle-52" fill="#979797" sketch:type="MSShapeGroup" x="0" y="0" width="100" height="100"></rect>
            <g id="Oval-22-+-Imported-Layers-3" sketch:type="MSLayerGroup" transform="translate(18.000000, 18.000000)">
                <circle id="Oval-22" fill="#FFFFFF" sketch:type="MSShapeGroup" cx="32.5" cy="32.5" r="32.5"></circle>
                <g id="Imported-Layers-3" transform="translate(1.511628, 1.511628)" fill="#979797" sketch:type="MSShapeGroup">
                    <path d="M8.80794193,30.8274963 C8.80794193,39.7600594 14.1947275,47.4491316 21.9370634,50.9013681 L9.86152989,24.1208214 C9.17783276,26.2346239 8.80794193,28.4882039 8.80794193,30.8274963" id="Fill-1"></path>
                    <path d="M37.6474085,9.77782039 C35.5776223,9.15014102 33.3796429,8.81256556 31.1002073,8.81256556 C28.8247778,8.81256556 26.6281337,9.15014102 24.5596828,9.77650173 L31.1042134,24.2909278 L37.6474085,9.77782039" id="Fill-2"></path>
                    <path d="M24.5596828,51.8784908 C26.6281337,52.5048516 28.8247778,52.8411084 31.1002073,52.8411084 C33.3796429,52.8411084 35.5776223,52.5035329 37.6487439,51.8771722 L31.1042134,37.3614275 L24.5596828,51.8784908" id="Fill-3"></path>
                    <path d="M31.1002073,-0.0224171202 C13.8475376,-0.0224171202 -0.138875979,13.7891663 -0.138875979,30.8274963 C-0.138875979,47.8645077 13.8475376,61.676091 31.1002073,61.676091 C48.3542124,61.676091 62.340626,47.8645077 62.340626,30.8274963 C62.340626,13.7891663 48.3542124,-0.0224171202 31.1002073,-0.0224171202 L31.1002073,-0.0224171202 Z M31.1002073,57.4155195 C16.2311301,57.4155195 4.17696215,45.51071 4.17696215,30.8274963 C4.17696215,16.1429639 16.2311301,4.23947303 31.1002073,4.23947303 C45.9706199,4.23947303 58.0247878,16.1429639 58.0247878,30.8274963 C58.0247878,45.51071 45.9706199,57.4155195 31.1002073,57.4155195 L31.1002073,57.4155195 Z" id="Fill-4"></path>
                    <path d="M42.5641523,11.9430505 L34.3904998,30.0494904 L27.8112502,30.0494904 L19.6416037,11.9404132 C17.0283316,13.4898318 14.7635849,15.5522068 12.9902455,17.987761 L23.4673698,41.2264028 L27.8112502,31.6041836 L34.3904998,31.6041836 L38.7370508,41.2198095 L49.2115045,17.987761 C47.4395004,15.5535255 45.176089,13.4911504 42.5641523,11.9430505" id="Fill-5"></path>
                    <path d="M52.3402201,24.1208214 L40.2646866,50.9013681 C48.0070225,47.4491316 53.3938081,39.7600594 53.3938081,30.8274963 C53.3938081,28.4882039 53.0252526,26.2346239 52.3402201,24.1208214" id="Fill-6"></path>
                </g>
            </g>
        </g>
    </g>
</svg>