<?xml version="1.0" encoding="UTF-8" standalone="no"?>
<svg width="189px" height="71px" viewBox="0 0 189 71" version="1.1" xmlns="http://www.w3.org/2000/svg" xmlns:xlink="http://www.w3.org/1999/xlink" xmlns:sketch="http://www.bohemiancoding.com/sketch/ns">
    <!-- Generator: Sketch 3.1.1 (8761) - http://www.bohemiancoding.com/sketch -->
    <title>mobilPlus-tabletMobilIcon</title>
    <desc>Created with Sketch.</desc>
    <defs></defs>
    <g id="utilities" stroke="none" stroke-width="1" fill="none" fill-rule="evenodd" sketch:type="MSPage">
        <g id="mobilPlus-tabletMobilIcon" sketch:type="MSArtboardGroup">
            <g id="Group-2" sketch:type="MSLayerGroup" transform="translate(1.000000, 1.000000)">
                <circle id="Oval-4" stroke="#D8D8D8" stroke-width="2" sketch:type="MSShapeGroup" cx="34.5" cy="34.5" r="34.5"></circle>
                <path d="M44.867,9 L23.542,9 C21.869,9 20.5,10.368 20.5,12.041 L20.5,56.323 C20.5,57.996 21.869,59.365 23.542,59.365 L44.867,59.365 C46.539,59.365 47.908,57.996 47.908,56.323 L47.908,12.041 C47.908,10.368 46.539,9 44.867,9 L44.867,9 Z M29.034,11.329 L39.375,11.329 C39.788,11.329 40.127,11.667 40.127,12.081 C40.127,12.495 39.788,12.833 39.375,12.833 L29.034,12.833 C28.62,12.833 28.282,12.495 28.282,12.081 C28.282,11.667 28.62,11.329 29.034,11.329 L29.034,11.329 Z M34.204,58.022 C33.257,58.022 32.482,57.247 32.482,56.3 C32.482,55.352 33.257,54.577 34.204,54.577 C35.151,54.577 35.927,55.352 35.927,56.3 C35.927,57.247 35.151,58.022 34.204,58.022 L34.204,58.022 Z M23.032,15.177 L45.377,15.177 L45.377,53.186 L23.032,53.186 L23.032,15.177 Z" id="Imported-Layers-4" fill="#D8D8D8" sketch:type="MSShapeGroup"></path>
                <g id="Oval-4-+-Imported-Layers-3" transform="translate(118.000000, 0.000000)" sketch:type="MSShapeGroup">
                    <circle id="Oval-4" stroke="#D8D8D8" stroke-width="2" cx="34.5" cy="34.5" r="34.5"></circle>
                    <path d="M49.371,9 L18.541,9 C16.868,9 15.5,10.368 15.5,12.041 L15.5,56.332 C15.5,58.005 16.868,59.374 18.541,59.374 L49.371,59.374 C51.044,59.374 52.412,58.005 52.412,56.332 L52.412,12.041 C52.412,10.368 51.044,9 49.371,9 L49.371,9 Z M33.956,57.973 C33.009,57.973 32.233,57.198 32.233,56.251 C32.233,55.303 33.009,54.528 33.956,54.528 C34.904,54.528 35.679,55.303 35.679,56.251 C35.679,57.198 34.904,57.973 33.956,57.973 L33.956,57.973 Z M18.031,13.534 L49.88,13.534 L49.88,53.183 L18.031,53.183 L18.031,13.534 Z" id="Imported-Layers-3" fill="#D8D8D8"></path>
                </g>
                <path d="M103,37.1216745 L103,31.8783255 L96.137933,31.8783255 L96.137933,25 L90.9050826,25 L90.9050826,31.8783255 L84,31.8783255 L84,37.1216745 L90.9050826,37.1216745 L90.9050826,44 L96.137933,44 L96.137933,37.1216745 L103,37.1216745" id="Fill-2" fill="#D8D8D8" sketch:type="MSShapeGroup"></path>
            </g>
        </g>
    </g>
</svg>