<?xml version="1.0" encoding="UTF-8" standalone="no"?>
<svg width="100px" height="100px" viewBox="0 0 100 100" version="1.1" xmlns="http://www.w3.org/2000/svg" xmlns:xlink="http://www.w3.org/1999/xlink" xmlns:sketch="http://www.bohemiancoding.com/sketch/ns">
    <!-- Generator: Sketch 3.1.1 (8761) - http://www.bohemiancoding.com/sketch -->
    <title>mobilPlus-clients-advetisers-2</title>
    <desc>Created with Sketch.</desc>
    <defs></defs>
    <g id="utilities" stroke="none" stroke-width="1" fill="none" fill-rule="evenodd" sketch:type="MSPage">
        <g id="mobilPlus-clients-advetisers-2" sketch:type="MSArtboardGroup">
            <rect id="Rectangle-52" fill="#979797" sketch:type="MSShapeGroup" x="0" y="0" width="100" height="100"></rect>
            <g id="Imported-Layers" sketch:type="MSLayerGroup" transform="translate(-107.000000, 31.000000)" fill="#FFFFFF">
                <path d="M117.558377,17.3915926 L125.409932,17.3915926 L125.409932,25.2681481 L117.558377,25.2681481 L117.558377,17.3915926 Z" id="Fill-6" sketch:type="MSShapeGroup"></path>
                <path d="M141.013137,17.3915926 L148.864692,17.3915926 L148.864692,25.2681481 L141.013137,25.2681481 L141.013137,17.3915926 Z" id="Fill-7" sketch:type="MSShapeGroup"></path>
                <path d="M159.716397,30.0302222 C159.716397,32.5297037 160.079685,34.1514815 160.809288,34.8985926 C161.429904,35.5363704 162.477384,35.9296667 163.95324,36.0754444 C164.392212,36.1118889 165.138466,36.1301111 166.196541,36.1301111 L166.196541,38.3182963 L147.275308,38.3182963 L147.275308,36.1301111 C148.795062,36.1301111 149.916712,36.0572222 150.641774,35.9099259 C152.105521,35.6016667 153.03039,34.7452222 153.410329,33.3390741 C153.608623,32.6117037 153.708527,31.5077407 153.708527,30.0302222 L153.708527,1.4107037 C150.499486,1.50181481 147.98826,2.56781481 146.174849,4.61174074 C144.45226,6.56607407 143.401753,9.55907407 143.020301,13.5907407 L140.975295,13.2369259 L141.356747,-0.451 L172.115103,-0.451 L172.496555,13.2369259 L170.450034,13.5907407 C170.070096,9.55907407 169.012021,6.56607407 167.283377,4.61174074 C165.462397,2.56781481 162.939062,1.50181481 159.716397,1.4107037 L159.716397,30.0302222" id="Fill-8" sketch:type="MSShapeGroup"></path>
                <path d="M164.71463,17.3915926 L172.566185,17.3915926 L172.566185,25.2681481 L164.71463,25.2681481 L164.71463,17.3915926 Z" id="Fill-9" sketch:type="MSShapeGroup"></path>
                <path d="M188.195123,17.3915926 L196.046678,17.3915926 L196.046678,25.2681481 L188.195123,25.2681481 L188.195123,17.3915926 Z" id="Fill-10" sketch:type="MSShapeGroup"></path>
            </g>
        </g>
    </g>
</svg>