<?xml version="1.0" encoding="UTF-8" standalone="no"?>
<svg width="27px" height="27px" viewBox="0 0 27 27" version="1.1" xmlns="http://www.w3.org/2000/svg" xmlns:xlink="http://www.w3.org/1999/xlink" xmlns:sketch="http://www.bohemiancoding.com/sketch/ns">
    <!-- Generator: Sketch 3.1.1 (8761) - http://www.bohemiancoding.com/sketch -->
    <title>mobilPlus-social-phone-footer</title>
    <desc>Created with Sketch.</desc>
    <defs></defs>
    <g id="utilities" stroke="none" stroke-width="1" fill="none" fill-rule="evenodd" sketch:type="MSPage">
        <g id="mobilPlus-social-phone-footer" sketch:type="MSArtboardGroup" fill="#A2A2A1">
            <path d="M13.5,27 C20.9558441,27 27,20.9558441 27,13.5 C27,6.04415588 20.9558441,0 13.5,0 C6.04415588,0 0,6.04415588 0,13.5 C0,20.9558441 6.04415588,27 13.5,27 Z M9.95856761,6.01441859 L11.7967909,8.57999648 C11.9202208,8.75676568 11.9691519,8.95204936 11.9422619,9.16805162 C11.9158126,9.3844947 11.8276484,9.56787621 11.6777693,9.71731451 L10.1172632,11.2773798 C11.0077215,12.5293113 12.008385,13.7107114 13.1192538,14.822021 C14.2124897,15.9148162 15.3894816,16.9159205 16.6506704,17.8235708 L18.2239603,16.2635055 C18.365023,16.1136264 18.5501678,16.0303112 18.7798355,16.0122376 C19.0086216,15.9950456 19.2074318,16.0475033 19.374503,16.1704923 L21.9136316,17.9690418 C22.0811436,18.0929124 22.178565,18.2582203 22.2045734,18.4649653 C22.2310227,18.672592 22.173716,18.8506836 22.0330941,19.0005628 L19.8770388,21.1433934 L19.4670754,21.156618 C19.1937664,21.156618 18.786007,21.0843234 18.2437972,20.9384116 C17.7015875,20.7929407 17.0976628,20.5857549 16.432464,20.3168541 C15.7663835,20.0475125 14.9729058,19.5912628 14.0515901,18.9481051 C13.1302743,18.3049473 12.2155708,17.5282208 11.3079205,16.6210113 C10.4086458,15.7208549 9.63676832,14.8039474 8.99361057,13.8698478 C8.35001199,12.9348666 7.89111739,12.1524094 7.6178084,11.5220355 C7.34449942,10.8916615 7.1399585,10.2745122 7.00286319,9.67102831 C6.86620869,9.06754444 6.79567734,8.67036477 6.79126913,8.48037095 C6.78686092,8.29081794 6.78950585,8.14799195 6.79788145,8.05057053 L8.94027123,5.90862156 C9.09940759,5.75874244 9.27749926,5.69658669 9.47586868,5.72347677 C9.6742381,5.74992602 9.83513775,5.84646581 9.95856761,6.01441859 Z" id="Oval-26" sketch:type="MSShapeGroup"></path>
        </g>
    </g>
</svg>