<?xml version="1.0" encoding="UTF-8" standalone="no"?>
<svg width="225px" height="128px" viewBox="0 0 225 128" version="1.1" xmlns="http://www.w3.org/2000/svg" xmlns:xlink="http://www.w3.org/1999/xlink" xmlns:sketch="http://www.bohemiancoding.com/sketch/ns">
    <!-- Generator: Sketch 3.1.1 (8761) - http://www.bohemiancoding.com/sketch -->
    <title>mobilPlus-howDoesGfx-3</title>
    <desc>Created with Sketch.</desc>
    <defs></defs>
    <g id="utilities" stroke="none" stroke-width="1" fill="none" fill-rule="evenodd" sketch:type="MSPage">
        <g id="mobilPlus-howDoesGfx-3" sketch:type="MSArtboardGroup">
            <g id="3.-+-Imported-Layers-+-Line-3" sketch:type="MSLayerGroup" transform="translate(0.000000, -15.000000)">
                <text id="3." sketch:type="MSTextLayer" font-family="Sica" font-size="64" font-weight="260" letter-spacing="-1.33333337" fill="#FFFFFF">
                    <tspan x="98" y="61">3.</tspan>
                </text>
                <g id="Imported-Layers" transform="translate(36.000000, 109.000000)" fill="#FFFFFF" sketch:type="MSShapeGroup">
                    <path d="M63.7044422,10.7047059 L81.9932864,10.7047059 L79.0567236,8.29694118 L79.0567236,2.59041176 L91.9992362,13.2149118 L79.0567236,23.8854706 L79.0567236,18.1797353 L81.9666332,15.7703824 L63.7044422,15.7703824 L63.7044422,10.7047059" id="Fill-1"></path>
                    <path d="M5.54623116,5.43255882 L5.54623116,19.8410294 L14.6373467,19.8410294 L7.33670352,5.43255882 L5.54623116,5.43255882" id="Fill-2"></path>
                    <path d="M46.4480201,6.88102941 L46.4480201,2.55467647 C46.4480201,0.963264706 45.1404422,-0.323205882 43.5318392,-0.323205882 L2.63005025,-0.323205882 C1.0120402,-0.323205882 -0.295537688,0.963264706 -0.295537688,2.55467647 L-0.295537688,22.7189118 C-0.295537688,24.3103235 1.0120402,25.5967941 2.63005025,25.5967941 L43.5318392,25.5967941 C45.1404422,25.5967941 46.4480201,24.3103235 46.4480201,22.7189118 L46.4480201,18.3925588 L49.373608,18.3925588 L49.373608,6.88102941 L46.4480201,6.88102941 L46.4480201,6.88102941 Z M43.5318392,21.2799706 C43.5318392,22.0709118 42.8733467,22.7189118 42.0737487,22.7189118 L4.0881407,22.7189118 C3.27913568,22.7189118 2.63005025,22.0709118 2.63005025,21.2799706 L2.63005025,3.99361765 C2.63005025,3.20267647 3.27913568,2.55467647 4.0881407,2.55467647 L42.0737487,2.55467647 C42.8733467,2.55467647 43.5318392,3.20267647 43.5318392,3.99361765 L43.5318392,21.2799706 L43.5318392,21.2799706 Z" id="Fill-3"></path>
                    <path d="M110.897186,5.43255882 L145.93996,5.43255882 L145.93996,19.8410294 L110.897186,19.8410294 L110.897186,5.43255882 Z" id="Fill-4"></path>
                    <path d="M151.798975,6.88102941 L151.798975,2.55467647 C151.798975,0.963264706 150.491397,-0.323205882 148.882794,-0.323205882 L107.981005,-0.323205882 C106.362995,-0.323205882 105.055417,0.963264706 105.055417,2.55467647 L105.055417,22.7189118 C105.055417,24.3103235 106.362995,25.5967941 107.981005,25.5967941 L148.882794,25.5967941 C150.491397,25.5967941 151.798975,24.3103235 151.798975,22.7189118 L151.798975,18.3925588 L154.724563,18.3925588 L154.724563,6.88102941 L151.798975,6.88102941 L151.798975,6.88102941 Z M148.882794,21.2799706 C148.882794,22.0709118 148.224302,22.7189118 147.424704,22.7189118 L109.439095,22.7189118 C108.63009,22.7189118 107.981005,22.0709118 107.981005,21.2799706 L107.981005,3.99361765 C107.981005,3.20267647 108.63009,2.55467647 109.439095,2.55467647 L147.424704,2.55467647 C148.224302,2.55467647 148.882794,3.20267647 148.882794,3.99361765 L148.882794,21.2799706 L148.882794,21.2799706 Z" id="Fill-5"></path>
                </g>
                <g id="Line" transform="translate(0.000000, 80.000000)" stroke-linecap="square" stroke="#FFFFFF" sketch:type="MSShapeGroup">
                    <path d="M0.497787611,1.5 L224.875796,1.5"></path>
                </g>
            </g>
        </g>
    </g>
</svg>