<?xml version="1.0" encoding="UTF-8" standalone="no"?>
<svg width="100px" height="100px" viewBox="0 0 100 100" version="1.1" xmlns="http://www.w3.org/2000/svg" xmlns:xlink="http://www.w3.org/1999/xlink" xmlns:sketch="http://www.bohemiancoding.com/sketch/ns">
    <!-- Generator: Sketch 3.1.1 (8761) - http://www.bohemiancoding.com/sketch -->
    <title>mobilPlus-clients-advetisers-3</title>
    <desc>Created with Sketch.</desc>
    <defs></defs>
    <g id="utilities" stroke="none" stroke-width="1" fill="none" fill-rule="evenodd" sketch:type="MSPage">
        <g id="mobilPlus-clients-advetisers-3" sketch:type="MSArtboardGroup">
            <rect id="Rectangle-52" fill="#979797" sketch:type="MSShapeGroup" x="0" y="0" width="100" height="100"></rect>
            <g id="Group-+-Fill-8" sketch:type="MSLayerGroup" transform="translate(25.000000, 16.000000)" fill="#FFFFFF">
                <g id="Group" transform="translate(0.000000, 48.109091)" sketch:type="MSShapeGroup">
                    <path d="M1.05019087,5.26360563 L-0.348349357,5.26360563 C-0.482945709,5.26360563 -0.482945709,5.00949219 -0.482945709,4.81315967 C-0.482945709,4.61713367 -0.482945709,4.36363329 -0.348349357,4.36363329 L1.05019087,4.36363329 L1.05019087,1.85744328 C1.05019087,1.74096184 1.35814011,1.74096184 1.56964866,1.74096184 C1.81826135,1.74096184 2.0886558,1.74096184 2.0886558,1.85744328 L2.0886558,4.36363329 L4.48525201,4.36363329 C4.60016966,4.36363329 4.60016966,4.57897068 4.60016966,4.81315967 C4.60016966,5.04857478 4.60016966,5.26360563 4.48525201,5.26360563 L2.0886558,5.26360563 L2.0886558,12.969159 C2.0886558,13.2822795 2.1074332,13.8694379 2.85507387,13.8694379 L4.46587375,13.8694379 C4.58154249,13.8694379 4.58154249,14.1046997 4.58154249,14.2984268 C4.58154249,14.4952191 4.58154249,14.7292548 4.46587375,14.7292548 L2.64311466,14.7292548 C1.39779796,14.7292548 1.05019087,13.9661481 1.05019087,12.8508384 L1.05019087,5.26360563" id="Fill-1"></path>
                    <path d="M6.32693871,9.95504866 L6.32693871,10.9711959 C6.32693871,13.1835768 7.76528701,14.0254617 9.28039729,14.0254617 C10.7635109,14.0254617 11.6654266,13.5941739 12.4138184,13.1835768 C12.5296374,13.1251828 12.6628817,13.3794496 12.7581207,13.5550913 C12.8548618,13.7314994 12.9878057,13.9862259 12.8548618,14.0648508 C11.8758836,14.632238 11.0888856,14.9651297 9.31840273,14.9651297 C6.78781104,14.9651297 5.29072706,13.5163152 5.29072706,11.0501274 L5.29072706,7.80075519 C5.29072706,5.26360563 6.57615227,3.93234545 9.1094479,3.93234545 C11.6448466,3.93234545 13.0264121,5.22452305 13.0264121,7.742821 L13.0264121,9.95504866 L6.32693871,9.95504866 L6.32693871,9.95504866 Z M11.9915524,7.91984213 C11.9915524,5.71374507 10.6098367,4.89163137 9.1094479,4.89163137 C7.63219285,4.89163137 6.32693871,5.69397388 6.32693871,7.91984213 L6.32693871,8.99530294 L11.9915524,8.99530294 L11.9915524,7.91984213 L11.9915524,7.91984213 Z" id="Fill-2"></path>
                    <path d="M14.6382635,12.8508384 L14.6382635,0.429166325 C14.6382635,0.311765301 14.9643892,0.311765301 15.1574208,0.311765301 C15.3480489,0.311765301 15.6743249,0.311765301 15.6743249,0.429166325 L15.6743249,12.969159 C15.6743249,13.2822795 15.6938534,13.8694379 16.4410434,13.8694379 L17.1137247,13.8694379 C17.2280415,13.8694379 17.2280415,14.1046997 17.2280415,14.2984268 C17.2280415,14.4952191 17.2280415,14.7292548 17.1137247,14.7292548 L16.2302859,14.7292548 C14.9839177,14.7292548 14.6382635,13.9661481 14.6382635,12.8508384" id="Fill-3"></path>
                    <path d="M18.9127492,9.95504866 L18.9127492,10.9711959 C18.9127492,13.1835768 20.3510975,14.0254617 21.8668086,14.0254617 C23.3625406,14.0254617 24.264907,13.5941739 25.0126979,13.1835768 C25.1285169,13.1251828 25.2625124,13.3794496 25.3592535,13.5550913 C25.4544924,13.7314994 25.5881875,13.9862259 25.4544924,14.0648508 C24.4765658,14.632238 23.6888166,14.9651297 21.9048141,14.9651297 C19.3734713,14.9651297 17.8763873,13.5163152 17.8763873,11.0501274 L17.8763873,7.80075519 C17.8763873,5.26360563 19.1622632,3.93234545 21.6943571,3.93234545 C24.2458292,3.93234545 25.6278453,5.22452305 25.6278453,7.742821 L25.6278453,9.95504866 L18.9127492,9.95504866 L18.9127492,9.95504866 Z M24.5922346,7.91984213 C24.5922346,5.71374507 23.2088665,4.89163137 21.6943571,4.89163137 C20.2162007,4.89163137 18.9127492,5.69397388 18.9127492,7.91984213 L18.9127492,8.99530294 L24.5922346,8.99530294 L24.5922346,7.91984213 L24.5922346,7.91984213 Z" id="Fill-4"></path>
                    <path d="M34.0160823,14.8078798 C33.8238018,14.8078798 33.4985773,14.8078798 33.4985773,14.6909385 L33.4985773,7.742821 C33.4985773,5.53749027 32.6917503,4.89163137 31.196469,4.89163137 C29.7178619,4.89163137 28.2611869,7.25298592 28.2611869,7.25298592 L28.2611869,14.6909385 C28.2611869,14.8078798 27.9337092,14.8078798 27.7430811,14.8078798 C27.5501997,14.8078798 27.2239237,14.8078798 27.2239237,14.6909385 L27.2239237,4.1676073 C27.2239237,4.04989974 27.5501997,4.04989974 27.7430811,4.04989974 C27.9337092,4.04989974 28.2419589,4.04989974 28.2419589,4.1676073 L28.2419589,6.04694328 C28.6239661,5.53749027 29.5267832,3.93234545 31.445983,3.93234545 C33.4410434,3.93234545 34.5335872,5.20490512 34.5335872,7.19413214 L34.5335872,14.6909385 C34.5335872,14.8078798 34.2082126,14.8078798 34.0160823,14.8078798" id="Fill-5"></path>
                    <path d="M36.1069825,11.1471442 L36.1069825,7.742821 C36.1069825,5.20490512 37.5641082,3.93234545 40.0980047,3.93234545 C42.6493267,3.93234545 44.11171,5.22452305 44.11171,7.742821 L44.11171,11.1471442 C44.11171,13.6734119 42.6493267,14.9651297 40.0980047,14.9651297 C37.5641082,14.9651297 36.1069825,13.6927233 36.1069825,11.1471442 L36.1069825,11.1471442 Z M40.0980047,4.89163137 C38.6212003,4.89163137 37.1421427,5.69397388 37.1421427,7.91984213 L37.1421427,10.9711959 C37.1421427,13.1835768 38.6013714,14.0254617 40.0980047,14.0254617 C41.5940372,14.0254617 43.0899194,13.2228127 43.0899194,10.9711959 L43.0899194,7.91984213 C43.0899194,5.71374507 41.6138661,4.89163137 40.0980047,4.89163137 L40.0980047,4.89163137 Z" id="Fill-6"></path>
                    <path d="M47.5455694,6.35960397 C47.0858988,6.94001869 46.6056482,7.64473137 46.6056482,7.64473137 L46.6056482,14.6909385 C46.6056482,14.8078798 46.279222,14.8078798 46.0878429,14.8078798 C45.8954121,14.8078798 45.5889651,14.8078798 45.5889651,14.6909385 L45.5889651,4.1676073 C45.5889651,4.04989974 45.9137389,4.04989974 46.1073713,4.04989974 C46.2984501,4.04989974 46.6056482,4.04989974 46.6056482,4.1676073 L46.6056482,6.53585877 C46.6056482,6.53585877 47.1423812,5.75344072 47.3340609,5.47878976 C48.0815513,4.44179846 48.5631539,4.08959539 49.4832461,4.08959539 L49.8676569,4.08959539 C49.9827248,4.08959539 49.9827248,4.46080333 49.9827248,4.65698259 C49.9827248,4.85239552 49.9827248,5.22452305 49.8676569,5.22452305 C48.7156263,5.22452305 48.3701223,5.32261268 47.5455694,6.35960397" id="Fill-7"></path>
                </g>
                <path d="M24.1078693,13.3317887 C24.3273395,13.1627373 24.9091382,12.7228666 24.994012,12.657729 C25.1335656,11.6812774 25.4783185,10.0375098 26.2762826,8.35266715 C27.1350855,6.5398482 28.512595,4.53728712 30.4349494,3.20817265 C32.0471012,2.09347598 34.7058298,0.868888273 36.756922,0.416603126 C38.4393764,0.0457017176 40.0159263,-0.0240338778 41.3630916,0.100570604 C44.140944,0.357596084 45.6776858,1.16652899 46.4442541,2.21348251 C46.733426,2.6085998 46.8913063,3.09169122 46.9018216,3.40450517 C46.9192471,3.92407368 46.6934677,4.60625639 45.9641538,5.27188648 C45.2525657,5.92142374 43.7359532,6.73372848 41.6596242,7.44288584 C39.5083359,8.1774852 36.5735045,8.9557651 33.6419779,9.64453821 C31.1863455,10.2217344 29.1969934,10.8777088 28.0433104,11.3206447 C27.7005103,11.4522994 27.4751816,11.5586654 27.1729407,11.6984431 C26.9884716,12.1490423 26.5636518,13.3561578 26.4559447,13.9915947 C28.6052802,14.8705697 29.9993139,16.0287937 31.0775869,16.9309117 C32.4765778,18.1010903 34.1002965,19.4761843 36.1052714,21.9682739 C37.9334384,24.240275 40.9103311,28.5982132 41.9893552,32.8283285 C43.1717301,37.4632167 42.4276947,41.8685139 39.8696129,43.0934081 C37.3579488,44.2960789 34.0058086,42.5579001 31.6574328,40.0647376 C29.4196182,37.6892826 27.8583906,34.8997056 26.3892474,30.6016939 C25.1233507,26.8977376 24.6055453,21.5313153 24.6090004,18.7274846 C24.6102021,17.79502 24.610803,17.2359091 24.6443019,16.3903459 C23.6150003,15.7156732 22.4112943,15.7527633 21.0524119,16.5541862 C18.5709419,18.0177141 16.0039972,21.1648586 14.6359514,22.8110784 C14.0377788,23.5309643 13.2299003,24.5828223 12.3736511,25.681886 C11.2426512,27.1334592 9.99973802,28.6484842 8.86197823,29.4931278 C7.15293504,30.7615493 4.40707932,31.2961378 2.48337297,29.8914637 C1.41020741,29.1079728 0.842379049,27.6308043 0.824953629,26.1301862 C0.812635659,25.0623887 1.06665623,24.1029495 1.58491227,23.1674196 C2.22769999,22.007663 3.28734582,20.7646835 4.97175308,19.3410045 C6.71129076,17.8708862 9.48688986,16.2202217 12.2681973,15.074259 C16.5108366,13.3262711 21.079902,12.7705321 24.1078693,13.3317887" id="Fill-8" sketch:type="MSShapeGroup"></path>
            </g>
        </g>
    </g>
</svg>