<?xml version="1.0" encoding="UTF-8" standalone="no"?>
<svg width="100px" height="100px" viewBox="0 0 100 100" version="1.1" xmlns="http://www.w3.org/2000/svg" xmlns:xlink="http://www.w3.org/1999/xlink" xmlns:sketch="http://www.bohemiancoding.com/sketch/ns">
    <!-- Generator: Sketch 3.1.1 (8761) - http://www.bohemiancoding.com/sketch -->
    <title>mobilPlus-clients-advetisers-5</title>
    <desc>Created with Sketch.</desc>
    <defs></defs>
    <g id="utilities" stroke="none" stroke-width="1" fill="none" fill-rule="evenodd" sketch:type="MSPage">
        <g id="mobilPlus-clients-advetisers-5" sketch:type="MSArtboardGroup">
            <rect id="Rectangle-52" fill="#979797" sketch:type="MSShapeGroup" x="0" y="0" width="100" height="100"></rect>
            <g id="Imported-Layers" sketch:type="MSLayerGroup" transform="translate(10.000000, 19.000000)" fill="#FFFFFF">
                <path d="M56.6518728,37.53222 C55.909258,35.299245 52.9156184,29.69472 50.5631095,26.541195 C50.0534276,25.853775 50.2450883,25.50066 50.5167491,25.27779 C50.7872792,25.055775 51.6630389,24.2934 52.699364,23.098395 C53.745583,21.891135 53.9977385,20.527125 53.2576678,18.5535 C52.5212721,16.5984 50.0884806,11.950905 49.5782332,10.41105 C48.9925088,8.63607 48.9328622,7.84662 49.2862191,6.87933 C49.7017668,5.74047 50.3098233,5.692305 50.7669258,5.699145 C51.0125795,5.704275 51.1957597,5.965335 51.1971731,6.08532 C51.2090459,6.58692 51.2347703,7.206795 51.720424,8.5044 C52.4955477,10.569225 54.4859364,11.91813 55.1137809,12.19059 C55.5516608,12.381255 55.6299647,12.039825 55.5920848,11.875095 C55.5516608,11.71179 54.9034629,9.151635 54.4169611,7.227315 C53.9089753,5.21151 53.6534276,4.774035 53.2016961,4.34682 C52.4811307,3.657975 51.385159,3.2889 50.4576678,3.324525 C48.3920848,3.405465 47.4781625,5.418705 47.3659364,5.60538 C47.2661484,5.77239 47.2282686,5.89038 47.0176678,5.74275 C46.4279859,5.32665 44.7013428,3.874005 44.5427562,2.963715 C44.4491873,2.426205 44.3567491,2.350395 43.8233216,2.14206 C41.7495406,1.326105 39.9525088,0.60876 37.9643816,0.254505 C37.1666431,0.113715 37.1239576,0.04332 36.1933569,0.21831 C34.6134276,0.516135 33.644947,0.88293 32.4576678,1.510785 C31.8026855,1.85991 31.7269258,2.094465 31.6,2.26062 C31.5016254,2.390295 31.3956184,2.546475 31.159576,2.62428 C30.7652297,2.753955 29.2989399,3.30429 28.7957597,3.599265 C28.4819788,3.78252 28.3115194,3.976605 28.4718021,4.333995 C28.7527915,4.963845 29.5974558,6.277125 29.9657951,6.60858 C30.1888339,6.80694 30.7493993,6.94488 30.8828269,6.972525 C31.0159717,7.005585 31.1095406,7.044915 31.159576,6.94488 C31.2141343,6.834585 31.2344876,6.67413 31.4962544,6.48831 C31.8897527,6.21072 32.6219081,6.01749 33.0114488,5.98272 C33.3093993,5.95764 33.4917314,5.94795 33.6452297,6.0591 C33.7978799,6.172815 34.1509541,6.551865 34.2733569,6.93348 C34.3960424,7.314525 34.3197173,7.458165 34.1077032,7.547655 C33.895689,7.636575 33.260212,7.782495 32.5238163,7.84206 C31.7902473,7.902195 31.5813428,7.69728 31.5287633,7.65168 C31.4906007,7.6095 31.3933569,7.545945 31.3184452,7.64598 C31.1957597,7.820115 31.010318,7.931835 30.7233922,8.07576 C30.5597173,8.155275 30.4732155,8.329695 30.6275618,8.60187 C31.0959717,9.417255 31.7116608,10.33296 32.2835336,10.507665 C32.7375265,10.64988 32.9814841,10.49997 33.4937102,10.131465 C33.95053,9.798015 34.2481979,9.799725 34.3739929,9.89292 C34.5108127,9.99723 34.7878445,10.233495 34.7168905,10.46805 C34.5947703,10.878165 33.7778092,11.852865 33.6203534,12.054075 C33.4727915,12.243885 33.3334276,12.345915 33.0685512,12.21795 C32.6815548,12.03156 26.8084806,8.959545 26.0248763,8.65146 C25.16947,8.32086 24.6072085,8.23992 23.7659364,8.20059 C23.0852297,8.17095 22.1763958,8.23707 21.6079152,8.34081 C21.1934982,8.41833 20.9574558,8.615835 20.5713074,8.976075 C20.039576,9.471405 19.4775972,10.10553 19.424735,10.63392 C19.3868551,11.01354 19.8060777,11.78931 19.8521555,11.84346 C19.8979505,11.901885 19.974841,12.008475 20.2029682,11.983395 C20.4344876,11.957175 21.0162544,11.652795 21.7091166,11.773635 C22.3378092,11.883645 22.4011307,12.381255 22.4330742,12.76287 C22.4381625,12.828135 22.5181625,12.976335 22.6954064,12.974055 C22.9461484,12.970635 23.3373852,12.978045 23.7891166,13.19664 C24.3468551,13.4634 25.449894,14.324955 25.6192226,14.515335 C25.7566078,14.671515 25.7475618,14.81145 25.4855124,14.83767 C24.084523,14.962215 21.9539223,15.382305 20.9673498,15.70863 C20.2677032,15.93948 19.4422615,16.2564 19.1513781,16.76712 C18.8203534,17.34624 18.4016961,18.27648 18.2826855,18.939105 C18.1625442,19.60002 18.8636042,20.41854 19.0513074,20.60094 C19.1773852,20.72463 19.2633216,20.802435 19.4866431,20.678745 C19.829258,20.48067 20.6575265,19.966245 21.450742,19.918365 C21.9315901,19.889865 22.1246643,20.346435 22.2394346,20.514015 C22.3559011,20.679315 22.4672792,20.5656 22.8975265,20.44818 C23.6616254,20.241555 27.9225442,20.319645 29.4269965,20.390895 C30.1144876,20.420535 31.0722261,20.523705 31.7761131,20.915865 C32.4768905,21.304605 33.7438869,22.50987 33.7438869,22.50987 C33.7438869,22.50987 32.0599293,25.356165 31.1539223,27.042795 C30.314629,28.60146 29.7017668,29.77224 29.3998587,30.450255 C29.1216961,31.069845 28.8949823,31.94964 28.9450177,32.64276 C29.0199293,33.655935 29.0467845,34.17606 29.0343463,34.63491 C29.0216254,35.03904 28.6490459,35.0835 28.1190106,35.2146 C27.3885512,35.40156 25.9330035,35.53665 24.7533569,35.829915 C23.6808481,36.098955 23.2811307,36.35403 23.0874912,37.18965 C22.9379505,37.83945 22.7163251,39.45711 22.6906007,40.205805 C22.6775972,40.50876 22.6719435,40.656105 23.0530035,40.57716 C23.2712367,40.534125 23.9024735,40.442355 24.705583,40.38279 C25.7012014,40.306125 26.7785159,40.3218 27.6118728,40.31895 C29.1437456,40.30983 33.6678445,40.57716 33.9722968,40.606515 C34.3590106,40.645275 34.4370318,40.59825 34.4110247,40.326075 C34.3739929,39.965835 34.3086926,38.820135 34.2928622,38.136705 C34.2733569,37.450425 34.1713074,36.75531 34.784735,36.08841 C35.3947703,35.420655 40.005371,30.23565 40.2612014,29.97003 C40.484523,29.74374 40.6334982,29.50377 40.9755477,29.820405 C41.3229682,30.140745 45.1174558,32.89983 45.8889046,33.463845 C46.6612014,34.02786 47.3775265,34.219665 48.2566784,34.23192 C48.8825442,34.24332 49.0569611,35.3457 48.5246643,35.449155 C47.9771025,35.555175 47.144311,35.72703 46.5619788,35.861265 C45.6636042,36.072735 45.3888339,36.36828 45.1174558,36.979605 C44.8867845,37.494885 44.6332155,40.026825 44.6238869,40.24542 C44.6176678,40.402455 44.6080565,40.631025 44.8559717,40.57887 C45.9629682,40.353435 47.7198587,40.28817 49.5974558,40.347735 C51.7534982,40.41528 53.8470671,40.59483 54.1407774,40.612215 C54.4579505,40.633875 54.4887633,40.586565 54.6481979,40.33662 C54.9215548,39.907125 55.7325795,38.96235 56.4381625,38.37867 C56.7909541,38.088825 56.7985866,37.96884 56.6518728,37.53222 L56.6518728,37.53222 Z M34.934841,2.521965 C34.9167491,2.57184 34.8768905,2.619435 34.784735,2.64993 C34.5704594,2.7189 33.3509541,3.17091 33.1426148,3.257835 C32.9902473,3.322245 32.8913074,3.248715 32.8627562,3.150105 C32.8327915,3.055485 32.8638869,2.80839 32.9337102,2.695815 C33.0035336,2.58153 33.0592226,2.546475 33.1660777,2.51199 C33.269258,2.476365 34.2532862,2.20932 34.5611307,2.15973 C34.7674912,2.1261 34.944735,2.080785 34.9650883,2.25207 C34.9746996,2.336145 34.9650883,2.441595 34.934841,2.521965 L34.934841,2.521965 Z M48.3691873,22.21974 C47.8224735,22.400715 47.4660071,22.24482 47.2002827,21.98832 C46.9322968,21.730965 44.7570318,19.091295 44.0573852,18.28446 C43.7045936,17.877765 43.4408481,16.949235 44.5020495,16.55337 C45.3727208,16.233885 46.8935689,15.84315 47.3659364,15.71091 C47.9915194,15.53592 48.3242403,15.185655 48.364947,14.679495 C48.3790813,14.50251 48.3844523,14.322105 48.3926502,14.13258 C48.4019788,13.93992 48.3983039,13.7769 48.4059364,13.55631 C48.4121555,13.378755 48.5529329,13.33173 48.6405654,13.450005 C48.7369611,13.578825 48.9588693,14.26368 49.4349117,15.15117 C50.1472792,16.485255 50.9944876,18.153075 51.2870671,18.86985 C51.5635336,19.55442 51.4284099,20.076825 51.0072085,20.60322 C50.4361837,21.31458 48.7697527,22.087785 48.3691873,22.21974 L48.3691873,22.21974 Z" id="Fill-1" sketch:type="MSShapeGroup"></path>
                <path d="M27.1881272,19.454385 C25.6056537,19.457235 24.1125088,19.50141 23.5994346,19.545015 C23.4253004,19.560405 23.2890459,19.59375 23.1853004,19.537035 C23.0784452,19.47861 23.1553357,19.273695 23.3088339,19.114095 C23.4448057,18.97302 24.0839576,18.4509 24.4910247,18.35514 C24.9082686,18.259665 26.2018375,18.124005 26.8248763,18.08781 C27.0007067,18.078405 29.2658657,17.874345 29.475053,17.884605 C29.6808481,17.894295 30.2959717,18.81969 30.9060071,19.488585 C30.8353357,19.494 28.8621908,19.450395 27.1881272,19.454385" id="Fill-2" sketch:type="MSShapeGroup"></path>
                <path d="M31.1886926,31.30896 C30.7256537,32.203575 30.7349823,32.57493 30.7477032,33.40371 C30.7607067,34.193445 30.8537102,35.16729 30.8028269,35.621865 C30.7530742,36.08157 30.4621908,36.27765 30.0070671,36.40533 C29.5527915,36.531015 26.8616254,36.967065 26.2660071,37.14405 C25.6723675,37.32189 25.5366784,37.65762 25.4368905,38.090535 C25.3354064,38.52345 25.3074205,38.68305 25.2828269,38.855475 C25.2616254,39.00624 25.2653004,39.17325 25.08947,39.186075 C24.9215548,39.198045 24.3078445,39.237945 24.115053,39.26559 C23.9188693,39.290955 23.8925795,39.24963 23.8979505,39.039015 C23.905583,38.82441 24.0995053,37.87992 24.2326502,37.383165 C24.3643816,36.882705 24.5755477,36.54612 25.2511661,36.38025 C25.9239576,36.215805 28.660636,35.75211 29.1759717,35.6592 C29.7820495,35.548335 29.9304594,35.288985 29.9004947,34.701315 C29.8719435,34.08657 29.7834629,33.23328 29.7679152,32.708025 C29.7503887,32.179635 29.7820495,31.74729 29.955053,31.27818 C30.144735,30.76404 31.1180212,28.637655 31.9301767,27.13884 C33.0527208,25.069455 34.4356184,22.85301 34.7072792,22.52298 C34.924947,22.25451 35.0744876,22.149345 35.3424735,22.23342 C35.5361131,22.295265 36.0522968,22.661205 36.3293286,22.86555 C36.5520848,23.02914 36.7270671,23.16024 36.7270671,23.16024 C34.854841,25.51833 32.0808481,29.5887 31.1886926,31.30896" id="Fill-3" sketch:type="MSShapeGroup"></path>
                <path d="M-0.0293992933,45.987005 L-0.0293992933,52.81304 L1.83547703,52.81304 L1.83547703,50.71316 L3.50473498,50.71316 C7.08636042,50.71316 8.91081272,49.554635 8.91081272,48.27299 C8.91081272,46.897865 6.95208481,45.987005 3.66756184,45.987005 L-0.0293992933,45.987005 L-0.0293992933,45.987005 Z M1.83547703,49.976435 L1.83547703,46.74881 L3.30176678,46.74881 C4.81696113,46.74881 6.81667845,47.007305 6.81667845,48.27299 C6.81667845,49.13312 6.16791519,49.976435 3.05922261,49.976435 L1.83547703,49.976435 L1.83547703,49.976435 Z" id="Fill-4" sketch:type="MSShapeGroup"></path>
                <path d="M19.5426148,52.81304 L19.5426148,51.953765 L14.9475618,51.953765 C13.9609894,51.953765 13.6760424,51.50375 13.6760424,50.74052 L13.6760424,49.74074 L19.0691166,49.74074 L19.0691166,48.884315 L13.6760424,48.884315 L13.6760424,46.84343 L19.3125088,46.84343 L19.3125088,45.987005 L11.8114488,45.987005 L11.8114488,50.781845 C11.8114488,52.063205 12.3389399,52.81304 14.0554064,52.81304 L19.5426148,52.81304" id="Fill-5" sketch:type="MSShapeGroup"></path>
                <path d="M31.4744876,45.987005 L29.6101767,45.987005 L29.6101767,51.74828 C29.0959717,51.92726 28.4076325,52.090565 27.4069258,52.090565 C25.9742756,52.090565 24.554629,51.72263 24.554629,50.454095 L24.554629,45.987005 L22.690318,45.987005 L22.690318,50.59061 C22.690318,52.47218 24.554629,53.02964 26.6091873,53.02964 C28.5684806,53.02964 30.1642403,52.620095 31.4744876,52.063205 L31.4744876,45.987005" id="Fill-6" sketch:type="MSShapeGroup"></path>
                <path d="M36.6586572,49.41926 C36.6586572,47.525435 38.254417,46.63766 40.199576,46.63766 C41.7939223,46.63766 43.0244523,47.101925 44.1874205,47.498645 L44.1874205,46.353515 C42.9571731,45.987005 41.7939223,45.78095 40.199576,45.78095 C37.0787279,45.78095 34.5371025,47.22476 34.5371025,49.41926 C34.5371025,51.73688 37.0787279,53.02964 40.199576,53.02964 C41.7551943,53.02964 43.3893993,52.704455 44.3903887,52.446245 L44.3903887,49.74074 L42.5526502,49.74074 L42.5526502,51.763385 C41.8767491,51.994805 41.3893993,52.17293 40.3355477,52.17293 C38.2139929,52.17293 36.6586572,51.110735 36.6586572,49.41926" id="Fill-7" sketch:type="MSShapeGroup"></path>
                <path d="M55.5188693,52.81304 L55.5188693,51.953765 L50.9226855,51.953765 C49.9366784,51.953765 49.6525795,51.50375 49.6525795,50.74052 L49.6525795,49.74074 L55.0465018,49.74074 L55.0465018,48.884315 L49.6525795,48.884315 L49.6525795,46.84343 L55.2890459,46.84343 L55.2890459,45.987005 L47.7882686,45.987005 L47.7882686,50.781845 C47.7882686,52.063205 48.3143463,52.81304 50.0313781,52.81304 L55.5188693,52.81304" id="Fill-8" sketch:type="MSShapeGroup"></path>
                <path d="M63.609894,45.78095 C60.4890459,45.78095 57.934417,47.25269 57.934417,49.4546 C57.934417,51.763385 60.4890459,53.02964 63.609894,53.02964 C66.7324382,53.02964 69.2732155,51.763385 69.2732155,49.4546 C69.2732155,47.25269 66.7324382,45.78095 63.609894,45.78095 M63.609894,52.26755 C61.4880565,52.26755 60.0559717,51.164315 60.0559717,49.4546 C60.0559717,47.579015 61.6508834,46.63766 63.609894,46.63766 C65.5564664,46.63766 67.1508127,47.579015 67.1508127,49.4546 C67.1508127,51.164315 65.7178799,52.26755 63.609894,52.26755" id="Fill-9" sketch:type="MSShapeGroup"></path>
                <path d="M70.8031095,46.96598 L74.5201413,46.96598 L74.5201413,52.81304 L76.3853004,52.81304 L76.3853004,46.96598 L80.1020495,46.96598 L80.1020495,45.987005 L70.8031095,45.987005 L70.8031095,46.96598" id="Fill-10" sketch:type="MSShapeGroup"></path>
            </g>
        </g>
    </g>
</svg>