<?xml version="1.0" encoding="UTF-8" standalone="no"?>
<svg width="221px" height="623px" viewBox="0 0 221 623" version="1.1" xmlns="http://www.w3.org/2000/svg" xmlns:xlink="http://www.w3.org/1999/xlink" xmlns:sketch="http://www.bohemiancoding.com/sketch/ns">
    <!-- Generator: Sketch 3.1.1 (8761) - http://www.bohemiancoding.com/sketch -->
    <title>mobilPlus-productLineClassicWireframe</title>
    <desc>Created with Sketch.</desc>
    <defs></defs>
    <g id="utilities" stroke="none" stroke-width="1" fill="none" fill-rule="evenodd" sketch:type="MSPage">
        <g id="mobilPlus-productLineClassicWireframe" sketch:type="MSArtboardGroup">
            <g id="wireframe-2" sketch:type="MSLayerGroup">
                <g id="meretek-viszintes-classic" transform="translate(25.576271, 0.000000)">
                    <path d="M-0.0714584641,7.5 L80.9266654,7.5" id="Line" stroke="#F16434" stroke-linecap="square" sketch:type="MSShapeGroup"></path>
                    <text id="65" sketch:type="MSTextLayer" font-family="Sica" font-size="11.5266667" font-weight="bold" fill="#F16434">
                        <tspan x="89.220339" y="11">65</tspan>
                    </text>
                    <path d="M108.725152,7.5 L189.723276,7.5" id="Line-7" stroke="#F16434" stroke-linecap="square" sketch:type="MSShapeGroup"></path>
                </g>
                <g id="meretek-fuggoleges-classic" transform="translate(0.000000, 303.943598)" font-size="11.5266667" font-family="Sica" fill="#F16434" sketch:type="MSTextLayer" font-weight="bold">
                    <text id="190">
                        <tspan x="0" y="10.9588415">190</tspan>
                    </text>
                </g>
                <g id="dobozrajz" transform="translate(20.728814, 19.943598)" sketch:type="MSShapeGroup">
                    <ellipse id="Oval-8" stroke="#979797" stroke-width="0.95" cx="100.271186" cy="574.565549" rx="100" ry="28.4908537"></ellipse>
                    <rect id="Rectangle-19" stroke="#979797" stroke-width="0.95" fill="#FFFFFF" x="4.27118644" y="0.056402439" width="192" height="581"></rect>
                    <rect id="Rectangle-20" stroke="#979797" stroke-width="0.95" fill="#FFFFFF" x="9.27118644" y="50.0564024" width="182" height="244"></rect>
                    <g id="nyito-ajto-5" transform="translate(133.033898, 359.135671)" stroke="#979797" stroke-width="0.95">
                        <rect id="Rectangle-21" x="0" y="0" width="53.1525424" height="46.535061" rx="4.75"></rect>
                        <path d="M15.6610169,22.7926829 C18.0199281,22.7926829 19.9322034,20.8793145 19.9322034,18.5190549 C19.9322034,16.1587953 18.0199281,14.2454268 15.6610169,14.2454268 C13.3021058,14.2454268 11.3898305,16.1587953 11.3898305,18.5190549 C11.3898305,20.8793145 13.3021058,22.7926829 15.6610169,22.7926829 Z" id="Oval-9"></path>
                        <rect id="Rectangle-22" x="40.8135593" y="8.5472561" width="7.59322034" height="29.4405488" rx="2.85"></rect>
                    </g>
                    <g id="nyito-ajto-4" transform="translate(75.135593, 359.135671)" stroke="#979797" stroke-width="0.95">
                        <rect id="Rectangle-21" x="0" y="0" width="53.1525424" height="46.535061" rx="4.75"></rect>
                        <path d="M15.6610169,22.7926829 C18.0199281,22.7926829 19.9322034,20.8793145 19.9322034,18.5190549 C19.9322034,16.1587953 18.0199281,14.2454268 15.6610169,14.2454268 C13.3021058,14.2454268 11.3898305,16.1587953 11.3898305,18.5190549 C11.3898305,20.8793145 13.3021058,22.7926829 15.6610169,22.7926829 Z" id="Oval-9"></path>
                        <rect id="Rectangle-22" x="40.8135593" y="8.5472561" width="7.59322034" height="29.4405488" rx="2.85"></rect>
                    </g>
                    <g id="nyito-ajto-3" transform="translate(17.237288, 359.135671)" stroke="#979797" stroke-width="0.95">
                        <rect id="Rectangle-21" x="0" y="0" width="53.1525424" height="46.535061" rx="4.75"></rect>
                        <path d="M15.6610169,22.7926829 C18.0199281,22.7926829 19.9322034,20.8793145 19.9322034,18.5190549 C19.9322034,16.1587953 18.0199281,14.2454268 15.6610169,14.2454268 C13.3021058,14.2454268 11.3898305,16.1587953 11.3898305,18.5190549 C11.3898305,20.8793145 13.3021058,22.7926829 15.6610169,22.7926829 Z" id="Oval-9"></path>
                        <rect id="Rectangle-22" x="40.8135593" y="8.5472561" width="7.59322034" height="29.4405488" rx="2.85"></rect>
                    </g>
                    <g id="nyito-ajto-2" transform="translate(133.271186, 307.056402)" stroke="#979797" stroke-width="0.95">
                        <rect id="Rectangle-21" x="0" y="0" width="53.1525424" height="46.535061" rx="4.75"></rect>
                        <path d="M15.6610169,22.7926829 C18.0199281,22.7926829 19.9322034,20.8793145 19.9322034,18.5190549 C19.9322034,16.1587953 18.0199281,14.2454268 15.6610169,14.2454268 C13.3021058,14.2454268 11.3898305,16.1587953 11.3898305,18.5190549 C11.3898305,20.8793145 13.3021058,22.7926829 15.6610169,22.7926829 Z" id="Oval-9"></path>
                        <rect id="Rectangle-22" x="40.8135593" y="8.5472561" width="7.59322034" height="29.4405488" rx="2.85"></rect>
                    </g>
                    <g id="nyito-ajto-6" transform="translate(75.271186, 307.056402)" stroke="#979797" stroke-width="0.95">
                        <rect id="Rectangle-21" x="0" y="0" width="53.1525424" height="46.535061" rx="4.75"></rect>
                        <path d="M15.6610169,22.7926829 C18.0199281,22.7926829 19.9322034,20.8793145 19.9322034,18.5190549 C19.9322034,16.1587953 18.0199281,14.2454268 15.6610169,14.2454268 C13.3021058,14.2454268 11.3898305,16.1587953 11.3898305,18.5190549 C11.3898305,20.8793145 13.3021058,22.7926829 15.6610169,22.7926829 Z" id="Oval-9"></path>
                        <rect id="Rectangle-22" x="40.8135593" y="8.5472561" width="7.59322034" height="29.4405488" rx="2.85"></rect>
                    </g>
                    <g id="nyito-ajto" transform="translate(17.237288, 307.056402)" stroke="#979797" stroke-width="0.95">
                        <rect id="Rectangle-21" x="0" y="0" width="53.1525424" height="46.535061" rx="4.75"></rect>
                        <path d="M15.6610169,22.7926829 C18.0199281,22.7926829 19.9322034,20.8793145 19.9322034,18.5190549 C19.9322034,16.1587953 18.0199281,14.2454268 15.6610169,14.2454268 C13.3021058,14.2454268 11.3898305,16.1587953 11.3898305,18.5190549 C11.3898305,20.8793145 13.3021058,22.7926829 15.6610169,22.7926829 Z" id="Oval-9"></path>
                        <rect id="Rectangle-22" x="40.8135593" y="8.5472561" width="7.59322034" height="29.4405488" rx="2.85"></rect>
                    </g>
                    <rect id="Rectangle-23" stroke="#979797" stroke-width="0.95" x="83.2711864" y="5.05640244" width="37.0169492" height="37.9878049" rx="4.75"></rect>
                    <g id="logo-outline" transform="translate(93.169492, 9.496951)">
                        <path d="M18.8890847,4.79828499 L18.8890847,2.34581782 C18.8890847,0.965457226 17.7534237,-0.153425373 16.3534237,-0.153425373 L15.9989153,-0.153425373 C14.5984407,-0.153425373 13.4632542,0.965457226 13.4632542,2.34581782 L13.4632542,4.10178993 L6.69294915,4.10178993 C3.27220339,4.10178993 0.190779661,6.00042892 0.190779661,9.67936356 L0.190779661,28.233543 C0.190779661,29.862752 1.19688136,30.8544038 2.84983051,30.8544038 L13.5989831,30.8544038 C16.6709153,30.8544038 18.8890847,28.66856 18.8890847,25.6407477 L18.8890847,4.79828499 L18.8890847,4.79828499 Z M17.9437288,25.6641357 C17.9437288,28.1778795 16.1488814,29.9464811 13.5989831,29.9464811 L2.84983051,29.9464811 C1.71938983,29.9464811 1.13613559,29.3716037 1.13613559,28.256931 L1.13613559,9.70321933 C1.13613559,6.72218304 3.69837288,5.05695643 6.80494915,5.05695643 L14.4090847,5.05695643 L14.4090847,2.3696736 C14.4090847,1.50384931 15.1209492,0.802208887 15.9989153,0.802208887 L16.3534237,0.802208887 C17.2313898,0.802208887 17.9432542,1.50384931 17.9432542,2.3696736 L17.9437288,25.6641357 L17.9437288,25.6641357 Z" id="Fill-1" fill="#979797"></path>
                        <path d="M2.48155932,17.0058929 L2.48155932,28.2573988 C2.48155932,28.4664876 2.51715254,28.5712659 2.50718644,28.5712659 C2.5299661,28.584831 2.63627119,28.6203807 2.85030508,28.6203807 L13.5989831,28.6203807 C15.3928814,28.6203807 16.5978305,27.4322696 16.5978305,25.6641357 L16.5978305,9.85009606 L2.48155932,17.0058929 L2.48155932,17.0058929 Z M14.1324068,23.8843079 L10.9399322,23.8843079 L10.9399322,27.0309313 L8.1399322,27.0309313 L8.1399322,23.8843079 L4.94745763,23.8843079 L4.94745763,21.1245222 L8.1399322,21.1245222 L8.1399322,17.9778988 L10.9399322,17.9778988 L10.9399322,21.1245222 L14.1324068,21.1245222 L14.1324068,23.8843079 L14.1324068,23.8843079 Z" id="Fill-2" stroke="#979797" stroke-width="0.95"></path>
                    </g>
                </g>
                <path d="M41,81 L41,304 L201,304 L201,212.949219 L201,81 L41,81 Z" id="Rectangle-36" stroke="#F16434" stroke-width="0.95" sketch:type="MSShapeGroup"></path>
                <rect id="Rectangle-34" fill="#FFFFFF" sketch:type="MSShapeGroup" x="108.20339" y="75.1265244" width="30.3728814" height="13.2957317"></rect>
                <text id="54" sketch:type="MSTextLayer" font-family="Sica" font-size="11.5266667" font-weight="bold" fill="#F16434">
                    <tspan x="115.79661" y="85.1265244">54</tspan>
                </text>
                <g id="Rectangle-34-+-710" transform="translate(183.932203, 181.492378)">
                    <rect id="Rectangle-34" fill="#FFFFFF" sketch:type="MSShapeGroup" x="0" y="0" width="25.6271186" height="20.8932927"></rect>
                    <text id="71" sketch:type="MSTextLayer" font-family="Sica" font-size="11.5266667" font-weight="bold" fill="#F16434">
                        <tspan x="10.440678" y="14.7987805">71</tspan>
                    </text>
                </g>
                <g id="mobil-charger-outline-box1" transform="translate(43.661017, 39.887195)" stroke="#979797" sketch:type="MSShapeGroup">
                    <path d="M13.7495169,8.99669931 C13.7495169,9.35010461 13.6139475,9.65305736 13.3428087,9.90543883 C13.07167,10.1578203 12.7462014,10.2840111 12.3665305,10.2840111 C11.9868597,10.2840111 11.6613911,10.1578203 11.3902524,9.90543883 C11.1188585,9.65305736 10.9832891,9.35010461 10.9832891,8.99669931 L10.9832891,6.43691482 C10.9832891,6.08350953 10.8477197,5.78566139 10.5765809,5.54348914 C10.316155,5.29087024 9.99604292,5.1646795 9.61649963,5.1646795 C9.24779679,5.1646795 8.92768467,5.29087024 8.65654588,5.54348914 C8.39612,5.78566139 8.2660346,6.08350953 8.2660346,6.43691482 L8.2660346,8.98150419 C8.2660346,9.3350282 8.1304652,9.64296684 7.85907134,9.90543883 C7.58793255,10.1578203 7.25723505,10.2840111 6.86659624,10.2840111 C6.48705295,10.2840111 6.16145684,10.1578203 5.89031805,9.90543883 C5.61905172,9.65305736 5.48348233,9.35010461 5.48348233,8.99669931 L5.48348233,6.43691482 C5.48348233,6.08350953 5.34791293,5.78566139 5.07677414,5.54348914 C4.81634827,5.29087024 4.50172014,5.1646795 4.1330173,5.1646795 C3.7530914,5.1646795 3.4278779,5.29087024 3.15648404,5.54348914 C2.89631323,5.78566139 2.76610029,6.08350953 2.76610029,6.43691482 L2.76610029,8.98150419 C2.76610029,9.3350282 2.63027583,9.63786223 2.35926457,9.89048114 C2.08812578,10.1428626 1.76252967,10.2690534 1.38298638,10.2690534 C1.00331555,10.2690534 0.677846976,10.1428626 0.406708186,9.89048114 C0.135569395,9.63786223 0,9.3350282 0,8.98150419 L0,6.43691482 C0,5.37681764 0.401224193,4.47318274 1.20392765,3.72577268 C2.01759909,2.96862824 2.99387728,2.5898186 4.1330173,2.5898186 C5.17433819,2.5898186 6.09093014,2.91805697 6.88279315,3.57441502 C7.66394324,2.91805697 8.57517873,2.5898186 9.61649963,2.5898186 C10.7556396,2.5898186 11.7264338,2.96862824 12.5291373,3.72577268 C13.3428087,4.47318274 13.7495169,5.37681764 13.7495169,6.43691482 L13.7495169,8.99669931 L13.7495169,8.99669931 Z M22.926787,6.43691482 C22.926787,7.49724943 22.5255628,8.40598895 21.7227318,9.16337081 C20.9197733,9.91054345 19.9489791,10.2840111 18.8100942,10.2840111 C17.6709541,10.2840111 16.694676,9.91054345 15.8810045,9.16337081 C15.0783011,8.40598895 14.6770769,7.49724943 14.6770769,6.43691482 C14.6770769,5.37681764 15.0783011,4.47318274 15.8810045,3.72577268 C16.694676,2.97860004 17.6709541,2.60501372 18.8100942,2.60501372 C19.9489791,2.60501372 20.9197733,2.97860004 21.7227318,3.72577268 C22.5255628,4.47318274 22.926787,5.37681764 22.926787,6.43691482 L22.926787,6.43691482 Z M20.1605592,6.43691482 C20.1605592,6.09371875 20.0249898,5.80085652 19.753851,5.55844684 C19.4934251,5.30606536 19.178797,5.17987462 18.8100942,5.17987462 C18.4302958,5.17987462 18.1049548,5.30606536 17.8335609,5.55844684 C17.5733901,5.80085652 17.4433047,6.09371875 17.4433047,6.43691482 C17.4433047,6.79055755 17.5733901,7.09327287 17.8335609,7.34589177 C18.1049548,7.58806402 18.4302958,7.70915015 18.8100942,7.70915015 C19.178797,7.70915015 19.4934251,7.58806402 19.753851,7.34589177 C20.0249898,7.09327287 20.1605592,6.79055755 20.1605592,6.43691482 L20.1605592,6.43691482 Z M32.1526478,6.43691482 C32.1526478,7.49724943 31.7514236,8.40598895 30.9487202,9.16337081 C30.1457617,9.91054345 29.1749675,10.2840111 28.0360825,10.2840111 C26.8969425,10.2840111 25.9206643,9.91054345 25.1069929,9.16337081 C24.3042894,8.40598895 23.9030652,7.49724943 23.9030652,6.43691482 L23.9030652,1.28731174 C23.9030652,0.933906441 24.0386346,0.630953697 24.3097734,0.378572218 C24.5809122,0.126190739 24.9063808,0 25.2859241,0 C25.6655949,0 25.9910635,0.126190739 26.2622023,0.378572218 C26.533341,0.630953697 26.6691655,0.933906441 26.6691655,1.28731174 L26.6691655,2.60501372 L28.0360825,2.60501372 C29.1749675,2.60501372 30.1457617,2.97860004 30.9487202,3.72577268 C31.7514236,4.47318274 32.1526478,5.37681764 32.1526478,6.43691482 L32.1526478,6.43691482 Z M29.3865475,6.43691482 C29.3865475,6.09371875 29.2509781,5.80085652 28.9798394,5.55844684 C28.7192859,5.30606536 28.4047854,5.17987462 28.0360825,5.17987462 L26.6691655,5.17987462 L26.6691655,6.43691482 C26.6691655,6.79055755 26.7992509,7.09327287 27.0595492,7.34589177 C27.3309431,7.58806402 27.6561566,7.70915015 28.0360825,7.70915015 C28.4047854,7.70915015 28.7192859,7.58806402 28.9798394,7.34589177 C29.2509781,7.09327287 29.3865475,6.79055755 29.3865475,6.43691482 L29.3865475,6.43691482 Z M35.8136592,1.28731174 C35.8136592,1.64059832 35.6778347,1.94366978 35.4066959,2.19593255 C35.1356847,2.44855145 34.8100886,2.57474219 34.4305453,2.57474219 C34.0508744,2.57474219 33.7254059,2.44855145 33.4542671,2.19593255 C33.1831283,1.94366978 33.0475589,1.64059832 33.0475589,1.28731174 C33.0475589,0.933906441 33.1831283,0.630953697 33.4542671,0.378572218 C33.7254059,0.126190739 34.0508744,0 34.4305453,0 C34.8100886,0 35.1356847,0.126190739 35.4066959,0.378572218 C35.6778347,0.630953697 35.8136592,0.933906441 35.8136592,1.28731174 L35.8136592,1.28731174 Z M35.8136592,8.99669931 C35.8136592,9.35010461 35.6778347,9.65305736 35.4066959,9.90543883 C35.1356847,10.1578203 34.8100886,10.2840111 34.4305453,10.2840111 C34.0508744,10.2840111 33.7254059,10.1578203 33.4542671,9.90543883 C33.1831283,9.65305736 33.0475589,9.35010461 33.0475589,8.99669931 L33.0475589,4.81637881 C33.0475589,4.46297351 33.1831283,4.16002077 33.4542671,3.90763929 C33.7254059,3.65525781 34.0508744,3.52882965 34.4305453,3.52882965 C34.8100886,3.52882965 35.1356847,3.65525781 35.4066959,3.90763929 C35.6778347,4.16002077 35.8136592,4.46297351 35.8136592,4.81637881 L35.8136592,8.99669931 L35.8136592,8.99669931 Z M40.1580015,8.99669931 C40.1580015,9.35010461 40.022177,9.65305736 39.7510382,9.90543883 C39.4798994,10.1578203 39.1544309,10.2840111 38.77476,10.2840111 C38.3952167,10.2840111 38.0696206,10.1578203 37.7984818,9.90543883 C37.5273431,9.65305736 37.3917737,9.35010461 37.3917737,8.99669931 L37.3917737,1.28731174 C37.3917737,0.933906441 37.5273431,0.630953697 37.7984818,0.378572218 C38.0696206,0.126190739 38.3952167,0 38.77476,0 C39.1544309,0 39.4798994,0.126190739 39.7510382,0.378572218 C40.022177,0.630953697 40.1580015,0.933906441 40.1580015,1.28731174 L40.1580015,8.99669931 L40.1580015,8.99669931 Z M49.2049311,8.99669931 C49.2049311,9.35010461 49.0693617,9.65305736 48.7979679,9.90543883 C48.5268291,10.1578203 48.2013605,10.2840111 47.8216897,10.2840111 L45.1044352,10.2840111 C43.9652951,10.2840111 42.9890169,9.91054345 42.1753455,9.16337081 C41.3726421,8.40598895 40.9714179,7.49724943 40.9714179,6.43691482 C40.9714179,5.37681764 41.3726421,4.47318274 42.1753455,3.72577268 C42.9890169,2.96862824 43.9652951,2.5898186 45.1044352,2.5898186 C46.0697454,2.5898186 46.9269061,2.86760442 47.6752798,3.42293864 C48.423781,3.97839158 48.9064999,4.69529268 49.123564,5.57376067 C49.1451173,5.67466578 49.1560853,5.77058498 49.1560853,5.86139958 C49.1560853,6.2250141 49.0205159,6.53283403 48.7493771,6.78545293 C48.4779833,7.02762519 48.1526422,7.14894874 47.7730989,7.14894874 C47.295609,7.14894874 46.9376191,6.98239596 46.6990016,6.64905297 C46.5144589,6.32603792 46.3356552,6.00290415 46.161953,5.67977039 C45.9233355,5.34654611 45.5707021,5.17987462 45.1044352,5.17987462 C44.7245093,5.17987462 44.3992958,5.30606536 44.1279019,5.55844684 C43.8677311,5.80085652 43.7376457,6.09371875 43.7376457,6.43691482 C43.7376457,6.79055755 43.8677311,7.09327287 44.1279019,7.34589177 C44.3992958,7.58806402 44.7245093,7.70915015 45.1044352,7.70915015 L47.8216897,7.70915015 C48.2013605,7.70915015 48.5268291,7.83557832 48.7979679,8.08795979 C49.0693617,8.34034127 49.2049311,8.64329402 49.2049311,8.99669931 L49.2049311,8.99669931 Z" id="Imported-Layers" stroke-width="1.007855"></path>
                    <g id="Imported-Layers" transform="translate(107.254237, 0.000000)" stroke-width="0.9025">
                        <path d="M35.8855848,6.41329116 C35.8855848,6.75648723 36.0127458,7.04934947 36.2670677,7.29175915 C36.5113411,7.54414063 36.8063353,7.67033136 37.1522897,7.67033136 L38.4343065,7.67033136 L38.4343065,6.41329116 C38.4343065,6.05964844 38.3122894,5.75693312 38.0681356,5.50431421 C37.8136941,5.26214196 37.5085317,5.14105583 37.1522897,5.14105583 C36.8063353,5.14105583 36.5113411,5.26214196 36.2670677,5.50431421 C36.0127458,5.75693312 35.8855848,6.05964844 35.8855848,6.41329116 L35.8855848,6.41329116 Z M41.028964,6.41329116 L41.0288444,10.2451923 C41.0363807,11.2819032 40.6548979,12.1671378 39.9050909,12.9013708 C39.1519344,13.6486622 38.241352,14.0223672 37.1731044,14.0223672 L35.9214722,14.0223672 C35.5551817,14.0223672 35.2447558,13.895939 34.990434,13.6435575 C34.7461605,13.4012666 34.6240238,13.0983138 34.6240238,12.734818 C34.6240238,12.3814127 34.7511848,12.07846 35.0057459,11.8260785 C35.2600678,11.573697 35.5653498,11.4475063 35.9214722,11.4475063 L37.1731044,11.4475063 C37.5189391,11.4475063 37.8139333,11.3264202 38.0583264,11.0842479 C38.2990111,10.8450434 38.421387,10.5653582 38.4343065,10.2451923 L37.1522897,10.2451923 C36.084042,10.2451923 35.17334,9.87160595 34.4201835,9.12443331 C33.6672663,8.37702325 33.2909273,7.47338834 33.2909273,6.41329116 C33.2909273,5.35295655 33.6672663,4.44421704 34.4201835,3.68683518 C35.17334,2.93966254 36.084042,2.56619493 37.1522897,2.56619493 C38.2207766,2.56619493 39.1365029,2.93966254 39.8995882,3.68683518 C40.652625,4.44421704 41.028964,5.35295655 41.028964,6.41329116 L41.028964,6.41329116 Z M7.72619386,3.86870179 C7.72619386,4.22210709 7.59903292,4.52505983 7.34471102,4.77744131 C7.09014988,5.03006021 6.78510716,5.15625095 6.42898473,5.15625095 L3.92595966,5.15625095 C3.56959798,5.15625095 3.26455526,5.28244169 3.00999412,5.53482317 C2.76595994,5.77723285 2.64382322,6.07009508 2.64382322,6.41329116 C2.64382322,6.76693388 2.76595994,7.0696492 3.00999412,7.3222681 C3.26455526,7.56444036 3.56959798,7.68552649 3.92595966,7.68552649 L6.42898473,7.68552649 C6.78510716,7.68552649 7.09014988,7.81195465 7.34471102,8.06433613 C7.59903292,8.31671761 7.72619386,8.61967035 7.72619386,8.97307565 C7.72619386,9.32648095 7.59903292,9.62943369 7.34471102,9.88181517 C7.09014988,10.1341966 6.78510716,10.2603874 6.42898473,10.2603874 L3.92595966,10.2603874 C2.85747276,10.2603874 1.94174646,9.88691978 1.17854153,9.13974714 C0.425624317,8.38236528 0.0492853341,7.47362576 0.0492853341,6.41329116 C0.0492853341,5.35319398 0.425624317,4.44955907 1.17854153,3.70214901 C1.94174646,2.95485766 2.85747276,2.58139005 3.92595966,2.58139005 L6.42898473,2.58139005 C6.78510716,2.58139005 7.09014988,2.70758079 7.34471102,2.95996227 C7.59903292,3.20249066 7.72619386,3.50520598 7.72619386,3.86870179 L7.72619386,3.86870179 Z M16.3647645,8.97307565 C16.3647645,9.32648095 16.2376036,9.62943369 15.9832817,9.88181517 C15.7390083,10.1341966 15.4339655,10.2603874 15.0675554,10.2603874 C14.7115526,10.2603874 14.4062706,10.1341966 14.1518291,9.88181517 C13.8973876,9.62943369 13.7702266,9.32648095 13.7702266,8.97307565 L13.7702266,6.39821475 C13.7702266,6.04492816 13.6430657,5.74696132 13.3887438,5.50455164 C13.1444704,5.25217016 12.8493565,5.12597942 12.5035218,5.12597942 C12.1574478,5.12597942 11.8571901,5.25217016 11.6028682,5.50455164 C11.3486659,5.75693312 11.2213853,6.05478125 11.2213853,6.39821475 L11.2213853,8.97307565 C11.2213853,9.32648095 11.0939852,9.62943369 10.8397829,9.88181517 C10.585461,10.1341966 10.2800594,10.2603874 9.92405659,10.2603874 C9.56793416,10.2603874 9.26265219,10.1341966 9.0083303,9.88181517 C8.7540084,9.62943369 8.62684746,9.32648095 8.62684746,8.97307565 L8.62684746,1.26368807 C8.62684746,0.910282774 8.7540084,0.607211319 9.0083303,0.354948552 C9.26265219,0.102567073 9.56793416,-0.0236236662 9.92405659,-0.0236236662 C10.2800594,-0.0236236662 10.585461,0.102567073 10.8397829,0.354948552 C11.0939852,0.607211319 11.2213853,0.910282774 11.2213853,1.26368807 L11.2213853,2.76301925 C11.648804,2.62187081 12.0761031,2.55111852 12.5035218,2.55111852 C13.5717694,2.55111852 14.4823519,2.92969074 15.2355083,3.6870726 C15.9884255,4.43424524 16.3647645,5.33788014 16.3647645,6.39821475 L16.3647645,8.97307565 L16.3647645,8.97307565 Z M25.247489,8.97307565 C25.247489,9.32648095 25.1203281,9.62943369 24.8660062,9.88181517 C24.6116843,10.1341966 24.3062827,10.2603874 23.9502799,10.2603874 L21.3708147,10.2603874 C20.3124959,10.2603874 19.4019134,9.88691978 18.6387085,9.13974714 C17.8857913,8.38236528 17.5094523,7.47362576 17.5094523,6.41329116 C17.5094523,5.35319398 17.8857913,4.44955907 18.6387085,3.70214901 C19.3916257,2.95485766 20.3024474,2.58139005 21.3708147,2.58139005 C22.4393016,2.58139005 23.349884,2.95485766 24.1028012,3.70214901 C24.8660062,4.44955907 25.247489,5.35319398 25.247489,6.41329116 L25.247489,8.97307565 L25.247489,8.97307565 Z M22.6528315,7.68552649 L22.6528315,6.41329116 C22.6528315,6.07009508 22.5256705,5.77723285 22.2713486,5.53482317 C22.0270752,5.28244169 21.7268175,5.15625095 21.3708147,5.15625095 C21.02498,5.15625095 20.7247222,5.28244169 20.4704003,5.53482317 C20.2261269,5.77723285 20.1041098,6.07009508 20.1041098,6.41329116 C20.1041098,6.76693388 20.2261269,7.0696492 20.4704003,7.3222681 C20.7247222,7.56444036 21.02498,7.68552649 21.3708147,7.68552649 L22.6528315,7.68552649 L22.6528315,7.68552649 Z M33.3518162,3.85374409 C33.3518162,4.20703068 33.2246553,4.51010213 32.9703334,4.76248361 C32.7160115,5.01486509 32.4106099,5.14105583 32.0546071,5.14105583 L30.1467144,5.14105583 C29.7904723,5.14105583 29.48531,5.26724657 29.2307488,5.51974676 C28.9867147,5.76203773 28.8646976,6.05988586 28.8646976,6.41329116 L28.8646976,8.97307565 C28.8646976,9.32648095 28.7372974,9.62943369 28.4829755,9.88181517 C28.2286536,10.1341966 27.9233716,10.2603874 27.5672492,10.2603874 C27.2111268,10.2603874 26.9058448,10.1341966 26.6515229,9.88181517 C26.397201,9.62943369 26.2700401,9.32648095 26.2700401,8.97307565 L26.2700401,6.41329116 C26.2700401,5.35319398 26.646379,4.44955907 27.3992963,3.70214901 C28.1625012,2.94500457 29.0782275,2.56619493 30.1467144,2.56619493 L32.0546071,2.56619493 C32.4106099,2.56619493 32.7160115,2.69238567 32.9703334,2.94500457 C33.2246553,3.19738605 33.3518162,3.5003388 33.3518162,3.85374409 L33.3518162,3.85374409 Z M49.7742398,8.97307565 C49.7742398,9.32648095 49.6470789,9.62943369 49.3925177,9.88181517 C49.1381958,10.1341966 48.8329139,10.2603874 48.4767914,10.2603874 L45.9280698,10.2603874 C44.8595829,10.2603874 43.9438566,9.88691978 43.1806516,9.13974714 C42.4277344,8.38236528 42.0513954,7.47362576 42.0513954,6.41329116 C42.0513954,5.35319398 42.4277344,4.44955907 43.1806516,3.70214901 C43.9438566,2.94500457 44.8595829,2.56619493 45.9280698,2.56619493 C46.8335083,2.56619493 47.6373856,2.84398075 48.3393428,3.39931498 C49.0415392,3.9546492 49.4943183,4.67166902 49.6977997,5.55001829 C49.7181359,5.65104211 49.728304,5.74696132 49.728304,5.83777591 C49.728304,6.20139043 49.601143,6.50921037 49.3468211,6.76182927 C49.09226,7.00400152 48.7872173,7.12532508 48.4310948,7.12532508 C47.98334,7.12532508 47.6474341,6.95865358 47.4236165,6.62542931 C47.2506393,6.30229554 47.0829256,5.97928049 46.9198773,5.65614672 C46.6960597,5.32292245 46.3654173,5.15625095 45.9280698,5.15625095 C45.5717081,5.15625095 45.2666654,5.28244169 45.0121042,5.53482317 C44.7679504,5.77723285 44.6459333,6.07009508 44.6459333,6.41329116 C44.6459333,6.76693388 44.7679504,7.0696492 45.0121042,7.3222681 C45.2666654,7.56444036 45.5717081,7.68552649 45.9280698,7.68552649 L48.4767914,7.68552649 C48.8329139,7.68552649 49.1381958,7.81195465 49.3925177,8.06433613 C49.6470789,8.31671761 49.7742398,8.61967035 49.7742398,8.97307565 L49.7742398,8.97307565 Z" id="Stroke-1"></path>
                        <path d="M57.6953021,3.85374409 C57.6953021,4.20703068 57.5681412,4.51010213 57.3138193,4.76248361 C57.0594974,5.01486509 56.7542154,5.14105583 56.398093,5.14105583 L54.4902003,5.14105583 C54.1339583,5.14105583 53.8287959,5.26724657 53.5742348,5.51974676 C53.3302006,5.76203773 53.2081835,6.05988586 53.2081835,6.41329116 L53.2081835,8.97307565 C53.2081835,9.32648095 53.0807833,9.62943369 52.8264614,9.88181517 C52.5721395,10.1341966 52.2668575,10.2603874 51.9107351,10.2603874 C51.5546127,10.2603874 51.2493307,10.1341966 50.9950088,9.88181517 C50.7406869,9.62943369 50.613526,9.32648095 50.613526,8.97307565 L50.613526,6.41329116 C50.613526,5.35319398 50.989865,4.44955907 51.7427822,3.70214901 C52.5059871,2.94500457 53.4217134,2.56619493 54.4902003,2.56619493 L56.398093,2.56619493 C56.7542154,2.56619493 57.0594974,2.69238567 57.3138193,2.94500457 C57.5681412,3.19738605 57.6953021,3.5003388 57.6953021,3.85374409 L57.6953021,3.85374409 Z" id="Stroke-2"></path>
                    </g>
                </g>
                <path d="M25.5,4.5 L25.5,10.5" id="Line-3" stroke="#F16434" stroke-linecap="square" sketch:type="MSShapeGroup"></path>
                <path d="M211.5,70.5 L201.5,81.5" id="Line" stroke="#979797" stroke-linecap="square" sketch:type="MSShapeGroup"></path>
                <path d="M40.5,70.5 L30.5,81.5" id="Line-4" stroke="#979797" stroke-linecap="square" sketch:type="MSShapeGroup" transform="translate(35.500000, 76.000000) scale(-1, 1) translate(-35.500000, -76.000000) "></path>
                <path d="M211.5,303.5 L201.5,314.5" id="Line-6" stroke="#979797" stroke-linecap="square" sketch:type="MSShapeGroup" transform="translate(206.500000, 309.000000) scale(1, -1) translate(-206.500000, -309.000000) "></path>
                <path d="M40.5,303.5 L30.5,314.5" id="Line-5" stroke="#979797" stroke-linecap="square" sketch:type="MSShapeGroup" transform="translate(35.500000, 309.000000) scale(-1, -1) translate(-35.500000, -309.000000) "></path>
                <path d="M216.5,4.5 L216.5,10.8245554" id="Line" stroke="#F16434" stroke-linecap="square" sketch:type="MSShapeGroup"></path>
                <path d="M10.5,295.5 L10.5,20.9949909" id="Line-7" stroke="#F16434" stroke-linecap="square" sketch:type="MSShapeGroup"></path>
                <path d="M13.5,20.5 L7.375,20.5" id="Line" stroke="#F16434" stroke-linecap="square" sketch:type="MSShapeGroup"></path>
                <path d="M9.5,324.5 L9.5,600.5" id="Line-9" stroke="#F16434" stroke-linecap="square" sketch:type="MSShapeGroup"></path>
                <path d="M13.5,600.5 L6.5,600.5" id="Line" stroke="#F16434" stroke-linecap="square" sketch:type="MSShapeGroup"></path>
            </g>
        </g>
    </g>
</svg>