<?xml version="1.0" encoding="UTF-8" standalone="no"?>
<svg width="225px" height="128px" viewBox="0 0 225 128" version="1.1" xmlns="http://www.w3.org/2000/svg" xmlns:xlink="http://www.w3.org/1999/xlink" xmlns:sketch="http://www.bohemiancoding.com/sketch/ns">
    <!-- Generator: Sketch 3.1.1 (8761) - http://www.bohemiancoding.com/sketch -->
    <title>mobilPlus-howDoesGfx-4</title>
    <desc>Created with Sketch.</desc>
    <defs></defs>
    <g id="utilities" stroke="none" stroke-width="1" fill="none" fill-rule="evenodd" sketch:type="MSPage">
        <g id="mobilPlus-howDoesGfx-4" sketch:type="MSArtboardGroup" fill="#FFFFFF">
            <text id="4." sketch:type="MSTextLayer" font-family="Sica" font-size="64" font-weight="260" letter-spacing="-1.33333337">
                <tspan x="86" y="46">4.</tspan>
            </text>
            <g id="Imported-Layers-2" sketch:type="MSLayerGroup" transform="translate(39.000000, 86.000000)">
                <path d="M127.100641,26.2515385 L119.849406,26.2369231 L117.614547,23.5223077 L115.388109,26.2284615 L113.103484,23.5223077 L110.883172,26.2184615 L108.590891,23.5223077 L106.376703,26.2130769 L104.795688,26.2130769 C102.371719,26.2130769 100.406359,24.2384615 100.406359,21.8030769 L100.406359,21.1869231 C100.406359,18.7507692 102.371719,16.7769231 104.795688,16.7769231 L127.106766,16.7769231 C128.848563,13.2323077 132.482984,10.7946154 136.683969,10.7946154 C142.579281,10.7946154 147.359844,15.5961538 147.359844,21.52 C147.359844,27.4438462 142.579281,32.2461538 136.683969,32.2461538 C132.478391,32.2461538 128.840141,29.8030769 127.100641,26.2515385 L127.100641,26.2515385 Z M135.346422,21.52 C135.346422,23.6515385 137.066781,25.3792308 139.188328,25.3792308 C141.309875,25.3792308 143.028703,23.6515385 143.028703,21.52 C143.028703,19.3884615 141.309875,17.6615385 139.188328,17.6615385 C137.066781,17.6615385 135.346422,19.3884615 135.346422,21.52 L135.346422,21.52 Z" id="Fill-1" sketch:type="MSShapeGroup"></path>
                <path d="M39.2068906,0.0392307692 L3.80592188,0.0392307692 C1.75710937,0.0392307692 0.095703125,1.70846154 0.095703125,3.76769231 L0.095703125,36.1876923 C0.095703125,38.2469231 1.75710937,39.9153846 3.80592188,39.9153846 L39.2068906,39.9153846 C41.2564688,39.9153846 42.917875,38.2469231 42.917875,36.1876923 L42.917875,3.76769231 C42.917875,1.70846154 41.2564688,0.0392307692 39.2068906,0.0392307692 L39.2068906,0.0392307692 Z M41.5037656,36.1869231 C41.5037656,37.4615385 40.4755313,38.4946154 39.2068906,38.4946154 L3.8066875,38.4946154 C2.53804687,38.4946154 1.5098125,37.4615385 1.5098125,36.1869231 L1.5098125,3.76769231 C1.5098125,2.49384615 2.53804687,1.46076923 3.8066875,1.46076923 L39.2068906,1.46076923 C40.4755313,1.46076923 41.5037656,2.49384615 41.5037656,3.76769231 L41.5037656,36.1869231 L41.5037656,36.1869231 Z" id="Fill-2" sketch:type="MSShapeGroup"></path>
                <path d="M35.46375,5.87384615 L31.6876875,5.87384615 C30.5515,5.87384615 29.6273906,6.80230769 29.6273906,7.94384615 L29.6273906,32.0115385 C29.6273906,33.1523077 30.5515,34.0807692 31.6876875,34.0807692 L35.46375,34.0807692 C36.5999375,34.0807692 37.5240469,33.1523077 37.5240469,32.0115385 L37.5240469,7.94384615 C37.5240469,6.80230769 36.5999375,5.87384615 35.46375,5.87384615" id="Fill-3" sketch:type="MSShapeGroup"></path>
                <path d="M10.7011406,11.6707692 C8.379,11.6707692 6.49020312,13.5684615 6.49020312,15.9007692 C6.49020312,18.2330769 8.379,20.1315385 10.7011406,20.1315385 C13.02175,20.1315385 14.9105469,18.2330769 14.9105469,15.9007692 C14.9105469,13.5684615 13.02175,11.6707692 10.7011406,11.6707692 L10.7011406,11.6707692 Z M10.7011406,18.8592308 C9.07725,18.8592308 7.75654687,17.5323077 7.75654687,15.9007692 C7.75654687,14.27 9.07725,12.9430769 10.7011406,12.9430769 C12.3235,12.9430769 13.6442031,14.27 13.6442031,15.9007692 C13.6442031,17.5323077 12.3235,18.8592308 10.7011406,18.8592308 L10.7011406,18.8592308 Z" id="Fill-4" sketch:type="MSShapeGroup"></path>
                <path d="M58.9186719,16.5230769 L76.7807031,16.5230769 L73.9134375,14.1915385 L73.9134375,8.66307692 L86.5531406,18.9546154 L73.9134375,29.2907692 L73.9134375,23.7638462 L76.7546719,21.43 L58.9186719,21.43 L58.9186719,16.5230769" id="Fill-5" sketch:type="MSShapeGroup" transform="translate(72.735906, 18.976923) scale(-1, 1) translate(-72.735906, -18.976923) "></path>
            </g>
        </g>
        <g id="4.-+-Imported-Layers-2-+-Line-6" sketch:type="MSLayerGroup" transform="translate(0.000000, 65.000000)" stroke-linecap="square" stroke="#FFFFFF">
            <g id="Line-5" transform="translate(0.000000, -0.091591)" sketch:type="MSShapeGroup">
                <path d="M0.497787611,1.5 L224.875796,1.5" id="Line"></path>
            </g>
        </g>
    </g>
</svg>