<?xml version="1.0" encoding="UTF-8" standalone="no"?>
<svg width="225px" height="151px" viewBox="0 0 225 151" version="1.1" xmlns="http://www.w3.org/2000/svg" xmlns:xlink="http://www.w3.org/1999/xlink" xmlns:sketch="http://www.bohemiancoding.com/sketch/ns">
    <!-- Generator: Sketch 3.1.1 (8761) - http://www.bohemiancoding.com/sketch -->
    <title>mobilPlus-howDoesGfx</title>
    <desc>Created with Sketch.</desc>
    <defs></defs>
    <g id="utilities" stroke="none" stroke-width="1" fill="none" fill-rule="evenodd" sketch:type="MSPage">
        <g id="mobilPlus-howDoesGfx" sketch:type="MSArtboardGroup">
            <g id="Fill-2-+-Fill-3-+-Fill-7-+-Fill-8-+-Fill-13" sketch:type="MSLayerGroup" transform="translate(43.000000, 86.000000)" fill="#FFFFFF">
                <path d="M66.2193933,21.6211076 L83,21.6211076 L83,26.3781466 L66.1956227,26.3781466 L68.8925059,28.6403133 L68.8925059,34 L57,24.0212568 L68.8925059,14 L68.8925059,19.3589409 L66.2193933,21.6211076" id="Fill-3" sketch:type="MSShapeGroup"></path>
                <g id="Fill-7-+-Fill-8-+-Fill-9" transform="translate(0.386146, 1.000000)" sketch:type="MSShapeGroup">
                    <path d="M16.5713056,14.8312848 C14.757815,14.8312848 13.2834615,16.5674457 13.2834615,18.7026665 C13.2834615,20.8364596 14.757815,22.5726205 16.5713056,22.5726205 C18.3840822,22.5726205 19.8591497,20.8364596 19.8591497,18.7026665 C19.8591497,16.5674457 18.3840822,14.8312848 16.5713056,14.8312848 L16.5713056,14.8312848 Z M16.5713056,21.5003698 C15.3496984,21.5003698 14.3551345,20.2453654 14.3551345,18.7026665 C14.3551345,17.1585399 15.3496984,15.9035355 16.5713056,15.9035355 C17.7929128,15.9035355 18.7874768,17.1585399 18.7874768,18.7026665 C18.7874768,20.2453654 17.7929128,21.5003698 16.5713056,21.5003698 L16.5713056,21.5003698 Z" id="Fill-7"></path>
                    <path d="M34.3720722,9.48359523 C34.3706442,9.48359523 31.4155113,9.20446739 31.4155113,9.20446739 C30.5308992,9.20446739 29.8112148,10.0282871 29.8112148,11.0412856 L29.8112148,33.9618929 C29.8112148,34.9741775 30.5308992,35.7987111 31.4155113,35.7987111 L31.4426423,35.7987111 L34.3206661,35.4896002 C35.2052783,35.4896002 35.9242487,34.6657805 35.9242487,33.6534959 L35.9242487,11.3182718 C35.9242487,10.3067011 35.2067062,9.48359523 34.3720722,9.48359523" id="Fill-8"></path>
                    <path d="M37.4200215,3.29138332 L11.2272202,-0.416519445 L11.0651484,-0.42579991 C8.85754491,-0.42579991 7.04476831,1.51881448 6.87055898,3.98170716 L3.58271485,3.98170716 C1.67141001,3.98170716 0.122089326,5.53154484 0.122089326,7.44260678 L0.122089326,37.5291609 C0.122089326,39.439509 1.67141001,40.9893467 3.58271485,40.9893467 L6.97765488,40.9893467 C7.42602972,43.0867318 9.08601617,44.6501332 11.0651484,44.6501332 L11.1422575,44.6501332 L37.3629037,41.8631382 C39.652614,41.8281579 41.5160827,39.6772317 41.5160827,37.069421 L41.5160827,8.08367275 C41.5160827,5.5015618 39.6818869,3.36062987 37.4200215,3.29138332 L37.4200215,3.29138332 Z M40.0552946,37.069421 C40.0552946,38.9112363 38.8236917,40.4032496 37.3043579,40.4032496 L11.0644344,43.1895308 C9.54510059,43.1895308 8.31421171,41.6975175 8.31421171,39.8557021 L8.31421171,4.36863116 C8.31421171,2.52681577 9.54510059,1.03480253 11.0644344,1.03480253 L37.3043579,4.74913024 C38.8236917,4.74913024 40.0552946,6.24257124 40.0552946,8.08295887 L40.0552946,37.069421 L40.0552946,37.069421 Z" id="Fill-9"></path>
                </g>
                <path d="M119.886,0 L101.607429,0 C100.173429,0 99,1.18384615 99,2.63163462 L99,40.9525962 C99,42.4003846 100.173429,43.5850962 101.607429,43.5850962 L119.886,43.5850962 C121.319143,43.5850962 122.492571,42.4003846 122.492571,40.9525962 L122.492571,2.63163462 C122.492571,1.18384615 121.319143,0 119.886,0 L119.886,0 Z M106.314857,2.01548077 L115.178571,2.01548077 C115.532571,2.01548077 115.823143,2.30798077 115.823143,2.66625 C115.823143,3.02451923 115.532571,3.31701923 115.178571,3.31701923 L106.314857,3.31701923 C105.96,3.31701923 105.670286,3.02451923 105.670286,2.66625 C105.670286,2.30798077 105.96,2.01548077 106.314857,2.01548077 L106.314857,2.01548077 Z M110.746286,42.4228846 C109.934571,42.4228846 109.270286,41.7522115 109.270286,40.9326923 C109.270286,40.1123077 109.934571,39.4416346 110.746286,39.4416346 C111.558,39.4416346 112.223143,40.1123077 112.223143,40.9326923 C112.223143,41.7522115 111.558,42.4228846 110.746286,42.4228846 L110.746286,42.4228846 Z M101.170286,5.34548077 L120.323143,5.34548077 L120.323143,38.2378846 L101.170286,38.2378846 L101.170286,5.34548077 Z" id="Imported-Layers-7" sketch:type="MSShapeGroup"></path>
            </g>
            <rect id="Rectangle-88" stroke="#FFFFFF" stroke-width="2" sketch:type="MSShapeGroup" x="1" y="69" width="223" height="80"></rect>
            <path d="M112.368,45 L112.368,0.2 L97.84,0.2 L96.752,3.4 L108.72,3.4 L108.72,45 L112.368,45 Z M127.354667,45 L127.354667,40.2 L122.554667,40.2 L122.554667,45 L127.354667,45 Z" id="1.-5" fill="#FFFFFF" sketch:type="MSShapeGroup"></path>
        </g>
    </g>
</svg>