<?xml version="1.0" encoding="UTF-8" standalone="no"?>
<svg width="225px" height="134px" viewBox="0 0 225 134" version="1.1" xmlns="http://www.w3.org/2000/svg" xmlns:xlink="http://www.w3.org/1999/xlink" xmlns:sketch="http://www.bohemiancoding.com/sketch/ns">
    <!-- Generator: Sketch 3.1.1 (8761) - http://www.bohemiancoding.com/sketch -->
    <title>mobilPlus-howDoesGfx-3</title>
    <desc>Created with Sketch.</desc>
    <defs></defs>
    <g id="utilities" stroke="none" stroke-width="1" fill="none" fill-rule="evenodd" sketch:type="MSPage">
        <g id="mobilPlus-howDoesGfx-3" sketch:type="MSArtboardGroup">
            <g id="3.-+-Line-2-+-Group-4" sketch:type="MSLayerGroup" transform="translate(0.000000, 1.000000)">
                <g id="Line-2-+-Group-+-3." sketch:type="MSShapeGroup">
                    <g id="Line-2" transform="translate(0.000000, 65.081709)" stroke="#FFFFFF" stroke-linecap="square">
                        <path d="M0.497787611,1.5 L224.875796,1.5" id="Line"></path>
                    </g>
                    <g id="Group" transform="translate(37.000000, 90.000000)" fill="#FFFFFF">
                        <path d="M127.289253,26.9165982 L119.8764,26.9016092 L117.59173,24.117588 L115.315668,26.8929313 L112.980123,24.117588 L110.710323,26.8826756 L108.366951,24.117588 L106.103413,26.8771533 L104.487159,26.8771533 C102.009164,26.8771533 100,24.852052 100,22.3544008 L100,21.7224935 C100,19.2240533 102.009164,17.1997409 104.487159,17.1997409 L127.295514,17.1997409 C129.076133,13.5644987 132.79156,11.0644808 137.086177,11.0644808 C143.112887,11.0644808 148,15.9887824 148,22.0640863 C148,28.1393902 143.112887,33.0644808 137.086177,33.0644808 C132.786864,33.0644808 129.067523,30.5589406 127.289253,26.9165982 L127.289253,26.9165982 Z M135.718819,22.0640863 C135.718819,24.2501228 137.477522,26.0219879 139.646355,26.0219879 C141.815187,26.0219879 143.572325,24.2501228 143.572325,22.0640863 C143.572325,19.8780498 141.815187,18.1069737 139.646355,18.1069737 C137.477522,18.1069737 135.718819,19.8780498 135.718819,22.0640863 L135.718819,22.0640863 Z" id="Fill-1"></path>
                        <path d="M40.2319585,0.0402115385 L3.81653886,0.0402115385 C1.70901554,0.0402115385 0,1.75648693 0,3.87375385 L0,37.2074601 C0,39.3247271 1.70901554,41.0402115 3.81653886,41.0402115 L40.2319585,41.0402115 C42.3402694,41.0402115 44.049285,39.3247271 44.049285,37.2074601 L44.049285,3.87375385 C44.049285,1.75648693 42.3402694,0.0402115385 40.2319585,0.0402115385 L40.2319585,0.0402115385 Z M42.5946528,37.2066692 C42.5946528,38.5172076 41.5369534,39.5794002 40.2319585,39.5794002 L3.81732642,39.5794002 C2.51233161,39.5794002 1.45463212,38.5172076 1.45463212,37.2066692 L1.45463212,3.87375385 C1.45463212,2.56400636 2.51233161,1.50181381 3.81732642,1.50181381 L40.2319585,1.50181381 C41.5369534,1.50181381 42.5946528,2.56400636 42.5946528,3.87375385 L42.5946528,37.2066692 L42.5946528,37.2066692 Z" id="Fill-2"></path>
                        <path d="M11.0077927,11.9625385 C8.61910881,11.9625385 6.67618653,13.9076731 6.67618653,16.2982885 C6.67618653,18.6889038 8.61910881,20.6348269 11.0077927,20.6348269 C13.3949016,20.6348269 15.3378238,18.6889038 15.3378238,16.2982885 C15.3378238,13.9076731 13.3949016,11.9625385 11.0077927,11.9625385 L11.0077927,11.9625385 Z M11.0077927,19.3307115 C9.33736788,19.3307115 7.97881865,17.9706154 7.97881865,16.2982885 C7.97881865,14.62675 9.33736788,13.2666538 11.0077927,13.2666538 C12.6766425,13.2666538 14.0351917,14.62675 14.0351917,16.2982885 C14.0351917,17.9706154 12.6766425,19.3307115 11.0077927,19.3307115 L11.0077927,19.3307115 Z" id="Fill-4"></path>
                        <path d="M59.6070466,18.2025322 L76.4126099,18.2025322 L73.7149316,15.9419415 L73.7149316,10.5817088 L85.6070466,20.5600799 L73.7149316,30.5817088 L73.7149316,25.2229678 L76.3881183,22.9601396 L59.6070466,22.9601396 L59.6070466,18.2025322" id="Fill-5"></path>
                        <path d="M37.46375,6.87384615 L33.6876875,6.87384615 C32.5515,6.87384615 31.6273906,7.80230769 31.6273906,8.94384615 L31.6273906,33.0115385 C31.6273906,34.1523077 32.5515,35.0807692 33.6876875,35.0807692 L37.46375,35.0807692 C38.5999375,35.0807692 39.5240469,34.1523077 39.5240469,33.0115385 L39.5240469,8.94384615 C39.5240469,7.80230769 38.5999375,6.87384615 37.46375,6.87384615" id="Fill-4"></path>
                    </g>
                    <path d="M112.46,-0.102291182 C102.732,-0.102291182 100.428,0.473708818 100.428,2.32970882 L100.428,3.41770882 L100.748,3.67370882 C102.668,3.16170882 107.148,2.96970882 111.052,2.96970882 C120.716,2.96970882 122.06,3.73770882 122.06,11.2257088 C122.06,19.7377088 119.692,20.4417088 111.5,20.4417088 L104.652,20.4417088 L105.228,23.3857088 L110.604,23.3857088 C121.228,23.3857088 123.532,23.8977088 123.532,32.7297088 C123.532,41.2417088 121.42,42.3937088 111.5,42.3937088 C105.292,42.3937088 101.452,41.8817088 99.276,41.3057088 L98.956,41.6257088 L98.956,42.7137088 C98.956,44.5697088 101.26,45.4657088 111.82,45.4657088 C124.748,45.4657088 127.244,43.1617088 127.244,33.3057088 C127.244,25.3697088 126.156,22.6177088 120.46,21.6577088 C123.916,20.5697088 125.772,18.5217088 125.772,10.9057088 C125.772,1.62570882 124.236,-0.102291182 112.46,-0.102291182 L112.46,-0.102291182 Z M140.310667,45.0817088 L140.310667,40.2817088 L135.510667,40.2817088 L135.510667,45.0817088 L140.310667,45.0817088 Z" id="3." fill="#FFFFFF"></path>
                </g>
            </g>
        </g>
    </g>
</svg>