<?xml version="1.0" encoding="UTF-8" standalone="no"?>
<svg width="100px" height="100px" viewBox="0 0 100 100" version="1.1" xmlns="http://www.w3.org/2000/svg" xmlns:xlink="http://www.w3.org/1999/xlink" xmlns:sketch="http://www.bohemiancoding.com/sketch/ns">
    <!-- Generator: Sketch 3.1.1 (8761) - http://www.bohemiancoding.com/sketch -->
    <title>mobilPlus-clients-advetisers-7</title>
    <desc>Created with Sketch.</desc>
    <defs></defs>
    <g id="utilities" stroke="none" stroke-width="1" fill="none" fill-rule="evenodd" sketch:type="MSPage">
        <g id="mobilPlus-clients-advetisers-7" sketch:type="MSArtboardGroup">
            <rect id="Rectangle-52" fill="#979797" sketch:type="MSShapeGroup" x="0" y="0" width="100" height="100"></rect>
            <g id="Group" sketch:type="MSLayerGroup" transform="translate(21.000000, 12.000000)">
                <path d="M26.3614151,53.3685748 L30.1532393,56.5100833 L31.1011656,49.5020935 L26.4799059,51.91875 L22.3326094,49.1396071 L22.3326094,55.0601378 L26.3614151,53.3685748 L26.3614151,53.3685748 Z" id="Fill-2" fill="#FFFFFF" sketch:type="MSShapeGroup"></path>
                <path d="M26.3614151,50.8311701 C26.2429243,51.0727874 24.5840532,48.2937653 26.3614151,45.6354915 C26.3614151,45.6354915 17.2375051,43.3399456 16.8820327,38.023398 C16.8820327,38.023398 15.6970061,27.8740204 31.5751288,25.8198503 C8.94291207,17.7244014 10.7203926,0.808530612 10.7203926,1.8959898 C21.5031738,6.48744388 28.6127403,15.3078656 35.8409162,25.578233 C36.6702331,25.8198503 31.693501,11.8038707 47.0976605,-0.0371904762 C46.8606789,6.60831293 47.9269775,9.50820408 45.083317,19.1743469 C42.4764008,26.1823367 39.7511125,27.6322823 39.7511125,27.8740204 C45.3202986,31.9819983 42.7133824,41.769131 41.5284744,47.2063061 L32.049092,50.3478146 L32.5230552,47.5687925 C30.7455746,48.5353827 27.9017955,49.9853282 26.3614151,50.8311701 Z M25.0580164,30.6529218 C26.2429243,30.6529218 27.3093415,31.740381 27.3093415,32.9487092 C27.3093415,34.1569167 26.2429243,35.1236276 25.0580164,35.1236276 C23.8729898,35.1236276 22.9250634,34.1569167 22.9250634,32.9487092 C22.9250634,31.740381 23.8729898,30.6529218 25.0580164,30.6529218 Z" id="Fill-8" fill="#FFFFFF" sketch:type="MSShapeGroup"></path>
                <path d="M25.0580164,30.6529218 C26.2429243,30.6529218 27.3093415,31.740381 27.3093415,32.9487092 C27.3093415,34.1569167 26.2429243,35.1236276 25.0580164,35.1236276 C23.8729898,35.1236276 22.9250634,34.1569167 22.9250634,32.9487092 C22.9250634,31.740381 23.8729898,30.6529218 25.0580164,30.6529218 L25.0580164,30.6529218 Z" id="Stroke-11" stroke-linecap="square" sketch:type="MSShapeGroup"></path>
                <path d="M28.5722945,63.436568 L28.7732188,63.436568 C28.8484172,63.436568 28.9111616,63.436568 28.9736687,63.4493673 C29.0240777,63.4620459 29.0615583,63.5132432 29.0615583,63.5768776 C29.0615583,63.5896769 29.0615583,63.6151548 29.0488671,63.6279541 C29.0488671,63.6407534 29.0488671,63.666352 29.0361759,63.6790306 L29.0361759,63.7045085 C29.0361759,63.7173078 29.0240777,63.7173078 29.0240777,63.7299864 C29.0113865,63.7427857 29.0113865,63.7682636 29.0113865,63.7811837 C28.9986953,63.7936207 28.9986953,63.8064201 28.9986953,63.8064201 L28.3092188,64.9552194 L28.2342577,64.9552194 L27.6075256,64.1128793 C27.507182,63.985369 27.4817996,63.8578588 27.4570102,63.7811837 C27.4192924,63.7045085 27.4069571,63.6407534 27.4069571,63.5768776 C27.4069571,63.5132432 27.4316278,63.4748452 27.4817996,63.4620459 C27.519636,63.436568 27.5821431,63.436568 27.6448875,63.436568 L27.8453374,63.436568 L27.8453374,61.6244983 L23.5459836,61.6244983 L23.5459836,63.436568 L23.658544,63.436568 C23.8840204,63.436568 24.0471084,63.4748452 24.1474519,63.5639575 C24.2476769,63.653432 24.3479018,63.7682636 24.4233374,63.9214932 C24.4357914,63.9469711 24.4357914,63.9596497 24.4481268,63.985369 C24.460818,63.9981684 24.4735092,64.0236463 24.4860818,64.0363248 L25.3258364,65.389068 L26.5415828,67.2779337 L26.554274,68.3500578 L26.554274,68.4391701 C26.554274,68.6305561 26.5169121,68.7455085 26.4540491,68.7964643 C26.3788507,68.8348622 26.3164622,68.8603401 26.240908,68.8603401 L25.664229,68.8603401 L25.664229,70.659852 L30.1018814,70.659852 L30.1018814,68.8603401 L29.5253211,68.8603401 C29.4624581,68.8603401 29.3997137,68.8348622 29.3375624,68.7964643 C29.2873906,68.7711071 29.2620082,68.6561548 29.2620082,68.477568 L29.2620082,67.2396565 L30.7160409,64.4957721 C30.7789039,64.3681412 30.8035746,64.2278316 30.8543395,64.1256786 C30.89182,64.0108469 30.9293006,63.9214932 30.9666626,63.8450595 C31.029407,63.7045085 31.1049611,63.5896769 31.1924949,63.5260425 C31.2680491,63.4620459 31.4057546,63.436568 31.5686053,63.436568 L31.9068793,63.436568 L31.9068793,61.6244983 L28.5722945,61.6244983 L28.5722945,63.436568" id="Fill-12" fill="#FFFFFF" sketch:type="MSShapeGroup"></path>
                <path d="M38.5746258,65.9888248 L38.424229,65.9888248 L38.424229,65.8741139 L38.4869734,65.8741139 C38.9508548,65.8741139 39.377137,65.6954065 39.7532474,65.3507908 C40.1415746,65.0061752 40.3299264,64.5340493 40.3299264,63.9088146 C40.3299264,62.9772415 39.9628303,62.1260867 39.3752393,61.8379813 C38.7665358,61.5394915 38.1349407,61.6386259 37.3964785,61.6371769 C37.2209366,61.6244983 37.0578487,61.6244983 36.8826626,61.6244983 L32.5323067,61.6244983 L32.5323067,63.436568 L32.9207526,63.436568 C33.0462413,63.436568 33.1465849,63.4493673 33.2221391,63.5005646 C33.3096728,63.5384796 33.3470348,63.6918299 33.3470348,63.9469711 L33.3470348,68.337017 C33.3470348,68.5925204 33.3096728,68.7455085 33.2221391,68.7964643 C33.1465849,68.8348622 33.0462413,68.8603401 32.9207526,68.8603401 C32.9086544,68.8603401 32.8959632,68.8476616 32.8959632,68.8476616 L32.5323067,68.8603401 L32.5323067,70.659852 L35.954544,70.659852 C35.954544,70.659852 38.2437055,70.6783265 39.1361227,70.5896973 C40.0903354,70.4946684 40.605456,69.434619 40.605456,68.2095068 C40.605456,67.6353486 40.4302699,67.1121463 40.1040941,66.6652568 C39.7781554,66.2187296 39.2642209,65.9888248 38.5746258,65.9888248 L38.5746258,65.9888248 Z M36.0547689,63.5896769 L36.3807076,63.5896769 C36.681501,63.5896769 36.9448139,63.6279541 37.1458569,63.7045085 C37.3584049,63.7936207 37.4713211,64.0108469 37.4713211,64.3681412 C37.4713211,64.5724473 37.4091697,64.7639541 37.296135,64.9424201 C37.1707648,65.108449 36.9573865,65.1850034 36.6314479,65.1850034 L36.0547689,65.1850034 L36.0547689,63.5896769 L36.0547689,63.5896769 Z M37.3710961,68.4519694 C37.2582986,68.566801 37.1332843,68.6434762 36.9947485,68.6689541 C36.9200245,68.6818741 36.8572802,68.6945527 36.7944172,68.6945527 L36.6192311,68.6945527 L36.0547689,68.6945527 L36.0547689,66.9973146 L36.744364,66.9973146 C36.9827689,66.9973146 37.1832188,67.0736276 37.3337342,67.2267364 C37.4713211,67.3672874 37.5468753,67.5968299 37.5468753,67.890369 C37.5468753,68.145631 37.4967035,68.337017 37.3710961,68.4519694 L37.3710961,68.4519694 Z" id="Fill-13" fill="#FFFFFF" sketch:type="MSShapeGroup"></path>
                <path d="M49.2676196,64.4702942 C49.1927771,64.2278316 49.1045317,63.985369 48.9922086,63.7427857 C48.879411,63.5005646 48.7409939,63.2705391 48.578499,63.0536752 C48.3775746,62.7600153 48.164908,62.5304728 47.9263845,62.3390867 C47.7006708,62.1475799 47.4627403,61.9817925 47.2246912,61.8539201 C46.8484622,61.6626548 46.4850429,61.5349031 46.1337219,61.4838265 C45.770184,61.4199507 45.4820818,61.3945935 45.2434397,61.3945935 C45.0056278,61.3945935 44.7048344,61.4199507 44.3539877,61.4838265 C43.9899755,61.5479439 43.626319,61.6753333 43.238229,61.8668401 C43.0123967,62.0072704 42.7870389,62.1602585 42.5485153,62.3517653 C42.3225644,62.5432721 42.1095419,62.7729354 41.909092,63.0536752 C41.7460041,63.2705391 41.6082986,63.5005646 41.5081922,63.7427857 C41.3952761,63.985369 41.2949325,64.2278316 41.22009,64.4702942 C41.1318446,64.7639541 41.0691002,65.0445731 41.0443108,65.3251922 C41.0069489,65.618852 40.9942577,65.8867925 40.9942577,66.1421752 C40.9942577,66.3717177 41.0069489,66.6781769 41.0443108,67.0482704 C41.0944826,67.4311633 41.1820164,67.8139354 41.3201963,68.2221854 C41.3825849,68.4010136 41.4580204,68.5794796 41.5456728,68.7583078 C41.633681,68.9498146 41.7339059,69.1284014 41.8589202,69.2943095 C42.2225767,69.8047126 42.6862209,70.1877262 43.250683,70.4428673 C43.8147894,70.6853299 44.3914683,70.838318 44.992818,70.8639167 L45.4946544,70.8639167 C46.0961227,70.838318 46.6729202,70.6853299 47.2367894,70.4428673 C47.8007771,70.1877262 48.2652515,69.8047126 48.6287894,69.2943095 C48.7536851,69.1284014 48.85391,68.9498146 48.9421554,68.7583078 C49.0296892,68.5794796 49.1045317,68.4010136 49.1672761,68.2221854 C49.3056933,67.8139354 49.4057996,67.4311633 49.4431616,67.0482704 C49.4806421,66.6781769 49.5062618,66.3717177 49.5062618,66.1421752 C49.5062618,65.8867925 49.4806421,65.618852 49.45609,65.3251922 C49.4178978,65.0445731 49.3556278,64.7639541 49.2676196,64.4702942 L49.2676196,64.4702942 Z M46.2592106,66.5633452 C46.2592106,67.1885799 46.1963476,67.7119031 46.0714519,68.1329524 C45.945726,68.5540017 45.6698405,68.7583078 45.2434397,68.7583078 C44.8176319,68.7583078 44.541865,68.5540017 44.4162577,68.1329524 C44.2912434,67.7119031 44.2410716,67.1885799 44.2410716,66.5633452 L44.2410716,65.7336837 C44.2410716,64.840267 44.3161513,64.2659881 44.4664294,63.9981684 C44.6167076,63.7299864 44.7924867,63.5639575 44.980364,63.5260425 C45.0308916,63.5132432 45.0683722,63.5132432 45.118544,63.5132432 L45.2434397,63.5132432 L45.3817382,63.5132432 C45.4192188,63.5132432 45.4693906,63.5132432 45.5067526,63.5260425 C45.6951043,63.5639575 45.8701718,63.7299864 46.0212802,63.9981684 C46.1836564,64.2659881 46.2592106,64.840267 46.2592106,65.7336837 L46.2592106,66.5633452 L46.2592106,66.5633452 Z" id="Fill-14" fill="#FFFFFF" sketch:type="MSShapeGroup"></path>
                <path d="M54.4854847,61.6244983 L54.4854847,63.436568 L54.673955,63.436568 C54.7487975,63.436568 54.8114233,63.436568 54.8744049,63.4493673 C54.9371493,63.4620459 54.9620573,63.5132432 54.9620573,63.5768776 L54.9620573,63.6279541 C54.9491288,63.6407534 54.9491288,63.666352 54.9491288,63.6790306 C54.9491288,63.6918299 54.9371493,63.6918299 54.9371493,63.7045085 C54.9371493,63.7173078 54.9371493,63.7173078 54.9243395,63.7299864 C54.9243395,63.7427857 54.9118855,63.7682636 54.9118855,63.7811837 C54.9118855,63.7936207 54.8989571,63.8064201 54.8989571,63.8064201 L54.2220532,64.9169422 L54.1473292,64.9169422 L53.5077873,64.1128793 C53.4075624,63.985369 53.38218,63.8578588 53.3573906,63.7811837 C53.3200286,63.7045085 53.3073374,63.6407534 53.3073374,63.5768776 C53.3073374,63.5132432 53.3321268,63.4748452 53.38218,63.4620459 C53.4323517,63.436568 53.4824049,63.436568 53.5452679,63.436568 L53.758409,63.436568 L53.758409,61.6244983 L49.4336728,61.6244983 L49.4336728,63.436568 L49.5591616,63.436568 C49.7844008,63.436568 49.9474888,63.4748452 50.0477137,63.5639575 C50.1480573,63.653432 50.2360654,63.7682636 50.3111452,63.9214932 C50.3235992,63.9469711 50.3365276,63.9596497 50.3365276,63.985369 C50.3485072,63.9981684 50.3610798,64.0236463 50.3738896,64.0363248 L52.4546544,67.252335 L52.4546544,68.4391701 C52.4546544,68.6305561 52.4172924,68.7455085 52.3545481,68.7964643 C52.2915665,68.8348622 52.2167239,68.8603401 52.1412883,68.8603401 L51.5773006,68.8603401 L51.5773006,70.659852 L56.0022618,70.659852 L56.0022618,68.8603401 L55.438274,68.8603401 C55.3629571,68.8603401 55.3006871,68.8348622 55.2505153,68.7964643 C55.187771,68.7711071 55.1623885,68.6561548 55.1623885,68.477568 L55.1623885,67.163102 L56.6165399,64.4957721 C56.6791656,64.3681412 56.7173579,64.2278316 56.7547198,64.1256786 C56.7920818,64.0108469 56.8295624,63.9214932 56.867636,63.8450595 C56.9299059,63.7045085 57.0053415,63.5896769 57.0929939,63.5260425 C57.1811207,63.4620459 57.3060164,63.436568 57.4691043,63.436568 L57.8078528,63.436568 L57.8078528,61.6244983 L54.4854847,61.6244983" id="Fill-15" fill="#FFFFFF" sketch:type="MSShapeGroup"></path>
                <path d="M24.2113824,68.7200306 C24.1238487,68.6305561 24.0486503,68.4648895 23.9734519,68.2349847 C23.9607607,68.2095068 23.9607607,68.1840289 23.9480695,68.158551 C23.9480695,68.1329524 23.9358528,68.1073537 23.9358528,68.0818759 L22.130499,61.6244983 L18.7205971,61.6244983 L18.0189039,64.0363248 L16.8401636,67.8522126 C16.8278282,67.890369 16.8154928,67.928767 16.7901104,67.9797228 C16.7776564,68.018 16.7653211,68.0691973 16.7526299,68.1073537 C16.7024581,68.247784 16.6272597,68.3755357 16.5393701,68.5030459 C16.5143436,68.5413231 16.4894356,68.5794796 16.4642904,68.6178776 C16.3389202,68.7711071 16.1632597,68.8603401 15.9380204,68.8603401 L15.7495501,68.8603401 L15.7495501,70.659852 L19.0339632,70.659852 L19.0339632,68.8603401 L18.9089489,68.8603401 C18.7833415,68.8603401 18.7081431,68.8476616 18.65809,68.8348622 C18.6079182,68.8221837 18.5705562,68.8093844 18.5581022,68.7839065 C18.5328384,68.7583078 18.5201472,68.7200306 18.5201472,68.6818741 C18.5201472,68.6305561 18.5328384,68.5794796 18.545411,68.5285238 L18.5955828,68.3627364 L21.2905072,68.3627364 L21.3407975,68.6561548 C21.3407975,68.6689541 21.3407975,68.6818741 21.3533701,68.6818741 L21.3533701,68.707352 C21.3533701,68.7839065 21.3282249,68.8221837 21.2654806,68.8348622 C21.2029734,68.8476616 21.140229,68.8603401 21.0650307,68.8603401 L20.7014928,68.8603401 L20.7014928,70.659852 L24.826135,70.659852 L24.826135,68.8603401 L24.6377832,68.8603401 C24.4496687,68.8603401 24.3119632,68.8093844 24.2113824,68.7200306 L24.2113824,68.7200306 Z M19.97418,66.333682 L19.2223149,66.333682 L19.961726,63.9596497 L20.0623067,63.9596497 L20.7139468,66.333682 L19.97418,66.333682 L19.97418,66.333682 Z" id="Fill-16" fill="#FFFFFF" sketch:type="MSShapeGroup"></path>
                <path d="M6.62243763,62.2366922 C5.84519018,61.8795187 4.99262577,61.6753333 4.052409,61.6371769 C3.92680164,61.6244983 3.80178732,61.6244983 3.67629857,61.6244983 L-0.034396728,61.6244983 L-0.034396728,63.436568 L0.329022495,63.436568 C0.517374233,63.436568 0.63005317,63.4620459 0.692560327,63.5260425 C0.755423313,63.5896769 0.793141104,63.7299864 0.793141104,63.9469711 L0.793141104,68.337017 C0.793141104,68.5540017 0.755423313,68.6945527 0.692560327,68.7583078 C0.63005317,68.8221837 0.517374233,68.8603401 0.329022495,68.8603401 L-0.034396728,68.8476616 L-0.034396728,70.659852 L4.466,70.659852 L4.466,68.8603401 L3.96487526,68.8603401 C3.76442536,68.8603401 3.638818,68.8093844 3.58864622,68.7328299 C3.52590184,68.6561548 3.50111247,68.5285238 3.50111247,68.337017 L3.50111247,67.482119 L4.45330879,67.482119 C5.45638855,67.482119 6.19603681,67.3034116 6.6724908,66.933318 C7.13637219,66.5760238 7.44973824,66.1676531 7.61270757,65.7336837 C7.67545194,65.5422976 7.72526789,65.3507908 7.75041309,65.1722041 C7.7757955,64.9934966 7.78813088,64.8275884 7.78813088,64.6744796 C7.78813088,63.4110901 7.39956646,62.607148 6.62243763,62.2366922 L6.62243763,62.2366922 Z M4.57903476,65.1595255 C4.45330879,65.2997143 4.32841309,65.4019881 4.17766053,65.4530646 C4.08988957,65.4657432 3.98966462,65.4912211 3.90201227,65.5038997 C3.81424131,65.5038997 3.75161554,65.5168197 3.68898978,65.5168197 L3.50111247,65.5168197 L3.50111247,63.5768776 L3.76442536,63.5768776 C4.12760736,63.5768776 4.39092025,63.666352 4.54155419,63.8578588 C4.69195092,64.0363248 4.76691207,64.2533095 4.76691207,64.5085714 C4.76691207,64.8021105 4.7042863,65.0189745 4.57903476,65.1595255 L4.57903476,65.1595255 Z" id="Fill-17" fill="#FFFFFF" sketch:type="MSShapeGroup"></path>
                <path d="M13.9446708,67.5842721 C13.9319796,67.6733844 13.919407,67.737381 13.9070716,67.8012568 C13.8317546,68.145631 13.7442209,68.3500578 13.6313047,68.4264915 C13.5310798,68.5030459 13.3179387,68.5413231 12.9918814,68.5413231 L11.7006994,68.5413231 L11.7006994,63.9214932 C11.7006994,63.7045085 11.7256074,63.5639575 11.7883517,63.5132432 C11.8385235,63.4620459 11.9387485,63.436568 12.1017178,63.436568 L12.5654806,63.436568 L12.5654806,61.6244983 L8.16554601,61.6244983 L8.16554601,63.436568 L8.54141922,63.436568 C8.76737014,63.436568 8.89262168,63.4877653 8.94303067,63.5768776 C8.98039264,63.6918299 8.99320245,63.8190986 8.99320245,63.9469711 L8.99320245,68.337017 C8.99320245,68.4648895 8.98039264,68.5925204 8.93033947,68.7200306 C8.89262168,68.8093844 8.76737014,68.8603401 8.54141922,68.8603401 L8.16554601,68.8476616 L8.16554601,70.659852 L15.2357342,70.659852 L15.2984785,67.3288895 L13.9821513,67.3288895 C13.9694601,67.4311633 13.9570061,67.5075969 13.9446708,67.5842721" id="Fill-18" fill="#FFFFFF" sketch:type="MSShapeGroup"></path>
                <path d="M31.9304826,51.6770119 L31.693501,53.3685748 L41.4099836,50.4686837 L41.5284744,48.897869 L31.9304826,51.6770119 L31.9304826,51.6770119 Z" id="Fill-7" fill="#FFFFFF" sketch:type="MSShapeGroup"></path>
            </g>
        </g>
    </g>
</svg>