<?xml version="1.0" encoding="UTF-8" standalone="no"?>
<svg width="225px" height="151px" viewBox="0 0 225 151" version="1.1" xmlns="http://www.w3.org/2000/svg" xmlns:xlink="http://www.w3.org/1999/xlink" xmlns:sketch="http://www.bohemiancoding.com/sketch/ns">
    <!-- Generator: Sketch 3.1.1 (8761) - http://www.bohemiancoding.com/sketch -->
    <title>mobilPlus-howDoesGfx-2</title>
    <desc>Created with Sketch.</desc>
    <defs></defs>
    <g id="utilities" stroke="none" stroke-width="1" fill="none" fill-rule="evenodd" sketch:type="MSPage">
        <g id="mobilPlus-howDoesGfx-2" sketch:type="MSArtboardGroup">
            <rect id="Rectangle-88" stroke="#FFFFFF" stroke-width="2" sketch:type="MSShapeGroup" x="1" y="69" width="223" height="80"></rect>
            <path d="M126,106.621108 L126,111.378147 L109.195623,111.378147 L111.892506,113.640313 L111.892506,119 L100,109.021257 L111.892506,99 L111.892506,104.358941 L109.219393,106.621108 L126,106.621108 Z" id="Fill-5" fill="#FFFFFF" sketch:type="MSShapeGroup"></path>
            <g id="Fill-7-+-Fill-8-+-Fill-11" sketch:type="MSLayerGroup" transform="translate(44.000000, 87.000000)" fill="#FFFFFF">
                <path d="M16.5713056,14.9129936 C14.757815,14.9129936 13.2834615,16.6491545 13.2834615,18.7843754 C13.2834615,20.9181685 14.757815,22.6543293 16.5713056,22.6543293 C18.3840822,22.6543293 19.8591497,20.9181685 19.8591497,18.7843754 C19.8591497,16.6491545 18.3840822,14.9129936 16.5713056,14.9129936 L16.5713056,14.9129936 Z M16.5713056,21.5820787 C15.3496984,21.5820787 14.3551345,20.3270742 14.3551345,18.7843754 C14.3551345,17.2402487 15.3496984,15.9852443 16.5713056,15.9852443 C17.7929128,15.9852443 18.7874768,17.2402487 18.7874768,18.7843754 C18.7874768,20.3270742 17.7929128,21.5820787 16.5713056,21.5820787 L16.5713056,21.5820787 Z" id="Fill-7" sketch:type="MSShapeGroup"></path>
                <path d="M34.3720722,9.56530405 C34.3706442,9.56530405 31.4155113,9.28617621 31.4155113,9.28617621 C30.5308992,9.28617621 29.8112148,10.109996 29.8112148,11.1229944 L29.8112148,34.0436017 C29.8112148,35.0558863 30.5308992,35.8804199 31.4155113,35.8804199 L31.4426423,35.8804199 L34.3206661,35.5713091 C35.2052783,35.5713091 35.9242487,34.7474893 35.9242487,33.7352047 L35.9242487,11.3999806 C35.9242487,10.3884099 35.2067062,9.56530405 34.3720722,9.56530405" id="Fill-8" sketch:type="MSShapeGroup"></path>
                <path d="M37.4200215,3.37309214 L11.2272202,-0.334810627 L11.0651484,-0.344091093 C8.85754491,-0.344091093 7.04476831,1.6005233 6.87055898,4.06341597 L3.58271485,4.06341597 C1.67141001,4.06341597 0.122089326,5.61325365 0.122089326,7.52431559 L0.122089326,37.6108697 C0.122089326,39.5212178 1.67141001,41.0710555 3.58271485,41.0710555 L6.97765488,41.0710555 C7.42602972,43.1684406 9.08601617,44.731842 11.0651484,44.731842 L11.1422575,44.731842 L37.3629037,41.944847 C39.652614,41.9098668 41.5160827,39.7589405 41.5160827,37.1511298 L41.5160827,8.16538157 C41.5160827,5.58327061 39.6818869,3.44233869 37.4200215,3.37309214 L37.4200215,3.37309214 Z M40.0552946,37.1511298 C40.0552946,38.9929452 38.8236917,40.4849584 37.3043579,40.4849584 L11.0644344,43.2712396 C9.54510059,43.2712396 8.31421171,41.7792264 8.31421171,39.937411 L8.31421171,4.45033998 C8.31421171,2.60852459 9.54510059,1.11651135 11.0644344,1.11651135 L37.3043579,4.83083905 C38.8236917,4.83083905 40.0552946,6.32428006 40.0552946,8.16466769 L40.0552946,37.1511298 L40.0552946,37.1511298 Z" id="Fill-9" sketch:type="MSShapeGroup"></path>
            </g>
            <g id="euro-3" sketch:type="MSLayerGroup" transform="translate(140.000000, 89.000000)">
                <path d="M20.5,0 C9.17914003,0 0,9.17821552 0,20.5005956 C0,31.8229757 9.17914003,41 20.5,41 C31.8232423,41 41,31.8229757 41,20.5005956 C41,9.17821552 31.8232423,0 20.5,0 L20.5,0 Z" id="Fill-6" stroke="#FFFFFF" stroke-width="2" sketch:type="MSShapeGroup"></path>
                <text id="1" sketch:type="MSTextLayer" font-family="Sica" font-size="28.8" font-weight="bold" letter-spacing="-0.600000024" fill="#FFFFFF">
                    <tspan x="11" y="31">1</tspan>
                </text>
                <path d="M30.2368421,23.0209556 L27.1353383,23.0209556 C27.1973684,23.5175189 27.3110902,23.9597653 27.4768484,24.3487008 C27.6422619,24.7376362 27.8228383,25.0427494 28.0192669,25.2640402 C28.2156955,25.4853311 28.4293546,25.6680637 28.6602444,25.8122381 C28.8911341,25.9564124 29.0947995,26.0536463 29.2705514,26.1039396 C29.4459586,26.154233 29.606203,26.1793797 29.7509398,26.1793797 C29.9508145,26.1793797 30.1782581,26.1357921 30.4336153,26.0486169 C30.6882832,25.961777 30.9467419,25.8373847 31.2089912,25.6764459 C31.4705514,25.5155071 31.6893797,25.2891869 31.8651316,24.9974853 C32.0408835,24.7057837 32.129104,24.382565 32.129104,24.0268231 L33.9276316,24.0268231 C33.7139724,25.1802179 33.2728697,26.1123219 32.6043233,26.823135 C31.8668546,27.6077117 30.9229637,28 29.7719612,28 C28.3587093,28 27.2425125,27.4705784 26.4219925,26.4107293 C26.1738722,26.1025985 25.9360902,25.6613579 25.7086466,25.0880134 C25.4815476,24.5146689 25.3261278,23.8256496 25.2434211,23.0209556 L23,23.0209556 L24.0338346,22.015088 L25.2024123,22.015088 C25.2024123,21.6999162 25.2192982,21.3649623 25.2537594,21.0092205 L23,21.0092205 L24.0338346,20.0033529 L25.4295113,20.0033529 C25.6841792,18.883487 26.0704887,18.0217938 26.587406,17.4182733 C27.393797,16.4727578 28.4176378,16 29.6582393,16 C31.3258145,16 32.5457393,16.6336966 33.3176692,17.9010897 C33.7315476,18.5917854 33.9586466,19.2925398 34,20.0033529 L32.129104,20.0033529 C32.129104,19.6345348 32.0408835,19.3025985 31.8651316,19.007544 C31.6893797,18.7124895 31.4705514,18.4844929 31.2089912,18.3235541 C30.9467419,18.1626153 30.6882832,18.04057 30.4336153,17.9564124 C30.1782581,17.8725901 29.9473684,17.830679 29.7409461,17.830679 C29.575188,17.830679 29.3942669,17.8642079 29.1978383,17.9312657 C29.0014098,17.9983236 28.785683,18.1056161 28.5516917,18.2531433 C28.3173559,18.4006706 28.0919799,18.6253143 27.8745301,18.9270746 C27.6577694,19.2288349 27.483396,19.5875943 27.3524436,20.0033529 L31.2706767,20.0033529 L30.2368421,21.0092205 L27.1353383,21.0092205 C27.093985,21.3176865 27.0736529,21.6529757 27.0736529,22.015088 L31.2706767,22.015088 L30.2368421,23.0209556" id="Fill-3" fill="#FFFFFF" sketch:type="MSShapeGroup"></path>
            </g>
            <path d="M113.048,0.816 C103.704,0.816 100.568,1.584 100.568,3.376 L100.568,4.528 L100.952,4.784 C103.064,4.208 107.992,3.888 111.832,3.888 C123.352,3.888 124.056,4.528 124.056,12.016 C124.056,18.928 123.544,19.44 107.16,28.144 C101.784,31.024 99.928,32.624 99.928,40.24 L99.928,46 L127.32,46 L127.32,42.928 L103.576,42.928 L103.576,39.856 C103.576,34.672 104.216,33.52 109.592,30.576 C127.064,20.976 127.832,20.592 127.832,11.824 C127.832,2.288 126.68,0.816 113.048,0.816 L113.048,0.816 Z M140.578667,46 L140.578667,41.2 L135.778667,41.2 L135.778667,46 L140.578667,46 Z" id="2.-3" fill="#FFFFFF" sketch:type="MSShapeGroup"></path>
        </g>
    </g>
</svg>