<?xml version="1.0" encoding="UTF-8" standalone="no"?>
<svg width="225px" height="134px" viewBox="0 0 225 134" version="1.1" xmlns="http://www.w3.org/2000/svg" xmlns:xlink="http://www.w3.org/1999/xlink" xmlns:sketch="http://www.bohemiancoding.com/sketch/ns">
    <!-- Generator: Sketch 3.1.1 (8761) - http://www.bohemiancoding.com/sketch -->
    <title>mobilPlus-howDoesGfx-2</title>
    <desc>Created with Sketch.</desc>
    <defs></defs>
    <g id="utilities" stroke="none" stroke-width="1" fill="none" fill-rule="evenodd" sketch:type="MSPage">
        <g id="mobilPlus-howDoesGfx-2" sketch:type="MSArtboardGroup"></g>
        <g id="Fill-3-+-penz-+-Fill-7-+-Fill-8-+-Fill-9-+-Line-+-2.-2" sketch:type="MSLayerGroup" transform="translate(0.000000, 1.000000)">
            <g id="Fill-3-+-penz-+-Fill-7-+-Fill-8-+-Fill-9" transform="translate(51.000000, 88.000000)" fill="#FFFFFF" sketch:type="MSShapeGroup">
                <path d="M65.1960026,20.2212052 L81.9766094,20.2212052 L81.9766094,24.9782442 L65.172232,24.9782442 L67.8691153,27.2404109 L67.8691153,32.6000977 L55.9766094,22.6213544 L67.8691153,12.6000977 L67.8691153,17.9590385 L65.1960026,20.2212052" id="Fill-3"></path>
                <g id="penz" transform="translate(95.000000, 5.000000)">
                    <path d="M17.9956615,9.84547951 C17.5159575,9.84547951 17.1766777,10.1941394 17.1766777,10.7595339 L17.1766777,13.556352 C17.1766777,14.1217465 17.5159575,14.4600409 17.9956615,14.4600409 C18.4763079,14.4600409 18.8061632,14.1217465 18.8061632,13.556352 L18.8061632,10.7595339 C18.8061632,10.1941394 18.4763079,9.84547951 17.9956615,9.84547951" id="Fill-4"></path>
                    <path d="M12.9168312,9.84547951 C12.4361848,9.84547951 12.096905,10.1941394 12.096905,10.7595339 L12.096905,13.556352 C12.096905,14.1217465 12.4361848,14.4600409 12.9168312,14.4600409 C13.3965351,14.4600409 13.7263905,14.1217465 13.7263905,13.556352 L13.7263905,10.7595339 C13.7263905,10.1941394 13.3965351,9.84547951 12.9168312,9.84547951" id="Fill-5"></path>
                    <path d="M16.810067,0.11786727 C7.85307999,0.11786727 0.590607136,7.37847488 0.590607136,16.335266 C0.590607136,25.292057 7.85307999,32.5517223 16.810067,32.5517223 C25.7689389,32.5517223 33.0295269,25.292057 33.0295269,16.335266 C33.0295269,7.37847488 25.7689389,0.11786727 16.810067,0.11786727 L16.810067,0.11786727 Z M8.83510656,15.5060207 L7.60992946,15.5060207 L7.60992946,10.1187535 L6.24432822,11.3051396 L6.24432822,9.98682814 L7.60992946,8.80044203 L8.83510656,8.80044203 L8.83510656,15.5060207 L8.83510656,15.5060207 Z M11.6483017,24.9292622 L10.424067,24.9292622 L10.424067,19.5419951 L9.05752332,20.7283812 L9.05752332,19.4100697 L10.424067,18.2236836 L11.6483017,18.2236836 L11.6483017,24.9292622 L11.6483017,24.9292622 Z M14.9506252,13.5657753 C14.9506252,14.8473361 14.0091237,15.5625602 12.9168312,15.5625602 C11.8235962,15.5625602 10.8726703,14.8473361 10.8726703,13.5657753 L10.8726703,10.7397451 C10.8726703,9.46006893 11.8235962,8.74390258 12.9168312,8.74390258 C14.0091237,8.74390258 14.9506252,9.46006893 14.9506252,10.7397451 L14.9506252,13.5657753 L14.9506252,13.5657753 Z M18.9597816,21.0487714 L16.7817937,21.0487714 L16.7817937,22.1512906 L18.6365233,22.1512906 L18.6365233,22.969228 L16.7817937,22.969228 L16.7817937,24.1113249 L18.9597816,24.1113249 L18.9597816,24.9292622 L15.8647958,24.9292622 L15.8647958,20.230834 L18.9597816,20.230834 L18.9597816,21.0487714 L18.9597816,21.0487714 Z M17.9956615,15.5625602 C16.903369,15.5625602 15.9524431,14.8473361 15.9524431,13.5657753 L15.9524431,10.7397451 C15.9524431,9.46006893 16.903369,8.74390258 17.9956615,8.74390258 C19.0888964,8.74390258 20.0313403,9.46006893 20.0313403,10.7397451 L20.0313403,13.5657753 C20.0313403,14.8473361 19.0888964,15.5625602 17.9956615,15.5625602 L17.9956615,15.5625602 Z M22.5815936,24.9292622 L21.7428185,24.9292622 L21.7428185,24.6126413 C21.5194593,24.850107 21.2018557,24.9688399 20.8851945,24.9688399 C20.5421449,24.9688399 20.2650664,24.8567033 20.0728079,24.6654115 C19.7957294,24.3883682 19.7231612,24.0642087 19.7231612,23.6891637 L19.7231612,21.4907214 L20.5817276,21.4907214 L20.5817276,23.5704308 C20.5817276,24.0387659 20.8785974,24.1961341 21.1490788,24.1961341 C21.4195602,24.1961341 21.7230272,24.0387659 21.7230272,23.5704308 L21.7230272,21.4907214 L22.5815936,21.4907214 L22.5815936,24.9292622 L22.5815936,24.9292622 Z M25.3844218,22.4283339 C25.2515372,22.2954662 25.1403288,22.2238496 24.9292214,22.2238496 C24.6643947,22.2238496 24.3741219,22.4217377 24.3741219,22.8570914 L24.3741219,24.9292622 L23.516498,24.9292622 L23.516498,21.4907214 L24.3543306,21.4907214 L24.3543306,21.8205349 C24.5192583,21.6226468 24.8500561,21.4511438 25.2194941,21.4511438 C25.5559466,21.4511438 25.7934425,21.5368953 26.0309383,21.774361 L25.3844218,22.4283339 L25.3844218,22.4283339 Z M26.306132,11.6255298 L24.1272016,11.6255298 L24.1272016,12.7798769 L25.9819313,12.7798769 L25.9819313,13.5987566 L24.1272016,13.5987566 L24.1272016,15.5060207 L23.2102037,15.5060207 L23.2102037,10.8075925 L26.306132,10.8075925 L26.306132,11.6255298 L26.306132,11.6255298 Z M28.2437967,14.7794888 L28.5548032,14.7794888 L28.5548032,15.5060207 L28.0854661,15.5060207 C27.3861727,15.5060207 27.0893029,15.0113005 27.0893029,14.5222343 L27.0893029,12.8194545 L26.726462,12.8194545 L26.726462,12.1664239 L27.0893029,12.1664239 L27.0893029,11.1505985 L27.9469268,11.1505985 L27.9469268,12.1664239 L28.5548032,12.1664239 L28.5548032,12.8194545 L27.9469268,12.8194545 L27.9469268,14.4694641 C27.9469268,14.6673522 28.0392863,14.7794888 28.2437967,14.7794888 L28.2437967,14.7794888 Z" id="Fill-6"></path>
                </g>
                <g id="Fill-7-+-Fill-8-+-Fill-9">
                    <path d="M16.5713056,14.9129936 C14.757815,14.9129936 13.2834615,16.6491545 13.2834615,18.7843754 C13.2834615,20.9181685 14.757815,22.6543293 16.5713056,22.6543293 C18.3840822,22.6543293 19.8591497,20.9181685 19.8591497,18.7843754 C19.8591497,16.6491545 18.3840822,14.9129936 16.5713056,14.9129936 L16.5713056,14.9129936 Z M16.5713056,21.5820787 C15.3496984,21.5820787 14.3551345,20.3270742 14.3551345,18.7843754 C14.3551345,17.2402487 15.3496984,15.9852443 16.5713056,15.9852443 C17.7929128,15.9852443 18.7874768,17.2402487 18.7874768,18.7843754 C18.7874768,20.3270742 17.7929128,21.5820787 16.5713056,21.5820787 L16.5713056,21.5820787 Z" id="Fill-7"></path>
                    <path d="M34.3720722,9.56530405 C34.3706442,9.56530405 31.4155113,9.28617621 31.4155113,9.28617621 C30.5308992,9.28617621 29.8112148,10.109996 29.8112148,11.1229944 L29.8112148,34.0436017 C29.8112148,35.0558863 30.5308992,35.8804199 31.4155113,35.8804199 L31.4426423,35.8804199 L34.3206661,35.5713091 C35.2052783,35.5713091 35.9242487,34.7474893 35.9242487,33.7352047 L35.9242487,11.3999806 C35.9242487,10.3884099 35.2067062,9.56530405 34.3720722,9.56530405" id="Fill-8"></path>
                    <path d="M37.4200215,3.37309214 L11.2272202,-0.334810627 L11.0651484,-0.344091093 C8.85754491,-0.344091093 7.04476831,1.6005233 6.87055898,4.06341597 L3.58271485,4.06341597 C1.67141001,4.06341597 0.122089326,5.61325365 0.122089326,7.52431559 L0.122089326,37.6108697 C0.122089326,39.5212178 1.67141001,41.0710555 3.58271485,41.0710555 L6.97765488,41.0710555 C7.42602972,43.1684406 9.08601617,44.731842 11.0651484,44.731842 L11.1422575,44.731842 L37.3629037,41.944847 C39.652614,41.9098668 41.5160827,39.7589405 41.5160827,37.1511298 L41.5160827,8.16538157 C41.5160827,5.58327061 39.6818869,3.44233869 37.4200215,3.37309214 L37.4200215,3.37309214 Z M40.0552946,37.1511298 C40.0552946,38.9929452 38.8236917,40.4849584 37.3043579,40.4849584 L11.0644344,43.2712396 C9.54510059,43.2712396 8.31421171,41.7792264 8.31421171,39.937411 L8.31421171,4.45033998 C8.31421171,2.60852459 9.54510059,1.11651135 11.0644344,1.11651135 L37.3043579,4.83083905 C38.8236917,4.83083905 40.0552946,6.32428006 40.0552946,8.16466769 L40.0552946,37.1511298 L40.0552946,37.1511298 Z" id="Fill-9"></path>
                </g>
            </g>
            <g id="Line" transform="translate(0.000000, 65.000000)" stroke-linecap="square" stroke="#FFFFFF" sketch:type="MSShapeGroup">
                <path d="M0.497787611,1.5 L224.875796,1.5"></path>
            </g>
            <path d="M112.048,-0.184 C102.704,-0.184 99.568,0.584 99.568,2.376 L99.568,3.528 L99.952,3.784 C102.064,3.208 106.992,2.888 110.832,2.888 C122.352,2.888 123.056,3.528 123.056,11.016 C123.056,17.928 122.544,18.44 106.16,27.144 C100.784,30.024 98.928,31.624 98.928,39.24 L98.928,45 L126.32,45 L126.32,41.928 L102.576,41.928 L102.576,38.856 C102.576,33.672 103.216,32.52 108.592,29.576 C126.064,19.976 126.832,19.592 126.832,10.824 C126.832,1.288 125.68,-0.184 112.048,-0.184 L112.048,-0.184 Z M139.578667,45 L139.578667,40.2 L134.778667,40.2 L134.778667,45 L139.578667,45 Z" id="2." fill="#FFFFFF" sketch:type="MSShapeGroup"></path>
        </g>
    </g>
</svg>