<?xml version="1.0" encoding="UTF-8" standalone="no"?>
<svg width="189px" height="71px" viewBox="0 0 189 71" version="1.1" xmlns="http://www.w3.org/2000/svg" xmlns:xlink="http://www.w3.org/1999/xlink" xmlns:sketch="http://www.bohemiancoding.com/sketch/ns">
    <!-- Generator: Sketch 3.1.1 (8761) - http://www.bohemiancoding.com/sketch -->
    <title>mobilPlus-chargingIcon</title>
    <desc>Created with Sketch.</desc>
    <defs></defs>
    <g id="utilities" stroke="none" stroke-width="1" fill="none" fill-rule="evenodd" sketch:type="MSPage">
        <g id="mobilPlus-chargingIcon" sketch:type="MSArtboardGroup">
            <g id="Group-2" sketch:type="MSLayerGroup" transform="translate(1.000000, 1.000000)">
                <circle id="Oval-6" stroke="#D8D8D8" stroke-width="2" sketch:type="MSShapeGroup" cx="34.5" cy="34.5" r="34.5"></circle>
                <circle id="Oval-5" stroke="#D8D8D8" stroke-width="2" sketch:type="MSShapeGroup" cx="152.5" cy="34.5" r="34.5"></circle>
                <path d="M79.852603,32.4667647 L98.1414472,32.4667647 L95.2048844,30.059 L95.2048844,24.3524706 L108.147397,34.9769706 L95.2048844,45.6475294 L95.2048844,39.9417941 L98.114794,37.5324412 L79.852603,37.5324412 L79.852603,32.4667647" id="Fill-1" fill="#D8D8D8" sketch:type="MSShapeGroup"></path>
                <g id="Fill-2-+-Fill-3" transform="translate(10.500000, 22.000000)" fill="#D8D8D8" sketch:type="MSShapeGroup">
                    <path d="M5.54623116,5.93255882 L5.54623116,20.3410294 L14.6373467,20.3410294 L7.33670352,5.93255882 L5.54623116,5.93255882" id="Fill-2"></path>
                    <path d="M46.4480201,7.38102941 L46.4480201,3.05467647 C46.4480201,1.46326471 45.1404422,0.176794118 43.5318392,0.176794118 L2.63005025,0.176794118 C1.0120402,0.176794118 -0.295537688,1.46326471 -0.295537688,3.05467647 L-0.295537688,23.2189118 C-0.295537688,24.8103235 1.0120402,26.0967941 2.63005025,26.0967941 L43.5318392,26.0967941 C45.1404422,26.0967941 46.4480201,24.8103235 46.4480201,23.2189118 L46.4480201,18.8925588 L49.373608,18.8925588 L49.373608,7.38102941 L46.4480201,7.38102941 L46.4480201,7.38102941 Z M43.5318392,21.7799706 C43.5318392,22.5709118 42.8733467,23.2189118 42.0737487,23.2189118 L4.0881407,23.2189118 C3.27913568,23.2189118 2.63005025,22.5709118 2.63005025,21.7799706 L2.63005025,4.49361765 C2.63005025,3.70267647 3.27913568,3.05467647 4.0881407,3.05467647 L42.0737487,3.05467647 C42.8733467,3.05467647 43.5318392,3.70267647 43.5318392,4.49361765 L43.5318392,21.7799706 L43.5318392,21.7799706 Z" id="Fill-3"></path>
                </g>
                <g id="Fill-4-+-Fill-5" transform="translate(129.500000, 21.000000)" fill="#D8D8D8" sketch:type="MSShapeGroup">
                    <path d="M5.89718593,5.93255882 L40.9399598,5.93255882 L40.9399598,20.3410294 L5.89718593,20.3410294 L5.89718593,5.93255882 Z" id="Fill-4"></path>
                    <path d="M46.7989749,7.38102941 L46.7989749,3.05467647 C46.7989749,1.46326471 45.491397,0.176794118 43.882794,0.176794118 L2.98100503,0.176794118 C1.36299497,0.176794118 0.0554170854,1.46326471 0.0554170854,3.05467647 L0.0554170854,23.2189118 C0.0554170854,24.8103235 1.36299497,26.0967941 2.98100503,26.0967941 L43.882794,26.0967941 C45.491397,26.0967941 46.7989749,24.8103235 46.7989749,23.2189118 L46.7989749,18.8925588 L49.7245628,18.8925588 L49.7245628,7.38102941 L46.7989749,7.38102941 L46.7989749,7.38102941 Z M43.882794,21.7799706 C43.882794,22.5709118 43.2243015,23.2189118 42.4247035,23.2189118 L4.43909548,23.2189118 C3.63009045,23.2189118 2.98100503,22.5709118 2.98100503,21.7799706 L2.98100503,4.49361765 C2.98100503,3.70267647 3.63009045,3.05467647 4.43909548,3.05467647 L42.4247035,3.05467647 C43.2243015,3.05467647 43.882794,3.70267647 43.882794,4.49361765 L43.882794,21.7799706 L43.882794,21.7799706 Z" id="Fill-5"></path>
                </g>
            </g>
        </g>
    </g>
</svg>