<?xml version="1.0" encoding="UTF-8" standalone="no"?>
<svg width="26px" height="53px" viewBox="0 0 26 53" version="1.1" xmlns="http://www.w3.org/2000/svg" xmlns:xlink="http://www.w3.org/1999/xlink" xmlns:sketch="http://www.bohemiancoding.com/sketch/ns">
    <!-- Generator: Sketch 3.3.2 (12043) - http://www.bohemiancoding.com/sketch -->
    <title>varion-control-right-01</title>
    <desc>Created with Sketch.</desc>
    <defs></defs>
    <g id="pictrures-final" stroke="none" stroke-width="1" fill="none" fill-rule="evenodd" sketch:type="MSPage">
        <g id="varion-control-right-01" sketch:type="MSArtboardGroup" stroke="#FFFFFF" stroke-width="2">
            <path d="M21.9152746,51.342 C21.3212746,51.342 20.7452746,51.065 20.3332746,50.582 C19.9662746,50.153 11.9592746,40.8 11.0162746,39.706 C9.33027463,37.749 7.23027463,35.313 6.57427463,34.527 L4.17027463,31.641 C3.01327463,30.253 1.85727463,28.865 0.699274634,27.477 C-0.227725366,26.366 -0.232725366,25.505 0.682274634,24.407 C2.18027463,22.608 4.61527463,19.742 6.96927463,16.97 C9.24827463,14.286 18.4682746,3.592 19.9232746,1.848 C20.3722746,1.309 20.9982746,1 21.6392746,1 C22.0852746,1 22.4992746,1.148 22.8352746,1.429 C23.7592746,2.201 23.8272746,3.434 23.0002746,4.426 C21.6542746,6.041 12.5202746,16.631 10.3222746,19.215 C8.17627463,21.739 5.95727463,24.348 4.63727463,25.931 L7.71327463,29.621 C8.55727463,30.635 10.3572746,32.737 12.0982746,34.769 C13.7702746,36.721 22.5422746,46.973 23.3382746,47.925 C23.9242746,48.625 24.0622746,49.352 23.7502746,50.085 C23.4192746,50.86 22.7162746,51.342 21.9152746,51.342 L21.9152746,51.342 Z" id="Imported-Layers" sketch:type="MSShapeGroup" transform="translate(12.500000, 27.000000) scale(-1, 1) translate(-12.500000, -27.000000) "></path>
        </g>
    </g>
</svg>