<?xml version="1.0" encoding="UTF-8" standalone="no"?>
<svg width="26px" height="53px" viewBox="0 0 26 53" version="1.1" xmlns="http://www.w3.org/2000/svg" xmlns:xlink="http://www.w3.org/1999/xlink" xmlns:sketch="http://www.bohemiancoding.com/sketch/ns">
    <!-- Generator: Sketch 3.3.2 (12043) - http://www.bohemiancoding.com/sketch -->
    <title>varion-control-left-01</title>
    <desc>Created with Sketch.</desc>
    <defs></defs>
    <g id="pictrures-final" stroke="none" stroke-width="1" fill="none" fill-rule="evenodd" sketch:type="MSPage">
        <g id="varion-control-left-01" sketch:type="MSArtboardGroup" stroke="#FFFFFF" stroke-width="2">
            <path d="M22.9152746,51.342 C22.3212746,51.342 21.7452746,51.065 21.3332746,50.582 C20.9662746,50.153 12.9592746,40.8 12.0162746,39.706 C10.3302746,37.749 8.23027463,35.313 7.57427463,34.527 L5.17027463,31.641 C4.01327463,30.253 2.85727463,28.865 1.69927463,27.477 C0.772274634,26.366 0.767274634,25.505 1.68227463,24.407 C3.18027463,22.608 5.61527463,19.742 7.96927463,16.97 C10.2482746,14.286 19.4682746,3.592 20.9232746,1.848 C21.3722746,1.309 21.9982746,1 22.6392746,1 C23.0852746,1 23.4992746,1.148 23.8352746,1.429 C24.7592746,2.201 24.8272746,3.434 24.0002746,4.426 C22.6542746,6.041 13.5202746,16.631 11.3222746,19.215 C9.17627463,21.739 6.95727463,24.348 5.63727463,25.931 L8.71327463,29.621 C9.55727463,30.635 11.3572746,32.737 13.0982746,34.769 C14.7702746,36.721 23.5422746,46.973 24.3382746,47.925 C24.9242746,48.625 25.0622746,49.352 24.7502746,50.085 C24.4192746,50.86 23.7162746,51.342 22.9152746,51.342 L22.9152746,51.342 Z" id="Imported-Layers" sketch:type="MSShapeGroup"></path>
        </g>
    </g>
</svg>